<svg xmlns="http://www.w3.org/2000/svg" width="958.25" height="995.56" viewBox="0 0 958.25 995.56"><defs><style>.a{fill:#fff;}.b{fill:none;}.c{fill:#e2f1f7;}</style></defs><title>blue2</title><rect class="a" x="-81.9" y="-38.27" width="1122" height="1122"/><polygon class="b" points="576.93 434.92 604.54 387.11 576.93 339.3 576.93 434.92"/><polygon class="b" points="381.3 435.01 381.3 339.2 353.64 387.11 381.3 435.01"/><polygon class="b" points="416.37 385.11 471.65 385.11 388.72 337.23 416.37 385.11"/><polygon class="b" points="446 665.68 390.79 665.68 473.6 713.49 446 665.68"/><polygon class="b" points="320.55 665.68 292.92 713.53 375.81 665.68 320.55 665.68"/><polygon class="b" points="580.37 436.96 663.26 389.11 608 389.11 580.37 436.96"/><polygon class="b" points="572.93 560.46 545.28 608.36 572.93 656.26 572.93 560.46"/><polygon class="b" points="665.26 613.82 582.37 661.68 637.63 661.68 665.26 613.82"/><polygon class="b" points="641.1 553.05 668.74 600.93 668.74 505.17 641.1 553.05"/><polygon class="b" points="641.1 442.43 668.74 490.31 668.74 394.55 641.1 442.43"/><polygon class="b" points="668.74 615.8 641.1 663.68 668.74 711.56 668.74 615.8"/><polygon class="b" points="572.93 435.01 572.93 339.2 545.28 387.11 572.93 435.01"/><polygon class="b" points="484.53 613.78 512.18 661.68 567.5 661.68 484.53 613.78"/><polygon class="b" points="481.13 615.89 481.13 711.47 508.72 663.68 481.13 615.89"/><polygon class="b" points="541.82 610.36 486.61 610.36 569.42 658.17 541.82 610.36"/><polygon class="b" points="635.29 364.32 665.24 381.61 637.63 333.8 582.43 333.8 635.29 364.32"/><polygon class="b" points="452.78 706.09 388.72 669.11 416.37 716.98 471.65 716.98 452.78 706.09"/><polygon class="b" points="477.1 379.68 477.1 283.92 449.46 331.8 477.1 379.68"/><polygon class="b" points="668.74 379.68 668.74 283.92 641.1 331.8 668.74 379.68"/><polygon class="b" points="608 385.11 663.29 385.11 601.19 349.25 580.36 337.23 608 385.11"/><polygon class="b" points="608 499.73 580.37 547.59 663.26 499.73 608 499.73"/><polygon class="b" points="541.82 385.11 569.43 337.27 486.58 385.11 541.82 385.11"/><polygon class="b" points="350.18 385.11 377.8 337.27 294.94 385.11 350.18 385.11"/><polygon class="b" points="385.3 671.17 385.3 766.79 412.9 718.98 385.3 671.17"/><polygon class="b" points="582.43 444.43 635.29 474.94 665.24 492.24 637.63 444.43 582.43 444.43"/><polygon class="b" points="473.63 613.82 390.74 661.68 446 661.68 473.63 613.82"/><polygon class="b" points="350.18 610.36 294.97 610.36 377.78 658.17 350.18 610.36"/><polygon class="b" points="317.08 663.68 289.49 615.89 289.49 711.47 317.08 663.68"/><polygon class="b" points="375.81 555.05 320.55 555.05 292.92 602.91 375.81 555.05"/><polygon class="b" points="477.1 615.8 449.46 663.68 477.1 711.56 477.1 615.8"/><polygon class="b" points="484.55 492.28 499.97 483.38 567.45 444.43 512.18 444.43 484.55 492.28"/><polygon class="b" points="576.93 560.55 576.93 656.17 604.54 608.36 576.93 560.55"/><polygon class="b" points="448.77 367.27 473.6 381.61 446 333.8 390.79 333.8 448.77 367.27"/><polygon class="b" points="481.13 490.21 508.72 442.43 481.13 394.64 481.13 490.21"/><polygon class="b" points="446 440.43 473.63 392.57 390.74 440.43 446 440.43"/><polygon class="b" points="375.86 551.05 292.89 503.15 320.55 551.05 375.86 551.05"/><polygon class="b" points="512.18 555.05 484.55 602.91 547.56 566.53 567.45 555.05 512.18 555.05"/><polygon class="b" points="317.08 442.43 289.49 394.64 289.49 490.21 317.08 442.43"/><polygon class="b" points="320.55 440.43 375.86 440.43 292.89 392.52 320.55 440.43"/><polygon class="b" points="385.3 434.92 412.9 387.11 385.3 339.3 385.3 434.92"/><polygon class="b" points="292.89 613.78 320.55 661.68 375.86 661.68 292.89 613.78"/><polygon class="b" points="317.08 553.05 289.49 505.26 289.49 600.84 317.08 553.05"/><polygon class="b" points="582.37 440.43 637.63 440.43 665.26 392.57 582.37 440.43"/><polygon class="b" points="582.43 555.05 665.24 602.86 637.63 555.05 582.43 555.05"/><polygon class="b" points="582.37 551.05 637.63 551.05 665.26 503.2 582.37 551.05"/><polygon class="b" points="388.74 436.96 471.63 389.11 416.37 389.11 388.74 436.96"/><polygon class="b" points="512.18 440.43 567.5 440.43 484.53 392.52 512.18 440.43"/><polygon class="b" points="608 610.36 580.37 658.22 663.26 610.36 608 610.36"/><polygon class="b" points="637.63 665.68 582.43 665.68 665.24 713.49 637.63 665.68"/><polygon class="b" points="477.1 726.42 449.46 774.3 477.1 822.18 477.1 726.42"/><polygon class="b" points="572.93 671.08 545.28 718.98 572.93 766.89 572.93 671.08"/><polygon class="b" points="703.82 551.05 759.13 551.05 676.16 503.15 703.82 551.05"/><polygon class="b" points="473.63 724.45 390.74 772.3 446 772.3 473.63 724.45"/><polygon class="b" points="703.82 661.68 759.13 661.68 676.16 613.78 703.82 661.68"/><polygon class="b" points="254.36 440.43 281.99 392.57 199.1 440.43 254.36 440.43"/><polygon class="b" points="254.36 661.68 281.99 613.82 199.1 661.68 254.36 661.68"/><polygon class="b" points="350.18 720.98 294.97 720.98 377.78 768.79 350.18 720.98"/><polygon class="b" points="285.47 490.31 285.47 394.55 257.82 442.43 285.47 490.31"/><polygon class="b" points="199.1 772.3 254.36 772.3 281.99 724.45 199.1 772.3"/><polygon class="b" points="285.47 726.42 257.82 774.3 285.47 822.18 285.47 726.42"/><polygon class="b" points="608 720.98 580.37 768.84 663.26 720.98 608 720.98"/><polygon class="b" points="388.74 326.34 471.63 278.48 416.37 278.48 388.74 326.34"/><polygon class="b" points="320.55 329.8 375.86 329.8 292.89 281.9 320.55 329.8"/><polygon class="b" points="254.36 329.8 281.99 281.94 199.1 329.8 254.36 329.8"/><polygon class="b" points="280.02 385.11 197.09 337.23 224.73 385.11 280.02 385.11"/><polygon class="b" points="703.82 444.43 676.19 492.28 697.25 480.13 759.08 444.43 703.82 444.43"/><polygon class="b" points="279.99 389.11 224.73 389.11 197.1 436.96 279.99 389.11"/><polygon class="b" points="512.18 329.8 567.5 329.8 484.53 281.9 512.18 329.8"/><polygon class="b" points="703.82 440.43 759.13 440.43 676.16 392.52 703.82 440.43"/><polygon class="b" points="703.82 333.8 676.19 381.66 697.25 369.5 759.08 333.8 703.82 333.8"/><polygon class="b" points="580.37 326.34 663.26 278.48 608 278.48 580.37 326.34"/><polygon class="b" points="703.82 329.8 759.13 329.8 676.16 281.9 703.82 329.8"/><polygon class="b" points="254.36 551.05 281.99 503.2 199.1 551.05 254.36 551.05"/><polygon class="b" points="512.18 665.68 484.55 713.53 547.56 677.16 567.45 665.68 512.18 665.68"/><polygon class="b" points="416.37 720.98 388.74 768.84 471.63 720.98 416.37 720.98"/><polygon class="b" points="672.77 711.47 700.36 663.68 672.77 615.89 672.77 711.47"/><polygon class="b" points="646.83 707.48 580.36 669.11 608 716.98 663.29 716.98 646.83 707.48"/><polygon class="b" points="759.08 665.68 703.82 665.68 676.19 713.53 759.08 665.68"/><polygon class="b" points="264.1 371.3 281.96 381.61 254.36 333.8 199.15 333.8 264.1 371.3"/><polygon class="b" points="285.47 600.93 285.47 505.17 257.82 553.05 285.47 600.93"/><polygon class="b" points="381.3 671.08 353.64 718.98 381.3 766.89 381.3 671.08"/><polygon class="b" points="281.96 602.86 254.36 555.05 199.15 555.05 281.96 602.86"/><polygon class="b" points="285.47 711.56 285.47 615.8 257.82 663.68 285.47 711.56"/><polygon class="b" points="281.96 713.49 254.36 665.68 199.15 665.68 281.96 713.49"/><polygon class="b" points="576.93 671.17 576.93 766.79 604.54 718.98 576.93 671.17"/><polygon class="b" points="759.08 555.05 703.82 555.05 676.19 602.91 759.08 555.05"/><polygon class="b" points="292.92 381.66 310.86 371.3 375.81 333.8 320.55 333.8 292.92 381.66"/><polygon class="b" points="481.13 379.59 508.72 331.8 481.13 284.01 481.13 379.59"/><polygon class="b" points="285.47 379.68 285.47 283.92 257.82 331.8 285.47 379.68"/><polygon class="b" points="289.49 379.59 317.08 331.8 289.49 284.01 289.49 379.59"/><polygon class="b" points="446 329.8 473.63 281.94 390.74 329.8 446 329.8"/><polygon class="b" points="484.55 381.66 499.97 372.75 567.45 333.8 512.18 333.8 484.55 381.66"/><polygon class="b" points="672.77 600.84 700.36 553.05 672.77 505.26 672.77 600.84"/><polygon class="b" points="672.77 394.64 672.77 490.21 700.36 442.43 672.77 394.64"/><polygon class="b" points="637.63 329.8 665.26 281.94 582.37 329.8 637.63 329.8"/><polygon class="b" points="672.77 284.01 672.77 379.59 700.36 331.8 672.77 284.01"/><polygon class="b" points="576.93 449.92 576.93 545.54 604.54 497.73 576.93 449.92"/><polygon class="b" points="576.93 7.42 576.93 103.04 604.54 55.23 576.93 7.42"/><polygon class="b" points="486.58 938.24 541.82 938.24 569.43 890.4 486.58 938.24"/><polygon class="b" points="385.3 7.42 385.3 103.04 412.9 55.23 385.3 7.42"/><polygon class="b" points="62.72 333.8 7.52 333.8 65.49 367.27 90.33 381.61 62.72 333.8"/><polygon class="b" points="62.72 886.93 7.52 886.93 65.49 920.4 90.33 934.74 62.72 886.93"/><polygon class="b" points="186.15 105.04 158.54 57.23 103.33 57.23 186.15 105.04"/><polygon class="b" points="62.72 444.43 7.52 444.43 65.49 477.9 90.33 492.24 62.72 444.43"/><polygon class="b" points="952.69 658.17 925.09 610.36 869.88 610.36 952.69 658.17"/><polygon class="b" points="952.69 547.54 925.09 499.73 869.88 499.73 952.69 547.54"/><polygon class="b" points="576.93 118.04 576.93 213.66 604.54 165.85 576.93 118.04"/><polygon class="b" points="952.69 990.05 925.09 942.24 869.88 942.24 952.69 990.05"/><polygon class="b" points="952.69 879.42 925.09 831.61 869.88 831.61 952.69 879.42"/><polygon class="b" points="952.69 436.92 925.09 389.11 869.88 389.11 952.69 436.92"/><polygon class="b" points="101.26 835.03 128.91 882.93 184.22 882.93 101.26 835.03"/><polygon class="b" points="761.05 215.66 733.45 167.85 678.24 167.85 761.05 215.66"/><polygon class="b" points="774.06 886.93 835.89 922.63 856.87 934.74 829.27 886.93 774.06 886.93"/><polygon class="b" points="385.3 118.04 385.3 213.66 412.9 165.85 385.3 118.04"/><polygon class="b" points="186.15 215.66 158.54 167.85 103.33 167.85 186.15 215.66"/><polygon class="b" points="601.19 902.38 580.36 890.36 608 938.24 663.29 938.24 601.19 902.38"/><polygon class="b" points="103.31 938.24 158.54 938.24 186.16 890.4 103.31 938.24"/><polygon class="b" points="294.94 938.24 350.18 938.24 377.8 890.4 294.94 938.24"/><polygon class="b" points="377.78 215.66 350.18 167.85 294.97 167.85 377.78 215.66"/><polygon class="b" points="569.42 215.66 541.82 167.85 486.61 167.85 569.42 215.66"/><polygon class="b" points="678.22 938.24 733.45 938.24 761.07 890.4 678.22 938.24"/><polygon class="b" points="952.69 768.79 925.09 720.98 869.88 720.98 952.69 768.79"/><polygon class="b" points="567.45 1.92 512.18 1.92 484.55 49.78 567.45 1.92"/><polygon class="b" points="647.47 39.48 665.24 49.73 637.63 1.92 582.43 1.92 647.47 39.48"/><polygon class="b" points="815.47 25.83 856.87 49.73 829.27 1.92 774.06 1.92 815.47 25.83"/><polygon class="b" points="447.89 34.89 473.6 49.73 446 1.92 390.79 1.92 447.89 34.89"/><polygon class="b" points="717.67 25.83 759.08 1.92 703.82 1.92 676.19 49.78 717.67 25.83"/><polygon class="b" points="375.81 1.92 320.55 1.92 292.92 49.78 375.81 1.92"/><polygon class="b" points="64.61 34.89 90.33 49.73 62.72 1.92 7.52 1.92 64.61 34.89"/><polygon class="b" points="127.08 34.89 184.17 1.92 128.91 1.92 101.28 49.78 127.08 34.89"/><polygon class="b" points="281.96 49.73 254.36 1.92 199.15 1.92 281.96 49.73"/><polygon class="b" points="909.3 25.83 950.72 1.92 895.46 1.92 867.83 49.78 909.3 25.83"/><polygon class="b" points="952.69 326.29 925.09 278.48 869.88 278.48 952.69 326.29"/><polygon class="b" points="761.05 105.04 733.45 57.23 678.24 57.23 761.05 105.04"/><polygon class="b" points="569.42 105.04 541.82 57.23 486.61 57.23 569.42 105.04"/><polygon class="b" points="952.69 215.66 925.09 167.85 869.88 167.85 952.69 215.66"/><polygon class="b" points="377.78 105.04 350.18 57.23 294.97 57.23 377.78 105.04"/><polygon class="b" points="952.69 105.04 925.09 57.23 869.88 57.23 952.69 105.04"/><polygon class="b" points="925.09 53.23 952.7 5.39 911.3 29.3 869.85 53.23 925.09 53.23"/><polygon class="b" points="541.82 495.73 569.43 447.9 486.58 495.73 541.82 495.73"/><polygon class="b" points="381.3 545.63 381.3 449.83 353.64 497.73 381.3 545.63"/><polygon class="b" points="446 555.05 390.79 555.05 473.6 602.86 446 555.05"/><polygon class="b" points="608 495.73 663.29 495.73 601.19 459.88 580.36 447.85 608 495.73"/><polygon class="b" points="390.74 551.05 446 551.05 473.63 503.2 390.74 551.05"/><polygon class="b" points="385.3 449.92 385.3 545.54 412.9 497.73 385.3 449.92"/><polygon class="b" points="449.46 553.05 477.1 600.93 477.1 505.17 449.46 553.05"/><polygon class="b" points="608 606.36 663.29 606.36 646.83 596.86 580.36 558.48 608 606.36"/><polygon class="b" points="471.63 499.73 416.37 499.73 388.74 547.59 471.63 499.73"/><polygon class="b" points="320.51 591.6 294.94 606.36 350.18 606.36 377.8 558.52 320.51 591.6"/><polygon class="b" points="572.93 545.63 572.93 449.83 545.28 497.73 572.93 545.63"/><polygon class="b" points="484.53 503.15 512.18 551.05 567.5 551.05 484.53 503.15"/><polygon class="b" points="416.37 495.73 471.65 495.73 388.72 447.85 416.37 495.73"/><polygon class="b" points="385.3 560.55 385.3 656.17 412.9 608.36 385.3 560.55"/><polygon class="b" points="377.8 447.9 294.94 495.73 350.18 495.73 377.8 447.9"/><polygon class="b" points="377.78 547.54 350.18 499.73 294.97 499.73 377.78 547.54"/><polygon class="b" points="416.37 610.36 388.74 658.22 471.63 610.36 416.37 610.36"/><polygon class="b" points="799.64 274.48 854.93 274.48 813.47 250.55 772 226.6 799.64 274.48"/><polygon class="b" points="381.3 560.46 353.64 608.36 381.3 656.26 381.3 560.46"/><polygon class="b" points="452.78 595.46 388.72 558.48 416.37 606.36 471.65 606.36 452.78 595.46"/><polygon class="b" points="448.77 477.9 473.6 492.24 446 444.43 390.79 444.43 448.77 477.9"/><polygon class="b" points="541.82 499.73 486.61 499.73 569.42 547.54 541.82 499.73"/><polygon class="b" points="477.1 490.31 477.1 394.55 449.46 442.43 477.1 490.31"/><polygon class="b" points="280.02 495.73 197.09 447.85 224.73 495.73 280.02 495.73"/><polygon class="b" points="481.13 505.26 481.13 600.84 508.72 553.05 481.13 505.26"/><polygon class="b" points="186.16 669.15 122.18 706.09 103.31 716.98 158.54 716.98 186.16 669.15"/><polygon class="b" points="186.16 558.52 122.18 595.46 103.31 606.36 158.54 606.36 186.16 558.52"/><polygon class="b" points="186.16 226.65 136.59 255.27 103.31 274.48 158.54 274.48 186.16 226.65"/><polygon class="b" points="348.94 796.43 294.94 827.61 350.18 827.61 377.8 779.78 348.94 796.43"/><polygon class="b" points="719.67 803.68 678.22 827.61 733.45 827.61 761.07 779.78 719.67 803.68"/><polygon class="b" points="193.66 228.67 193.66 324.29 221.27 276.48 193.66 228.67"/><polygon class="b" points="799.64 716.98 854.93 716.98 833.06 704.36 772 669.11 799.64 716.98"/><polygon class="b" points="799.64 606.36 854.93 606.36 833.06 593.73 772 558.48 799.64 606.36"/><polygon class="b" points="562.55 783.75 486.58 827.61 541.82 827.61 569.43 779.78 562.55 783.75"/><polygon class="b" points="799.64 827.61 854.93 827.61 813.47 803.68 772 779.73 799.64 827.61"/><polygon class="b" points="186.16 779.78 136.59 808.4 103.31 827.61 158.54 827.61 186.16 779.78"/><polygon class="b" points="310.86 481.93 375.81 444.43 320.55 444.43 292.92 492.28 310.86 481.93"/><polygon class="b" points="377.78 436.92 350.18 389.11 294.97 389.11 377.78 436.92"/><polygon class="b" points="320.51 702.22 294.94 716.98 350.18 716.98 377.8 669.15 320.51 702.22"/><polygon class="b" points="254.36 444.43 199.15 444.43 264.1 481.93 281.96 492.24 254.36 444.43"/><polygon class="b" points="569.42 436.92 541.82 389.11 486.61 389.11 569.42 436.92"/><polygon class="b" points="377.78 326.29 350.18 278.48 294.97 278.48 377.78 326.29"/><polygon class="b" points="517.05 588.76 486.58 606.36 541.82 606.36 569.43 558.52 517.05 588.76"/><polygon class="b" points="761.05 326.29 733.45 278.48 678.24 278.48 761.05 326.29"/><polygon class="b" points="569.42 326.29 541.82 278.48 486.61 278.48 569.42 326.29"/><polygon class="b" points="385.3 228.67 385.3 324.29 412.9 276.48 385.3 228.67"/><polygon class="b" points="576.93 228.67 576.93 324.29 604.54 276.48 576.93 228.67"/><polygon class="b" points="517.05 699.39 486.58 716.98 541.82 716.98 569.43 669.15 517.05 699.39"/><polygon class="b" points="895.46 112.55 867.83 160.4 950.72 112.55 895.46 112.55"/><polygon class="b" points="867.8 171.27 895.46 219.17 950.77 219.17 867.8 171.27"/><polygon class="b" points="895.46 108.55 950.77 108.55 867.8 60.65 895.46 108.55"/><polygon class="b" points="864.4 173.39 864.4 268.96 891.99 221.17 864.4 173.39"/><polygon class="b" points="254.36 108.55 281.99 60.69 199.1 108.55 254.36 108.55"/><polygon class="b" points="867.8 281.9 895.46 329.8 950.77 329.8 867.8 281.9"/><polygon class="b" points="829.27 108.55 856.9 60.69 774.01 108.55 829.27 108.55"/><polygon class="b" points="320.55 108.55 375.86 108.55 292.89 60.65 320.55 108.55"/><polygon class="b" points="388.74 105.08 471.63 57.23 416.37 57.23 388.74 105.08"/><polygon class="b" points="703.82 108.55 759.13 108.55 676.16 60.65 703.82 108.55"/><polygon class="b" points="512.18 108.55 567.5 108.55 484.53 60.65 512.18 108.55"/><polygon class="b" points="580.37 105.08 663.26 57.23 608 57.23 580.37 105.08"/><polygon class="b" points="864.4 284.01 864.4 379.59 891.99 331.8 864.4 284.01"/><polygon class="b" points="867.8 724.4 895.46 772.3 950.77 772.3 867.8 724.4"/><polygon class="b" points="864.4 726.52 864.4 822.09 891.99 774.3 864.4 726.52"/><polygon class="b" points="867.8 835.03 895.46 882.93 950.77 882.93 867.8 835.03"/><polygon class="b" points="864.4 837.14 864.4 932.72 891.99 884.93 864.4 837.14"/><polygon class="b" points="864.4 947.77 864.4 1043.35 891.99 995.56 864.4 947.77"/><polygon class="b" points="864.4 394.64 864.4 490.21 891.99 442.43 864.4 394.64"/><polygon class="b" points="895.46 665.68 867.83 713.53 950.72 665.68 895.46 665.68"/><polygon class="b" points="895.46 551.05 950.77 551.05 867.8 503.15 895.46 551.05"/><polygon class="b" points="867.8 392.52 895.46 440.43 950.77 440.43 867.8 392.52"/><polygon class="b" points="895.46 661.68 950.77 661.68 867.8 613.78 895.46 661.68"/><polygon class="b" points="895.46 555.05 867.83 602.91 950.72 555.05 895.46 555.05"/><polygon class="b" points="62.72 661.68 90.35 613.82 7.46 661.68 62.72 661.68"/><polygon class="b" points="97.86 947.77 97.86 1043.35 125.45 995.56 97.86 947.77"/><polygon class="b" points="292.89 945.65 320.55 993.56 375.86 993.56 292.89 945.65"/><polygon class="b" points="101.26 945.65 128.91 993.56 184.22 993.56 101.26 945.65"/><polygon class="b" points="289.49 947.77 289.49 1043.35 317.08 995.56 289.49 947.77"/><polygon class="b" points="676.16 945.65 703.82 993.56 759.13 993.56 676.16 945.65"/><polygon class="b" points="541.82 942.24 486.61 942.24 569.42 990.05 541.82 942.24"/><polygon class="b" points="672.77 947.77 672.77 1043.35 700.36 995.56 672.77 947.77"/><polygon class="b" points="62.72 329.8 90.35 281.94 7.46 329.8 62.72 329.8"/><polygon class="b" points="189.66 103.13 189.66 7.33 162.01 55.23 189.66 103.13"/><polygon class="b" points="62.72 440.43 90.35 392.57 7.46 440.43 62.72 440.43"/><polygon class="b" points="62.72 223.17 7.52 223.17 35.85 239.53 90.33 270.99 62.72 223.17"/><polygon class="b" points="62.72 993.56 90.35 945.7 7.46 993.56 62.72 993.56"/><polygon class="b" points="62.72 219.17 90.35 171.32 7.46 219.17 62.72 219.17"/><polygon class="b" points="62.72 108.55 90.35 60.69 7.46 108.55 62.72 108.55"/><polygon class="b" points="62.72 776.3 7.52 776.3 35.85 792.66 90.33 824.12 62.72 776.3"/><polygon class="b" points="62.72 882.93 90.35 835.07 7.46 882.93 62.72 882.93"/><polygon class="b" points="62.72 551.05 90.35 503.2 7.46 551.05 62.72 551.05"/><polygon class="b" points="856.9 945.7 774.01 993.56 829.27 993.56 856.9 945.7"/><polygon class="b" points="62.72 772.3 90.35 724.45 7.46 772.3 62.72 772.3"/><polygon class="b" points="860.38 947.68 832.73 995.56 860.38 1043.44 860.38 947.68"/><polygon class="b" points="676.19 160.4 759.08 112.55 703.82 112.55 676.19 160.4"/><polygon class="b" points="672.77 158.34 700.36 110.55 672.77 62.76 672.77 158.34"/><polygon class="b" points="637.63 108.55 665.26 60.69 582.37 108.55 637.63 108.55"/><polygon class="b" points="860.38 158.43 860.38 62.67 832.73 110.55 860.38 158.43"/><polygon class="b" points="285.47 158.43 285.47 62.67 257.82 110.55 285.47 158.43"/><polygon class="b" points="733.45 942.24 678.24 942.24 761.05 990.05 733.45 942.24"/><polygon class="b" points="292.92 160.4 375.81 112.55 320.55 112.55 292.92 160.4"/><polygon class="b" points="289.49 158.34 317.08 110.55 289.49 62.76 289.49 158.34"/><polygon class="b" points="446 108.55 473.63 60.69 390.74 108.55 446 108.55"/><polygon class="b" points="864.4 62.76 864.4 158.34 891.99 110.55 864.4 62.76"/><polygon class="b" points="484.55 160.4 567.45 112.55 512.18 112.55 484.55 160.4"/><polygon class="b" points="856.87 160.36 829.27 112.55 774.06 112.55 856.87 160.36"/><polygon class="b" points="381.3 892.33 353.64 940.24 381.3 988.14 381.3 892.33"/><polygon class="b" points="224.73 942.24 197.1 990.09 279.99 942.24 224.73 942.24"/><polygon class="b" points="189.66 892.33 162.01 940.24 189.66 988.14 189.66 892.33"/><polygon class="b" points="416.37 942.24 388.74 990.09 471.63 942.24 416.37 942.24"/><polygon class="b" points="101.28 160.4 184.17 112.55 128.91 112.55 101.28 160.4"/><polygon class="b" points="764.57 892.33 736.91 940.24 764.57 988.14 764.57 892.33"/><polygon class="b" points="799.64 942.24 772.01 990.09 854.9 942.24 799.64 942.24"/><polygon class="b" points="864.4 615.89 864.4 711.47 891.99 663.68 864.4 615.89"/><polygon class="b" points="864.4 505.26 864.4 600.84 891.99 553.05 864.4 505.26"/><polygon class="b" points="576.93 892.42 576.93 988.05 604.54 940.24 576.93 892.42"/><polygon class="b" points="608 942.24 580.37 990.09 663.26 942.24 608 942.24"/><polygon class="b" points="481.13 158.34 508.72 110.55 481.13 62.76 481.13 158.34"/><polygon class="b" points="350.18 942.24 294.97 942.24 377.78 990.05 350.18 942.24"/><polygon class="b" points="285.47 947.68 257.82 995.56 285.47 1043.44 285.47 947.68"/><polygon class="b" points="281.99 945.7 199.1 993.56 254.36 993.56 281.99 945.7"/><polygon class="b" points="93.83 932.81 93.83 837.05 66.19 884.93 93.83 932.81"/><polygon class="b" points="158.54 942.24 103.33 942.24 186.15 990.05 158.54 942.24"/><polygon class="b" points="93.83 1043.44 93.83 947.68 66.19 995.56 93.83 1043.44"/><polygon class="b" points="665.26 945.7 582.37 993.56 637.63 993.56 665.26 945.7"/><polygon class="b" points="668.74 947.68 641.1 995.56 668.74 1043.44 668.74 947.68"/><polygon class="b" points="477.1 947.68 449.46 995.56 477.1 1043.44 477.1 947.68"/><polygon class="b" points="572.93 892.33 545.28 940.24 572.93 988.14 572.93 892.33"/><polygon class="b" points="473.63 945.7 390.74 993.56 446 993.56 473.63 945.7"/><polygon class="b" points="93.83 379.68 93.83 283.92 66.19 331.8 93.83 379.68"/><polygon class="b" points="90.33 160.36 62.72 112.55 7.52 112.55 90.33 160.36"/><polygon class="b" points="93.83 822.18 93.83 726.42 66.19 774.3 93.83 822.18"/><polygon class="b" points="93.83 269.05 93.83 173.29 66.19 221.17 93.83 269.05"/><polygon class="b" points="93.83 158.43 93.83 62.67 66.19 110.55 93.83 158.43"/><polygon class="b" points="128.91 108.55 184.22 108.55 101.26 60.65 128.91 108.55"/><polygon class="b" points="281.96 160.36 254.36 112.55 199.15 112.55 281.96 160.36"/><polygon class="b" points="90.33 713.49 62.72 665.68 7.52 665.68 90.33 713.49"/><polygon class="b" points="93.83 711.56 93.83 615.8 66.19 663.68 93.83 711.56"/><polygon class="b" points="93.83 600.93 93.83 505.17 66.19 553.05 93.83 600.93"/><polygon class="b" points="93.83 490.31 93.83 394.55 66.19 442.43 93.83 490.31"/><polygon class="b" points="90.33 602.86 62.72 555.05 7.52 555.05 90.33 602.86"/><polygon class="b" points="97.86 158.34 125.45 110.55 97.86 62.76 97.86 158.34"/><polygon class="b" points="2.03 118.04 2.03 213.66 29.63 165.85 2.03 118.04"/><polygon class="b" points="2.03 228.67 2.03 324.29 29.63 276.48 2.03 228.67"/><polygon class="b" points="2.03 339.3 2.03 434.92 29.63 387.11 2.03 339.3"/><polygon class="b" points="224.73 53.23 280.02 53.23 253.61 37.98 197.09 5.35 224.73 53.23"/><polygon class="b" points="2.03 7.42 2.03 103.04 29.63 55.23 2.03 7.42"/><polygon class="b" points="350.18 53.23 377.8 5.39 321.35 37.98 294.94 53.23 350.18 53.23"/><polygon class="b" points="2.03 449.92 2.03 545.54 29.63 497.73 2.03 449.92"/><polygon class="b" points="2.03 892.42 2.03 988.05 29.63 940.24 2.03 892.42"/><polygon class="b" points="2.03 671.17 2.03 766.79 29.63 718.98 2.03 671.17"/><polygon class="b" points="2.03 560.55 2.03 656.17 29.63 608.36 2.03 560.55"/><polygon class="b" points="2.03 781.8 2.03 877.42 29.63 829.61 2.03 781.8"/><polygon class="b" points="928.55 276.48 956.21 324.38 956.21 228.58 928.55 276.48"/><polygon class="b" points="869.85 274.48 925.09 274.48 952.7 226.65 911.3 250.55 869.85 274.48"/><polygon class="b" points="869.85 385.11 925.09 385.11 952.7 337.27 869.85 385.11"/><polygon class="b" points="869.85 495.73 925.09 495.73 952.7 447.9 869.85 495.73"/><polygon class="b" points="928.55 387.11 956.21 435.01 956.21 339.2 928.55 387.11"/><polygon class="b" points="928.55 55.23 956.21 103.13 956.21 7.33 928.55 55.23"/><polygon class="b" points="799.64 53.23 854.93 53.23 813.47 29.3 772 5.35 799.64 53.23"/><polygon class="b" points="928.55 165.85 956.21 213.76 956.21 117.95 928.55 165.85"/><polygon class="b" points="733.45 53.23 761.07 5.39 719.67 29.3 678.22 53.23 733.45 53.23"/><polygon class="b" points="869.85 163.85 925.09 163.85 952.7 116.02 911.3 139.92 869.85 163.85"/><polygon class="b" points="541.82 53.23 569.43 5.39 505.37 42.38 486.58 53.23 541.82 53.23"/><polygon class="b" points="928.55 497.73 956.21 545.63 956.21 449.83 928.55 497.73"/><polygon class="b" points="88.38 716.98 69.5 706.09 5.45 669.11 33.09 716.98 88.38 716.98"/><polygon class="b" points="381.3 103.13 381.3 7.33 353.64 55.23 381.3 103.13"/><polygon class="b" points="5.45 5.35 33.09 53.23 88.38 53.23 5.45 5.35"/><polygon class="b" points="88.35 57.23 33.09 57.23 5.46 105.08 88.35 57.23"/><polygon class="b" points="197.1 105.08 279.99 57.23 224.73 57.23 197.1 105.08"/><polygon class="b" points="193.66 103.04 221.27 55.23 193.66 7.42 193.66 103.04"/><polygon class="b" points="158.54 53.23 186.16 5.39 103.31 53.23 158.54 53.23"/><polygon class="b" points="88.38 385.11 5.45 337.23 33.09 385.11 88.38 385.11"/><polygon class="b" points="88.35 278.48 33.09 278.48 5.46 326.34 88.35 278.48"/><polygon class="b" points="88.38 274.48 55.1 255.27 5.45 226.6 33.09 274.48 88.38 274.48"/><polygon class="b" points="88.38 163.85 55 144.58 5.45 115.97 33.09 163.85 88.38 163.85"/><polygon class="b" points="88.35 167.85 33.09 167.85 5.46 215.71 88.35 167.85"/><polygon class="b" points="772.01 105.08 854.9 57.23 799.64 57.23 772.01 105.08"/><polygon class="b" points="895.46 444.43 867.83 492.28 888.88 480.13 950.72 444.43 895.46 444.43"/><polygon class="b" points="416.37 53.23 471.65 53.23 388.72 5.35 416.37 53.23"/><polygon class="b" points="895.46 223.17 867.83 271.03 909.3 247.08 950.72 223.17 895.46 223.17"/><polygon class="b" points="895.46 886.93 867.83 934.79 888.88 922.63 950.72 886.93 895.46 886.93"/><polygon class="b" points="895.46 776.3 867.83 824.16 909.3 800.21 950.72 776.3 895.46 776.3"/><polygon class="b" points="895.46 333.8 867.83 381.66 888.88 369.5 950.72 333.8 895.46 333.8"/><polygon class="b" points="88.35 389.11 33.09 389.11 5.46 436.96 88.35 389.11"/><polygon class="b" points="608 53.23 663.29 53.23 580.36 5.35 608 53.23"/><polygon class="b" points="572.93 103.13 572.93 7.33 545.28 55.23 572.93 103.13"/><polygon class="b" points="768.57 103.04 796.17 55.23 768.57 7.42 768.57 103.04"/><polygon class="b" points="764.57 103.13 764.57 7.33 736.91 55.23 764.57 103.13"/><polygon class="b" points="869.85 716.98 925.09 716.98 952.7 669.15 891.72 704.36 869.85 716.98"/><polygon class="b" points="869.85 938.24 925.09 938.24 952.7 890.4 869.85 938.24"/><polygon class="b" points="928.55 940.24 956.21 988.14 956.21 892.33 928.55 940.24"/><polygon class="b" points="484.53 945.65 512.18 993.56 567.5 993.56 484.53 945.65"/><polygon class="b" points="869.85 827.61 925.09 827.61 952.7 779.78 911.3 803.68 869.85 827.61"/><polygon class="b" points="928.55 829.61 956.21 877.51 956.21 781.71 928.55 829.61"/><polygon class="b" points="928.55 608.36 956.21 656.26 956.21 560.46 928.55 608.36"/><polygon class="b" points="869.85 606.36 925.09 606.36 952.7 558.52 891.72 593.73 869.85 606.36"/><polygon class="b" points="481.13 947.77 481.13 1043.35 508.72 995.56 481.13 947.77"/><polygon class="b" points="928.55 718.98 956.21 766.89 956.21 671.08 928.55 718.98"/><polygon class="b" points="88.38 495.73 5.45 447.85 33.09 495.73 88.38 495.73"/><polygon class="b" points="867.8 945.65 895.46 993.56 950.77 993.56 867.8 945.65"/><polygon class="b" points="88.35 610.36 33.09 610.36 5.46 658.22 88.35 610.36"/><polygon class="b" points="88.35 499.73 33.09 499.73 5.46 547.59 88.35 499.73"/><polygon class="b" points="88.35 720.98 33.09 720.98 5.46 768.84 88.35 720.98"/><polygon class="b" points="88.38 606.36 69.5 595.46 5.45 558.48 33.09 606.36 88.38 606.36"/><polygon class="b" points="88.35 942.24 33.09 942.24 5.46 990.09 88.35 942.24"/><polygon class="b" points="88.38 827.61 55.1 808.4 5.45 779.73 33.09 827.61 88.38 827.61"/><polygon class="b" points="88.35 831.61 33.09 831.61 5.46 879.47 88.35 831.61"/><polygon class="b" points="88.38 938.24 5.45 890.36 33.09 938.24 88.38 938.24"/><polygon class="b" points="186.16 337.27 103.31 385.11 158.54 385.11 186.16 337.27"/><polygon class="b" points="184.22 329.8 101.26 281.9 128.91 329.8 184.22 329.8"/><polygon class="b" points="736.91 608.36 764.57 656.26 764.57 560.46 736.91 608.36"/><polygon class="b" points="155.84 239.53 184.17 223.17 128.91 223.17 101.28 271.03 155.84 239.53"/><polygon class="b" points="254.36 219.17 281.99 171.32 199.1 219.17 254.36 219.17"/><polygon class="b" points="189.66 213.76 189.66 117.95 162.01 165.85 189.66 213.76"/><polygon class="b" points="736.91 718.98 764.57 766.89 764.57 671.08 736.91 718.98"/><polygon class="b" points="184.22 219.17 101.26 171.27 128.91 219.17 184.22 219.17"/><polygon class="b" points="484.53 724.4 512.18 772.3 567.5 772.3 484.53 724.4"/><polygon class="b" points="481.13 726.52 481.13 822.09 508.72 774.3 481.13 726.52"/><polygon class="b" points="438.38 808.4 388.72 779.73 416.37 827.61 471.65 827.61 438.38 808.4"/><polygon class="b" points="126.19 367.27 184.17 333.8 128.91 333.8 101.28 381.66 126.19 367.27"/><polygon class="b" points="637.63 776.3 582.43 776.3 587.84 779.43 665.24 824.12 637.63 776.3"/><polygon class="b" points="703.82 776.3 676.19 824.16 717.67 800.21 759.08 776.3 703.82 776.3"/><polygon class="b" points="772 337.23 799.64 385.11 854.93 385.11 772 337.23"/><polygon class="b" points="799.64 499.73 772.01 547.59 854.9 499.73 799.64 499.73"/><polygon class="b" points="799.64 389.11 772.01 436.96 854.9 389.11 799.64 389.11"/><polygon class="b" points="772 447.85 799.64 495.73 854.93 495.73 772 447.85"/><polygon class="b" points="799.64 610.36 772.01 658.22 854.9 610.36 799.64 610.36"/><polygon class="b" points="799.64 831.61 772.01 879.47 854.9 831.61 799.64 831.61"/><polygon class="b" points="799.64 720.98 772.01 768.84 854.9 720.98 799.64 720.98"/><polygon class="b" points="799.64 278.48 772.01 326.34 854.9 278.48 799.64 278.48"/><polygon class="b" points="512.18 219.17 567.5 219.17 484.53 171.27 512.18 219.17"/><polygon class="b" points="388.74 215.71 471.63 167.85 416.37 167.85 388.74 215.71"/><polygon class="b" points="580.37 215.71 663.26 167.85 608 167.85 580.37 215.71"/><polygon class="b" points="385.3 781.8 385.3 877.42 412.9 829.61 385.3 781.8"/><polygon class="b" points="320.55 219.17 375.86 219.17 292.89 171.27 320.55 219.17"/><polygon class="b" points="703.82 219.17 759.13 219.17 676.16 171.27 703.82 219.17"/><polygon class="b" points="774.01 882.93 829.27 882.93 856.9 835.07 774.01 882.93"/><polygon class="b" points="226.02 796.43 197.09 779.73 224.73 827.61 280.02 827.61 226.02 796.43"/><polygon class="b" points="193.66 781.8 193.66 877.42 221.27 829.61 193.66 781.8"/><polygon class="b" points="184.22 440.43 101.26 392.52 128.91 440.43 184.22 440.43"/><polygon class="b" points="676.16 835.03 703.82 882.93 759.13 882.93 676.16 835.03"/><polygon class="b" points="672.77 837.14 672.77 932.72 700.36 884.93 672.77 837.14"/><polygon class="b" points="668.74 837.05 641.1 884.93 668.74 932.81 668.74 837.05"/><polygon class="b" points="774.06 776.3 815.47 800.21 856.87 824.12 829.27 776.3 774.06 776.3"/><polygon class="b" points="774.06 555.05 856.87 602.86 829.27 555.05 774.06 555.05"/><polygon class="b" points="774.01 551.05 829.27 551.05 856.9 503.2 774.01 551.05"/><polygon class="b" points="774.01 661.68 829.27 661.68 856.9 613.82 774.01 661.68"/><polygon class="b" points="774.01 772.3 829.27 772.3 856.9 724.45 774.01 772.3"/><polygon class="b" points="774.06 665.68 856.87 713.49 829.27 665.68 774.06 665.68"/><polygon class="b" points="665.26 835.07 582.37 882.93 637.63 882.93 665.26 835.07"/><polygon class="b" points="733.45 831.61 678.24 831.61 761.05 879.42 733.45 831.61"/><polygon class="b" points="184.17 555.05 128.91 555.05 101.28 602.91 184.17 555.05"/><polygon class="b" points="184.22 661.68 101.26 613.78 128.91 661.68 184.22 661.68"/><polygon class="b" points="541.82 831.61 486.61 831.61 569.42 879.42 541.82 831.61"/><polygon class="b" points="126.19 477.9 184.17 444.43 128.91 444.43 101.28 492.28 126.19 477.9"/><polygon class="b" points="184.17 665.68 128.91 665.68 101.28 713.53 184.17 665.68"/><polygon class="b" points="184.22 551.05 101.26 503.15 128.91 551.05 184.22 551.05"/><polygon class="b" points="320.55 776.3 292.92 824.16 325.87 805.13 375.81 776.3 320.55 776.3"/><polygon class="b" points="292.89 835.03 320.55 882.93 375.86 882.93 292.89 835.03"/><polygon class="b" points="446 886.93 390.79 886.93 448.77 920.4 473.6 934.74 446 886.93"/><polygon class="b" points="289.49 837.14 289.49 932.72 317.08 884.93 289.49 837.14"/><polygon class="b" points="254.36 886.93 199.15 886.93 264.1 924.43 281.96 934.74 254.36 886.93"/><polygon class="b" points="155.84 792.66 184.17 776.3 128.91 776.3 101.28 824.16 155.84 792.66"/><polygon class="b" points="184.22 772.3 101.25 724.4 128.91 772.3 184.22 772.3"/><polygon class="b" points="768.57 339.3 768.57 434.92 796.17 387.11 768.57 339.3"/><polygon class="b" points="768.57 671.17 768.57 766.79 796.17 718.98 768.57 671.17"/><polygon class="b" points="477.1 269.05 477.1 173.29 449.46 221.17 477.1 269.05"/><polygon class="b" points="768.57 560.55 768.57 656.17 796.17 608.36 768.57 560.55"/><polygon class="b" points="768.57 449.92 768.57 545.54 796.17 497.73 768.57 449.92"/><polygon class="b" points="637.63 219.17 665.26 171.32 582.37 219.17 637.63 219.17"/><polygon class="b" points="768.57 781.8 768.57 877.42 796.17 829.61 768.57 781.8"/><polygon class="b" points="635.8 811.74 580.36 779.73 608 827.61 663.29 827.61 635.8 811.74"/><polygon class="b" points="672.77 268.96 700.36 221.17 672.77 173.39 672.77 268.96"/><polygon class="b" points="587.84 226.3 665.24 270.99 637.63 223.17 582.42 223.17 587.84 226.3"/><polygon class="b" points="676.19 271.03 717.67 247.08 759.08 223.17 703.82 223.17 676.19 271.03"/><polygon class="b" points="768.57 228.67 768.57 324.29 796.17 276.48 768.57 228.67"/><polygon class="b" points="541.82 274.48 569.43 226.65 562.55 230.62 486.58 274.48 541.82 274.48"/><polygon class="b" points="774.06 444.43 835.89 480.13 856.87 492.24 829.27 444.43 774.06 444.43"/><polygon class="b" points="764.57 781.71 736.91 829.61 764.57 877.51 764.57 781.71"/><polygon class="b" points="189.66 435.01 189.66 339.2 162.01 387.11 189.66 435.01"/><polygon class="b" points="189.66 324.38 189.66 228.58 162.01 276.48 189.66 324.38"/><polygon class="b" points="189.66 545.63 189.66 449.83 162.01 497.73 189.66 545.63"/><polygon class="b" points="189.66 656.26 189.66 560.46 162.01 608.36 189.66 656.26"/><polygon class="b" points="350.18 274.48 377.8 226.65 348.94 243.3 294.94 274.48 350.18 274.48"/><polygon class="b" points="224.73 274.48 280.02 274.48 226.02 243.3 197.09 226.6 224.73 274.48"/><polygon class="b" points="189.66 877.51 189.66 781.71 162.01 829.61 189.66 877.51"/><polygon class="b" points="416.37 831.61 388.74 879.47 471.63 831.61 416.37 831.61"/><polygon class="b" points="512.18 776.3 484.55 824.16 511.47 808.62 567.45 776.3 512.18 776.3"/><polygon class="b" points="381.3 781.71 353.64 829.61 381.3 877.51 381.3 781.71"/><polygon class="b" points="576.93 781.8 576.93 877.42 604.54 829.61 576.93 781.8"/><polygon class="b" points="224.73 831.61 197.1 879.47 279.99 831.61 224.73 831.61"/><polygon class="b" points="189.66 766.89 189.66 671.08 162.01 718.98 189.66 766.89"/><polygon class="b" points="736.91 387.11 764.57 435.01 764.57 339.2 736.91 387.11"/><polygon class="b" points="186.15 768.79 158.54 720.98 103.33 720.98 186.15 768.79"/><polygon class="b" points="281.99 835.07 199.1 882.93 254.36 882.93 281.99 835.07"/><polygon class="b" points="186.15 658.17 158.54 610.36 103.33 610.36 186.15 658.17"/><polygon class="b" points="186.15 879.42 158.54 831.61 103.33 831.61 186.15 879.42"/><polygon class="b" points="186.15 547.54 158.54 499.73 103.33 499.73 186.15 547.54"/><polygon class="b" points="186.16 447.9 103.31 495.73 158.54 495.73 186.16 447.9"/><polygon class="b" points="736.91 497.73 764.57 545.63 764.57 449.83 736.91 497.73"/><polygon class="b" points="285.47 837.05 257.82 884.93 285.47 932.81 285.47 837.05"/><polygon class="b" points="186.15 436.92 158.54 389.11 103.33 389.11 186.15 436.92"/><polygon class="b" points="572.93 781.71 545.28 829.61 572.93 877.51 572.93 781.71"/><polygon class="b" points="477.1 837.05 449.46 884.93 477.1 932.81 477.1 837.05"/><polygon class="b" points="350.18 831.61 294.97 831.61 377.78 879.42 350.18 831.61"/><polygon class="b" points="473.63 835.07 390.74 882.93 446 882.93 473.63 835.07"/><polygon class="b" points="733.45 274.48 761.07 226.65 719.67 250.55 678.22 274.48 733.45 274.48"/><polygon class="b" points="279.99 499.73 224.73 499.73 197.1 547.59 279.99 499.73"/><polygon class="b" points="446 219.17 473.63 171.32 390.74 219.17 446 219.17"/><polygon class="b" points="736.91 276.48 764.57 324.38 764.57 228.58 736.91 276.48"/><polygon class="b" points="484.55 271.03 511.47 255.49 567.45 223.17 512.18 223.17 484.55 271.03"/><polygon class="b" points="668.74 269.05 668.74 173.29 641.1 221.17 668.74 269.05"/><polygon class="b" points="481.13 268.96 508.72 221.17 481.13 173.39 481.13 268.96"/><polygon class="b" points="292.92 271.03 325.87 252 375.81 223.17 320.55 223.17 292.92 271.03"/><polygon class="b" points="186.15 326.29 158.54 278.48 103.33 278.48 186.15 326.29"/><polygon class="b" points="608 831.61 580.37 879.47 663.26 831.61 608 831.61"/><polygon class="b" points="289.49 268.96 317.08 221.17 289.49 173.39 289.49 268.96"/><polygon class="b" points="249.09 252 281.96 270.99 254.36 223.17 199.15 223.17 249.09 252"/><polygon class="b" points="285.47 269.05 285.47 173.29 257.82 221.17 285.47 269.05"/><polygon class="b" points="832.73 553.05 860.38 600.93 860.38 505.17 832.73 553.05"/><polygon class="b" points="703.82 886.93 676.19 934.79 697.25 922.63 759.08 886.93 703.82 886.93"/><polygon class="b" points="481.13 837.14 481.13 932.72 508.72 884.93 481.13 837.14"/><polygon class="b" points="289.49 726.52 289.49 822.09 317.08 774.3 289.49 726.52"/><polygon class="b" points="637.63 886.93 582.43 886.93 635.29 917.45 665.24 934.74 637.63 886.93"/><polygon class="b" points="832.73 774.3 860.38 822.18 860.38 726.42 832.73 774.3"/><polygon class="b" points="832.73 884.93 860.38 932.81 860.38 837.05 832.73 884.93"/><polygon class="b" points="832.73 331.8 860.38 379.68 860.38 283.92 832.73 331.8"/><polygon class="b" points="832.73 663.68 860.38 711.56 860.38 615.8 832.73 663.68"/><polygon class="b" points="678.22 495.73 733.45 495.73 761.07 447.9 678.22 495.73"/><polygon class="b" points="832.73 442.43 860.38 490.31 860.38 394.55 832.73 442.43"/><polygon class="b" points="419.12 239.53 473.6 270.99 446 223.17 390.79 223.17 419.12 239.53"/><polygon class="b" points="484.53 835.03 512.18 882.93 567.5 882.93 484.53 835.03"/><polygon class="b" points="512.18 886.93 484.55 934.79 499.97 925.88 567.45 886.93 512.18 886.93"/><polygon class="b" points="125.45 553.05 97.86 505.26 97.86 600.84 125.45 553.05"/><polygon class="b" points="125.45 663.68 97.86 615.89 97.86 711.47 125.45 663.68"/><polygon class="b" points="125.45 331.8 97.86 284.01 97.86 379.59 125.45 331.8"/><polygon class="b" points="125.45 221.17 97.86 173.39 97.86 268.96 125.45 221.17"/><polygon class="b" points="128.91 886.93 101.28 934.79 126.19 920.4 184.17 886.93 128.91 886.93"/><polygon class="b" points="320.55 886.93 292.92 934.79 310.86 924.43 375.81 886.93 320.55 886.93"/><polygon class="b" points="125.45 774.3 97.86 726.52 97.86 822.09 125.45 774.3"/><polygon class="b" points="254.36 776.3 199.15 776.3 249.09 805.13 281.96 824.12 254.36 776.3"/><polygon class="b" points="279.99 720.98 224.73 720.98 197.1 768.84 279.99 720.98"/><polygon class="b" points="125.45 884.93 97.86 837.14 97.86 932.72 125.45 884.93"/><polygon class="b" points="125.45 442.43 97.86 394.64 97.86 490.21 125.45 442.43"/><polygon class="b" points="541.82 163.85 569.43 116.02 561.66 120.51 486.58 163.85 541.82 163.85"/><polygon class="b" points="350.18 163.85 377.8 116.02 348.7 132.81 294.94 163.85 350.18 163.85"/><polygon class="b" points="446 776.3 390.79 776.3 419.12 792.66 473.6 824.12 446 776.3"/><polygon class="b" points="541.82 720.98 486.61 720.98 569.42 768.79 541.82 720.98"/><polygon class="b" points="292.89 724.4 320.55 772.3 375.86 772.3 292.89 724.4"/><polygon class="b" points="388.72 890.36 416.37 938.24 471.65 938.24 388.72 890.36"/><polygon class="b" points="224.73 163.85 280.02 163.85 226.26 132.81 197.09 115.97 224.73 163.85"/><polygon class="b" points="774.01 440.43 829.27 440.43 856.9 392.57 774.01 440.43"/><polygon class="b" points="385.3 892.42 385.3 988.05 412.9 940.24 385.3 892.42"/><polygon class="b" points="733.45 163.85 761.07 116.02 719.67 139.92 678.22 163.85 733.45 163.85"/><polygon class="b" points="197.09 890.36 224.73 938.24 280.02 938.24 197.09 890.36"/><polygon class="b" points="678.24 610.36 761.05 658.17 733.45 610.36 678.24 610.36"/><polygon class="b" points="832.73 221.17 860.38 269.05 860.38 173.29 832.73 221.17"/><polygon class="b" points="700.08 704.36 678.22 716.98 733.45 716.98 761.07 669.15 700.08 704.36"/><polygon class="b" points="700.08 593.73 678.22 606.36 733.45 606.36 761.07 558.52 700.08 593.73"/><polygon class="b" points="678.24 499.73 761.05 547.54 733.45 499.73 678.24 499.73"/><polygon class="b" points="193.66 892.42 193.66 988.05 221.27 940.24 193.66 892.42"/><polygon class="b" points="799.64 163.85 854.93 163.85 813.47 139.92 772 115.97 799.64 163.85"/><polygon class="b" points="672.77 726.52 672.77 822.09 700.36 774.3 672.77 726.52"/><polygon class="b" points="668.74 726.42 641.1 774.3 668.74 822.18 668.74 726.42"/><polygon class="b" points="665.26 724.45 582.37 772.3 637.63 772.3 665.26 724.45"/><polygon class="b" points="676.16 724.4 703.82 772.3 759.13 772.3 676.16 724.4"/><polygon class="b" points="678.24 720.98 761.05 768.79 733.45 720.98 678.24 720.98"/><polygon class="b" points="608 163.85 663.29 163.85 635.65 147.9 580.36 115.97 608 163.85"/><polygon class="b" points="572.93 213.75 572.93 117.95 545.28 165.85 572.93 213.75"/><polygon class="b" points="416.37 163.85 471.65 163.85 438.27 144.58 388.72 115.97 416.37 163.85"/><polygon class="b" points="381.3 324.38 381.3 228.58 353.64 276.48 381.3 324.38"/><polygon class="b" points="197.1 326.34 279.99 278.48 224.73 278.48 197.1 326.34"/><polygon class="b" points="416.37 274.48 471.65 274.48 438.38 255.27 388.72 226.6 416.37 274.48"/><polygon class="b" points="608 274.48 663.29 274.48 635.8 258.61 580.36 226.6 608 274.48"/><polygon class="b" points="572.93 324.38 572.93 228.58 545.28 276.48 572.93 324.38"/><polygon class="b" points="381.3 213.76 381.3 117.95 353.64 165.85 381.3 213.76"/><polygon class="b" points="193.66 339.3 193.66 434.92 221.27 387.11 193.66 339.3"/><polygon class="b" points="774.01 329.8 829.27 329.8 856.9 281.94 774.01 329.8"/><polygon class="b" points="193.66 671.17 193.66 766.79 221.27 718.98 193.66 671.17"/><polygon class="b" points="193.66 449.92 193.66 545.54 221.27 497.73 193.66 449.92"/><polygon class="b" points="774.06 223.17 815.47 247.08 856.87 270.99 829.27 223.17 774.06 223.17"/><polygon class="b" points="774.06 333.8 835.89 369.5 856.87 381.61 829.27 333.8 774.06 333.8"/><polygon class="b" points="678.22 385.11 733.45 385.11 761.07 337.27 678.22 385.11"/><polygon class="b" points="772.01 215.71 854.9 167.85 799.64 167.85 772.01 215.71"/><polygon class="b" points="764.57 213.76 764.57 117.95 736.91 165.85 764.57 213.76"/><polygon class="b" points="193.66 560.55 193.66 656.17 221.27 608.36 193.66 560.55"/><polygon class="b" points="768.57 213.66 796.17 165.85 768.57 118.04 768.57 213.66"/><polygon class="b" points="774.01 219.17 829.27 219.17 856.9 171.32 774.01 219.17"/><polygon class="b" points="772 890.36 799.64 938.24 854.93 938.24 772 890.36"/><polygon class="b" points="193.66 213.66 221.27 165.85 193.66 118.04 193.66 213.66"/><polygon class="b" points="668.74 158.43 668.74 62.67 641.1 110.55 668.74 158.43"/><polygon class="b" points="280.02 606.36 254.45 591.6 197.09 558.48 224.73 606.36 280.02 606.36"/><polygon class="b" points="158.54 163.85 186.16 116.02 136.69 144.58 103.31 163.85 158.54 163.85"/><polygon class="b" points="280.02 716.98 254.45 702.22 197.09 669.11 224.73 716.98 280.02 716.98"/><polygon class="b" points="279.99 610.36 224.73 610.36 197.1 658.21 279.99 610.36"/><polygon class="b" points="796.17 940.24 768.57 892.42 768.57 988.05 796.17 940.24"/><polygon class="b" points="678.24 389.11 761.05 436.92 733.45 389.11 678.24 389.11"/><polygon class="b" points="477.1 158.43 477.1 62.67 449.46 110.55 477.1 158.43"/><polygon class="b" points="197.1 215.71 279.99 167.85 224.73 167.85 197.1 215.71"/><polygon class="b" points="473.6 160.36 446 112.55 390.79 112.55 473.6 160.36"/><polygon class="b" points="665.24 160.36 637.63 112.55 582.43 112.55 665.24 160.36"/><path class="c" d="M-61.07-37.67h-8L-7.41-2.08H-62.72L-81.9-35.3v8L-66.19-.08-81.9,27.14v8L-62.72,1.92H-7.46l-74.44,43v4.62l20-11.54L-5.48,5.39-33.09,53.23H-81.9v4h48.81L-5.49,105-81.9,60.92v4.62l74.49,43H-62.72L-81.9,75.33v8l15.71,27.22L-81.9,137.77v8l19.18-33.22H-7.46l-74.44,43v4.62l47.34-27.33L-5.48,116l-27.62,47.83H-81.9v4h48.81l27.6,47.81L-81.9,171.55v4.62l74.49,43H-62.72L-81.9,186v8l15.71,27.22L-81.9,248.39v8l19.18-33.22H-7.46L-57.4,252l-24.5,14.15v4.62l47.57-27.47,28.85-16.66-27.62,47.83H-81.9v4h48.81l27.6,47.81L-81.9,282.17v4.62l74.49,43H-62.72L-81.9,296.58v8l15.71,27.22L-81.9,359v8l19.18-33.22H-7.46l-65,37.5-9.49,5.48v4.62l76.43-44.12-27.62,47.83H-81.9v4h48.81l27.6,47.81L-81.9,392.8v4.62l74.49,43H-62.72L-81.9,407.21v8l15.71,27.22L-81.9,469.64v8l19.18-33.22H-7.46l-65,37.5-9.49,5.48V492L-5.48,447.9l-27.62,47.83H-81.9v4h48.81l27.6,47.81L-81.9,503.43V508l74.49,43H-62.72L-81.9,517.83v8l15.71,27.22L-81.9,580.27v8l19.18-33.22H-7.46L-81.9,598v4.62l19.14-11,57.29-33.07-27.62,47.83H-81.9v4h48.81l27.6,47.81L-81.9,614.05v4.62l74.49,43H-62.72L-81.9,628.46v8l15.71,27.22L-81.9,690.9v8l19.18-33.22H-7.46l-74.44,43v4.62l19.14-11,57.29-33.07L-33.09,717H-81.9v4h48.81l27.6,47.81L-81.9,724.68v4.62l74.49,43H-62.72L-81.9,739.09v8l15.71,27.22L-81.9,801.52v8l19.18-33.22H-7.46L-57.4,805.13l-24.5,14.15v4.62l47.57-27.47,28.85-16.66-27.62,47.83H-81.9v4h48.81l27.6,47.81L-81.9,835.3v4.62l74.49,43H-62.72L-81.9,849.71v8l15.71,27.22L-81.9,912.15v8l19.18-33.22H-7.46l-65,37.5-9.49,5.48v4.62L-5.48,890.4l-27.62,47.83H-81.9v4h48.81L-5.49,990-81.9,945.93v4.62l74.49,43H-62.72L-81.9,960.34v8l15.71,27.22-15.71,27.22v8l19.18-33.22H-7.46l-74.44,43v4.62l19.14-11L-5.48,1001l-27.62,47.83H-81.9v4h48.81l18.17,31.46h4.62l-19.32-33.46L-2,1003v81.37H2v-81.27l27.6,47.81-19.32,33.46h4.62l18.17-31.46H88.35l-54.5,31.46h8l48.5-28-16.17,28h4.62l15-26v26h4v-25.93l15,25.93h4.62l-16.19-28,48.58,28h8l-54.5-31.46h55.21l18.17,31.46h4.62L162,1050.86l27.66-47.9v81.37h4v-81.27l27.6,47.81-19.32,33.46h4.62l18.17-31.46H280l-54.5,31.46h8l48.5-28-16.17,28h4.62l15-26v26h4v-25.93l15,25.93h4.62l-16.19-28,48.58,28h8L295,1052.86h55.21l18.17,31.46H373l-19.32-33.46L381.3,1003v81.37h4v-81.27l27.6,47.81-19.32,33.46h4.62l18.17-31.46h55.26l-54.5,31.46h8l48.5-28-16.17,28h4.62l15-26v26h4v-25.93l15,25.93h4.62l-16.19-28,48.58,28h8l-54.5-31.46h55.21L560,1084.33h4.62l-19.32-33.46,27.66-47.9v81.37h4v-81.27l27.6,47.81-19.32,33.46h4.62L608,1052.86h55.26l-54.5,31.46h8l48.5-28-16.16,28h4.62l15-26v26h4v-25.93l15,25.93h4.62l-16.19-28,48.58,28h8l-54.5-31.46h55.21l18.17,31.46h4.62l-19.32-33.46,27.66-47.9v81.37h4v-81.27l27.6,47.81-19.32,33.46h4.62l18.17-31.46H854.9l-54.5,31.46h8l48.5-28-16.17,28h4.62l15-26v26h4v-25.93l15,25.93H884l-16.19-28,48.58,28h8l-54.5-31.46h55.21l18.17,31.46h4.62l-19.32-33.46,27.66-47.9v81.37h4v-81.27l27.6,47.81-19.32,33.46h4.62l18.17-31.46h48.82v-4H991.28L963.63,1001l61.06,35.26,15.4,8.89v-4.62l-74.4-43h55.21l19.19,33.24v-8l-15.73-27.24,15.73-27.24v-8l-19.19,33.24H965.65l74.45-43V946l-76.45,44.14,27.63-47.86h48.82v-4H991.28l-27.64-47.88,76.46,44.15v-4.62l-12.57-7.25-61.83-35.7h55.21l19.19,33.24v-8l-15.73-27.24,15.73-27.24v-8l-19.19,33.24H965.65l74.45-43v-4.62l-76.45,44.14,27.63-47.86h48.82v-4H991.28l-27.64-47.88,41.48,23.95,35,20.2v-4.62l-33-19L965.7,776.3h55.21l19.19,33.24v-8l-15.73-27.24,15.73-27.24v-8l-19.19,33.24H965.65l74.45-43V724.7l-76.45,44.14L991.28,721h48.82v-4H991.28L963.63,669.1l61.06,35.26,15.4,8.89v-4.62l-74.4-43h55.21l19.19,33.24v-8l-15.73-27.24,15.73-27.24v-8l-19.19,33.24H965.65l74.45-43v-4.62l-76.45,44.14,27.63-47.86h48.82v-4H991.28l-27.64-47.88,61.06,35.26,15.4,8.89V598l-74.4-43h55.21l19.19,33.24v-8l-15.73-27.24,15.73-27.24v-8l-19.19,33.24H965.65l74.45-43v-4.62l-76.45,44.14,27.63-47.86h48.82v-4H991.28l-27.64-47.88L1040.1,492v-4.62l-12.57-7.25-61.83-35.7h55.21l19.19,33.24v-8l-15.73-27.24,15.73-27.24v-8l-19.19,33.24H965.65l74.45-43v-4.62L963.65,437l27.63-47.86h48.82v-4H991.28l-27.64-47.88,76.46,44.15v-4.62l-12.57-7.25L965.7,333.8h55.21L1040.1,367v-8l-15.73-27.24,15.73-27.24v-8l-19.19,33.24H965.65l74.45-43V282.2l-76.45,44.14,27.63-47.86h48.82v-4H991.28L963.63,226.6l41.48,23.95,35,20.2v-4.62l-33-19L965.7,223.17h55.21l19.19,33.24v-8l-15.73-27.24,15.73-27.24v-8l-19.19,33.24H965.65l74.45-43v-4.62l-76.45,44.14,27.63-47.86h48.82v-4H991.28L963.63,116l41.48,23.95,35,20.2V155.5l-74.4-43h55.21l19.19,33.24v-8l-15.73-27.24,15.73-27.24v-8l-19.19,33.24H965.65l74.45-43V60.94l-76.45,44.14,27.63-47.86h48.82v-4H991.28L963.63,5.35l41.48,23.95,35,20.2V44.88l-33-19L965.7,1.92h55.21l19.19,33.24v-8L1024.37-.08l15.73-27.24v-8L1020.91-2.08H965.65l61.65-35.6h-8L963.65-5.54,982.2-37.67h-4.62L960.21-7.59V-37.67h-4V-7.5L938.78-37.67h-4.62L952.69-5.59,897.12-37.67h-8l61.65,35.6H895.46l-20.55-35.6h-4.62L892-.08,864.4,47.71V-37.67h-4V47.8L832.73-.08l21.71-37.6h-4.62L829.27-2.08H774l61.65-35.6h-8L772-5.54l18.55-32.13h-4.62L768.57-7.59V-37.67h-4V-7.5L747.15-37.67h-4.62L761.05-5.59,705.48-37.67h-8l61.65,35.6H703.82l-20.55-35.6h-4.62L700.36-.08,672.77,47.71V-37.67h-4V47.8L641.1-.08l21.71-37.6h-4.62L637.63-2.08H582.37L644-37.67h-8L580.37-5.54l18.55-32.13H594.3L576.93-7.59V-37.67h-4V-7.5L555.51-37.67h-4.62L569.42-5.59,513.84-37.67h-8L567.5-2.08H512.18l-20.55-35.6H487L508.72-.08,481.13,47.71V-37.67h-4V47.8L449.46-.08l21.71-37.6h-4.62L446-2.08H390.74l61.65-35.6h-8L388.74-5.54l18.55-32.13h-4.62L385.3-7.59V-37.67h-4V-7.5L363.88-37.67h-4.62L377.78-5.59,322.21-37.67h-8l61.65,35.6H320.55L300-37.67h-4.62L317.08-.08,289.49,47.71V-37.67h-4V47.8L257.82-.08l21.71-37.6h-4.62L254.36-2.08H199.1l61.65-35.6h-8L197.1-5.54l18.55-32.13H211L193.66-7.59V-37.67h-4V-7.5L172.24-37.67h-4.62L186.15-5.59,130.57-37.67h-8l61.65,35.6H128.91l-20.55-35.6h-4.62L125.45-.08,97.86,47.71V-37.67h-4V47.8L66.19-.08l21.71-37.6H83.27L62.72-2.08H7.46l61.65-35.6h-8L5.46-5.54,24-37.67H19.4L2-7.59V-37.67H-2V-7.5L-19.4-37.67H-24L-5.49-5.59ZM62.72,1.92l27.6,47.81L64.61,34.89l-57.1-33Zm66.19,0h55.26l-57.1,33L101.28,49.78Zm125.45,0L282,49.73,199.15,1.92Zm66.19,0h55.26L292.92,49.78ZM446,1.92l27.6,47.81L447.89,34.89l-57.1-33Zm66.19,0h55.26L484.55,49.78Zm125.45,0,27.6,47.81L647.47,39.47l-65-37.55Zm66.19,0h55.26L717.67,25.83,676.19,49.78Zm125.45,0,27.6,47.81-41.4-23.9L774.06,1.92Zm66.19,0h55.26L909.31,25.83,867.83,49.78ZM799.64,1048.86,772,1001l61.06,35.26,21.87,12.62Zm-191.64,0L580.36,1001l66.47,38.38,16.46,9.5Zm-191.64,0L388.72,1001l64.05,37,18.88,10.9Zm-191.64,0L197.09,1001l57.36,33.12L280,1048.86Zm-191.64,0L5.45,1001l64.05,37,18.88,10.9ZM952.7,5.39,925.09,53.23H869.85L911.31,29.3ZM350.18,57.23,377.78,105,295,57.23Zm191.64,0L569.42,105,486.61,57.23Zm191.64,0L761.05,105,678.24,57.23Zm191.64,0L952.69,105,869.88,57.23Zm0,110.63,27.6,47.81-82.81-47.81Zm0,110.63,27.6,47.81-82.81-47.81Zm0,110.63,27.6,47.81-82.81-47.81Zm0,110.63,27.6,47.81-82.81-47.81Zm0,110.63,27.6,47.81-82.81-47.81Zm0,110.63,27.6,47.81L869.88,721Zm0,110.63,27.6,47.81-82.81-47.81Zm0,110.63L952.69,990l-82.81-47.81Zm-766.55-885L186.15,105,103.33,57.23ZM385.3,7.42l27.6,47.81L385.3,103Zm191.64,0,27.6,47.81L576.93,103ZM541.81,938.24H486.58l82.85-47.83ZM7.52,886.93H62.72l27.6,47.81L65.49,920.4Zm0-442.5H62.72l27.6,47.81L65.49,477.9Zm0-110.63H62.72l27.6,47.81L65.49,367.27ZM733.45,938.24H678.22l82.85-47.83Zm-383.27,0H294.94L377.8,890.4Zm-191.64,0H103.31l82.85-47.83Zm449.46,0-27.64-47.88,20.83,12,62.1,35.85ZM350.18,167.85l27.6,47.81L295,167.85Zm191.64,0,27.6,47.81-82.81-47.81Zm191.64,0,27.6,47.81-82.81-47.81ZM835.9,922.63l-61.83-35.7h55.21l27.6,47.81Zm-707-39.7L101.26,835l83,47.9Zm29.63-715.08,27.6,47.81-82.81-47.81ZM385.3,118l27.6,47.81-27.6,47.81Zm191.64,0,27.6,47.81-27.6,47.81Zm278,156.44H799.64L772,226.6l41.48,23.95Zm0,331.88H799.64L772,558.48l61.06,35.26Zm0,110.63H799.64L772,669.1l61.06,35.26Zm0,110.63H799.64L772,779.73l41.48,23.95Zm-313.11,0H486.58l76-43.86,6.88-4ZM136.59,808.4l49.57-28.62-27.62,47.83H103.31Zm-14.4-102.31,64-36.94L158.54,717H103.31Zm0-110.63,64-36.94-27.62,47.83H103.31Zm14.4-340.19,49.57-28.62-27.62,47.83H103.31ZM733.45,827.61H678.22l41.45-23.93,41.4-23.9Zm-383.27,0H294.94l54-31.18,28.85-16.66ZM193.66,228.67l27.6,47.81-27.6,47.81Zm156.52,49.81,27.6,47.81L295,278.48Zm191.64,0,27.6,47.81-82.81-47.81Zm191.64,0,27.6,47.81-82.81-47.81ZM385.3,228.67l27.6,47.81-27.6,47.81Zm191.64,0,27.6,47.81-27.6,47.81ZM541.81,717H486.58l30.47-17.59,52.38-30.24Zm-191.64,0H294.94l25.56-14.76,57.29-33.07Zm-151-272.56h55.21L282,492.24,264.1,481.93Zm151-55.32,27.6,47.81L295,389.11Zm191.64,0,27.6,47.81-82.81-47.81Zm0,217.25H486.58l30.47-17.59,52.38-30.24ZM320.55,444.43h55.26l-65,37.5-17.94,10.36Zm342.74,51.31H608l-27.64-47.88,20.83,12Zm0,110.63H608l-27.64-47.88,66.47,38.38Zm-313.11,0H294.94l25.56-14.76,57.29-33.07Zm222.76-60.72-27.66-47.9,27.66-47.9Zm-31.12-49.9H486.58l82.85-47.83Zm-125.45,4h55.26l-82.89,47.86ZM446,551.05H390.74l82.89-47.86Zm0,4,27.6,47.81-82.81-47.81Zm3.46-2,27.64-47.88v95.76Zm-33.09-57.32-27.64-47.88,82.93,47.88ZM385.3,449.92l27.6,47.81-27.6,47.81Zm-4,95.71-27.66-47.9,27.66-47.9Zm4,14.91,27.6,47.81-27.6,47.81Zm31.07,45.81-27.64-47.88,64.05,37,18.88,10.9ZM541.81,499.73l27.6,47.81-82.81-47.81Zm35.12-49.81,27.6,47.81-27.6,47.81ZM477.1,490.31l-27.64-47.88,27.64-47.88ZM446,444.43l27.6,47.81L448.77,477.9l-58-33.47Zm-68.2,3.47-27.62,47.83H294.94Zm-27.62,51.83,27.6,47.81L295,499.73Zm31.12,60.72v95.8l-27.66-47.9Zm35.07,49.9h55.26l-82.89,47.86Zm64.76-105.09,27.59,47.79-27.59,47.79Zm31.05,45.79-27.66-47.9,83,47.9ZM608,499.73h55.26l-82.89,47.86ZM500,483.38l-15.42,8.9,27.63-47.86h55.26Zm-18.84,6.83V394.64l27.59,47.79ZM446,440.43H390.74l82.89-47.86ZM375.86,551.05H320.55l-27.66-47.9Zm-55.31,4h55.26l-82.89,47.86Zm29.63,55.31,27.6,47.81L295,610.36Zm123.45,3.46L446,661.68H390.74Zm3.48,2v95.76l-27.64-47.88Zm7.45-12.89,27.63-47.86h55.26l-19.88,11.48Zm92.38-42.36,27.6,47.81-27.6,47.81ZM608,610.36h55.26l-82.89,47.86Zm-25.58-55.31h55.21l27.6,47.81Zm55.21-4H582.37l82.89-47.86Zm-2.35-76.11-52.86-30.52h55.21l27.6,47.81Zm2.35-34.52H582.37l82.89-47.86Zm-125.45,0-27.66-47.9,83,47.9ZM388.74,437l27.63-47.86h55.26Zm-3.44-2V339.29l27.6,47.81Zm-64.75,5.51-27.66-47.9,83,47.9Zm-3.46,2-27.59,47.79V394.64Zm0,110.63-27.59,47.79V505.26Zm3.46,108.63-27.66-47.9,83,47.9Zm-3.46,2-27.59,47.79V615.89Zm128.91,2,27.6,47.81-82.81-47.81ZM572.93,560.46v95.8l-27.66-47.9Zm92.33,53.37-27.63,47.86H582.37Zm3.48,2v95.76L641.1,663.68ZM641.1,553.05l27.64-47.88v95.76Zm0-110.63,27.64-47.88v95.76ZM580.37,437,608,389.11h55.26Zm-3.44-2V339.29l27.6,47.81Zm-4,.09-27.66-47.9,27.66-47.9Zm-156.57-49.9-27.64-47.88,82.93,47.88ZM381.3,435l-27.66-47.9,27.66-47.9ZM320.55,665.68h55.26l-82.89,47.86Zm221.27-55.32,27.6,47.81-82.81-47.81Zm95.82,55.32,27.6,47.81-82.81-47.81Zm25.66-280.57H608l-27.64-47.88,20.83,12Zm-121.47,0H486.58l82.85-47.83Zm-191.64,0H294.94l82.85-47.83ZM385.3,671.17,412.9,719,385.3,766.8ZM416.37,717,388.72,669.1l64.05,37L471.65,717Zm64.76-101.09,27.59,47.79-27.59,47.79Zm31.05,45.79-27.66-47.9,83,47.9Zm156.56-282L641.1,331.8l27.64-47.88ZM637.63,333.8l27.6,47.81-30-17.29L582.43,333.8ZM477.1,379.68,449.46,331.8l27.64-47.88ZM446,333.8l27.6,47.81-24.83-14.34-58-33.47ZM285.47,490.31l-27.64-47.88,27.64-47.88Zm0,110.63-27.64-47.88,27.64-47.88Zm-31.11-45.88L282,602.86l-82.81-47.81Zm31.11,156.51-27.64-47.88,27.64-47.88Zm-31.11-45.88L282,713.49l-82.81-47.81Zm126.94,5.4v95.8L353.64,719ZM416.37,721h55.26l-82.89,47.86Zm68.19-7.45,27.63-47.86h55.26l-19.88,11.48Zm92.38-42.36L604.54,719l-27.6,47.81ZM608,717,580.36,669.1l66.47,38.38,16.46,9.5Zm95.82-51.31h55.26l-82.89,47.86Zm-31.05,45.79V615.89l27.59,47.79Zm31.05-156.41h55.26l-82.89,47.86Zm-31.05,45.79V505.26l27.59,47.79Zm0-206.2,27.59,47.79-27.59,47.79Zm0-110.63,27.59,47.79-27.59,47.79ZM637.63,329.8H582.37l82.89-47.86ZM500,372.76l-15.42,8.9,27.63-47.86h55.26Zm-18.84,6.83V284l27.59,47.79ZM446,329.8H390.74l82.89-47.86ZM310.86,371.3l-17.94,10.36,27.63-47.86h55.26Zm-21.36,8.29V284l27.59,47.79Zm-4,.09L257.82,331.8l27.64-47.88ZM254.36,333.8,282,381.61,264.1,371.3l-65-37.5Zm0,106.63H199.1L282,392.57Zm0,110.63H199.1L282,503.2Zm0,110.63H199.1L282,613.82Zm0,110.63H199.1L282,724.45Zm31.11-45.88v95.76L257.82,774.3ZM350.18,721l27.6,47.81L295,721Zm123.45,3.46L446,772.3H390.74Zm3.48,2v95.76L449.46,774.3Zm95.83-55.34v95.8L545.28,719ZM608,721h55.26l-82.89,47.86Zm95.82-59.31-27.66-47.9,83,47.9Zm0-110.63-27.66-47.9,83,47.9Zm-27.63-58.77,27.63-47.86h55.26l-61.83,35.7Zm27.63-51.86-27.66-47.9,83,47.9Zm-27.63-58.77,27.63-47.86h55.26l-61.83,35.7Zm27.63-51.86-27.66-47.9,83,47.9Zm-123.45-3.46L608,278.48h55.26Zm-68.19,3.46-27.66-47.9,83,47.9Zm-123.45-3.46,27.63-47.86h55.26Zm-68.19,3.46-27.66-47.9,83,47.9Zm-66.19,0H199.1L282,281.94ZM280,385.11H224.73l-27.64-47.88Zm-55.29,4H280L197.1,437ZM280,495.73H224.73l-27.64-47.88Zm-55.29,4H280L197.1,547.59Zm29.72,91.87L280,606.36H224.73l-27.64-47.88Zm-29.72,18.76H280L197.1,658.21Zm29.72,91.87L280,717H224.73L197.09,669.1ZM224.73,721H280L197.1,768.84ZM199.15,776.3h55.21L282,824.12l-32.88-19Zm90.34-49.79,27.59,47.79-27.59,47.79Zm31.05,45.79-27.66-47.9,83,47.9Zm70.24,4H446l27.6,47.81-54.48-31.45Zm151-55.32,27.6,47.81L486.61,721Zm123.45,3.46L637.63,772.3H582.37Zm3.48,2v95.76L641.1,774.3Zm4,.09,27.59,47.79-27.59,47.79Zm31.05,45.79-27.66-47.9,83,47.9ZM678.24,721h55.21l27.6,47.81Zm55.21-4H678.22l21.87-12.62,61-35.21ZM678.24,610.36h55.21l27.6,47.81Zm55.21-4H678.22l21.87-12.62,61-35.21ZM678.24,499.73h55.21l27.6,47.81Zm55.21-4H678.22l82.85-47.83ZM678.24,389.11h55.21l27.6,47.81Zm55.21-4H678.22l82.85-47.83ZM663.29,274.48H608L580.36,226.6l55.44,32Zm-90.35,49.9-27.66-47.9,27.66-47.9Zm-101.28-49.9H416.37L388.72,226.6l49.65,28.67Zm-90.35,49.9-27.66-47.9,27.66-47.9Zm-184.2,2,27.63-47.86H280Zm-3.44,13,27.6,47.81-27.6,47.81Zm0,110.63,27.6,47.81-27.6,47.81Zm0,110.63,27.6,47.81-27.6,47.81Zm0,110.63L221.27,719l-27.6,47.81Zm0,110.63,27.6,47.81-27.6,47.81Zm31.07,45.81-27.64-47.88L226,796.43l54,31.18Zm68.19-3.45,27.63-47.86h55.26l-49.93,28.83ZM385.3,781.8l27.6,47.81-27.6,47.81Zm31.07,45.81-27.64-47.88,49.65,28.67,33.28,19.21Zm64.76-101.09,27.59,47.79-27.59,47.79Zm31.05,45.79-27.66-47.9,83,47.9Zm70.24,4h55.21l27.6,47.81-77.39-44.68Zm93.77,47.86,27.63-47.86h55.26l-41.41,23.91ZM736.92,719l27.66-47.9v95.8Zm0-110.63,27.66-47.9v95.8Zm0-110.63,27.66-47.9v95.8Zm0-110.63,27.66-47.9V435Zm0-110.63,27.66-47.9v95.8Zm24.15-49.83-27.62,47.83H678.22l41.45-23.93Zm-92.33,42.41L641.1,221.17l27.64-47.88Zm-31.11-45.88L665.24,271,587.84,226.3l-5.42-3.13Zm-68.2,3.47-27.62,47.83H486.58l76-43.86ZM477.1,269.05l-27.64-47.88,27.64-47.88ZM446,223.17,473.6,271l-54.48-31.46-28.33-16.36Zm-68.2,3.47-27.62,47.83H294.94l54-31.18ZM280,274.48H224.73L197.09,226.6,226,243.3Zm-90.35,49.9L162,276.48l27.66-47.9Zm0,110.63L162,387.11l27.66-47.9Zm0,110.63L162,497.73l27.66-47.9Zm0,110.63L162,608.36l27.66-47.9Zm0,110.63L162,719l27.66-47.9Zm0,110.63L162,829.61l27.66-47.9Zm35.07-45.9H280L197.1,879.47Zm156.57-49.9v95.8l-27.66-47.9Zm35.07,49.9h55.26l-82.89,47.86Zm68.19-7.45,27.63-47.86h55.26l-56,32.32Zm92.38-42.36,27.6,47.81-27.6,47.81ZM608,827.61l-27.64-47.88,55.44,32,27.49,15.87Zm156.57-45.9v95.8l-27.66-47.9Zm4,.09,27.6,47.81-27.6,47.81Zm0-110.63L796.18,719l-27.6,47.81Zm0-110.63,27.6,47.81-27.6,47.81Zm0-110.63,27.6,47.81-27.6,47.81Zm0-110.63,27.6,47.81-27.6,47.81Zm0-110.63,27.6,47.81-27.6,47.81Zm-50.9,18.41L676.19,271l27.63-47.86h55.26ZM672.77,269V173.39l27.59,47.79Zm-35.13-49.79H582.37l82.89-47.86ZM511.47,255.49,484.55,271l27.63-47.86h55.26ZM481.13,269V173.39l27.59,47.79ZM446,219.17H390.74l82.89-47.86ZM325.87,252l-33,19,27.63-47.86h55.26Zm-36.38,17V173.39l27.59,47.79Zm-4,.09-27.64-47.88,27.64-47.88Zm-31.11-45.88L282,271l-32.88-19-49.93-28.83Zm-95.82,55.31,27.6,47.81-82.81-47.81Zm27.62,58.79-27.62,47.83H103.31Zm-27.62,51.83,27.6,47.81-82.81-47.81Zm27.62,58.79-27.62,47.83H103.31Zm-27.62,51.83,27.6,47.81-82.81-47.81Zm0,110.63,27.6,47.81-82.81-47.81Zm0,110.63,27.6,47.81L103.33,721Zm0,110.63,27.6,47.81-82.81-47.81ZM282,835.07l-27.63,47.86H199.1Zm3.48,2v95.76l-27.64-47.88Zm64.71-5.44,27.6,47.81L295,831.61Zm123.45,3.46L446,882.93H390.74Zm3.48,2v95.76l-27.64-47.88Zm95.83-55.34v95.8l-27.66-47.9ZM608,831.61h55.26l-82.89,47.86Zm125.45,0,27.6,47.81-82.81-47.81Zm66.19,0H854.9L772,879.47Zm0-110.63H854.9L772,768.84Zm0-110.63H854.9L772,658.21Zm0-110.63H854.9L772,547.59Zm0-4L772,447.85l82.93,47.88Zm0-106.63H854.9L772,437Zm0-4L772,337.23l82.93,47.88Zm0-106.63H854.9L772,326.34Zm-95.82-59.31-27.66-47.9,83,47.9Zm-123.45-3.46L608,167.85h55.26Zm-68.19,3.46-27.66-47.9,83,47.9Zm-123.45-3.46,27.63-47.86h55.26Zm-68.19,3.46-27.66-47.9,83,47.9Zm-66.19,0H199.1L282,171.32Zm-64.7-5.42L162,165.85,189.66,118Zm-5.44,5.42H128.91l-27.66-47.9Zm-55.31,4h55.26l-28.33,16.36L101.28,271ZM184.22,329.8H128.91l-27.66-47.9Zm-55.31,4h55.26l-58,33.47-24.91,14.38Zm55.31,106.63H128.91l-27.66-47.9Zm-55.31,4h55.26l-58,33.47-24.91,14.38Zm55.31,106.63H128.91l-27.66-47.9Zm-55.31,4h55.26l-82.89,47.86Zm55.31,106.63H128.91l-27.66-47.9Zm-55.31,4h55.26l-82.89,47.86ZM184.22,772.3H128.91l-27.66-47.9Zm-55.31,4h55.26l-28.33,16.36-54.56,31.5Zm70.24,110.63h55.21L282,934.74,264.1,924.43Zm90.34-49.79,27.59,47.79-27.59,47.79Zm31.05,45.79L292.89,835l83,47.9Zm70.24,4H446l27.6,47.81L448.77,920.4Zm151-55.32,27.6,47.81-82.81-47.81Zm123.45,3.46-27.63,47.86H582.37Zm3.48,2v95.76L641.1,884.93Zm4,.09,27.59,47.79-27.59,47.79Zm31.05,45.79L676.16,835l83,47.9Zm125.45,0H774l82.89-47.86Zm-13.8-82.72L774.06,776.3h55.21l27.6,47.81Zm13.8-27.91H774l82.89-47.86ZM774.06,665.68h55.21l27.6,47.81Zm55.21-4H774l82.89-47.86ZM774.06,555.05h55.21l27.6,47.81Zm55.21-4H774L856.9,503.2Zm6.63-70.93-61.83-35.7h55.21l27.6,47.81Zm-6.63-39.7H774l82.89-47.86Zm6.63-70.93-61.83-35.7h55.21l27.6,47.81Zm-6.63-39.7H774l82.89-47.86Zm-13.8-82.72-41.41-23.91h55.21L856.87,271Zm13.8-27.91H774l82.89-47.86ZM772,215.71l27.63-47.86H854.9Zm-3.44-2V118l27.6,47.81Zm-4,.09-27.66-47.9L764.57,118Zm-101.28-49.9H608L580.36,116l55.29,31.92Zm-90.35,49.9-27.66-47.9L572.93,118Zm-101.28-49.9H416.37L388.72,116l49.55,28.61Zm-90.35,49.9-27.66-47.9L381.3,118Zm-184.2,2,27.63-47.86H280Zm-3.44-2V118l27.6,47.81ZM186.16,116l-27.62,47.83H103.31l33.38-19.27ZM125.45,221.17,97.86,269V173.39Zm0,110.63L97.86,379.59V284Zm0,110.63L97.86,490.21V394.64Zm0,110.63L97.86,600.84V505.26Zm0,110.63L97.86,711.47V615.89Zm0,110.63L97.86,822.09V726.52Zm0,110.63L97.86,932.72V837.14Zm-24.17,49.86,27.63-47.86h55.26l-58,33.47Zm191.64,0,27.63-47.86h55.26l-65,37.5Zm188.21-97.64,27.59,47.79-27.59,47.79Zm31.05,45.79L484.53,835l83,47.9Zm70.24,4h55.21l27.6,47.81-30-17.29Zm93.77,47.86,27.63-47.86h55.26l-61.83,35.7Zm156.54-49.86,27.64-47.88v95.76Zm0-110.63,27.64-47.88v95.76Zm0-110.63,27.64-47.88v95.76Zm0-110.63,27.64-47.88v95.76Zm0-110.63,27.64-47.88v95.76Zm0-110.63,27.64-47.88v95.76Zm0-110.63,27.64-47.88v95.76Zm22.19-57.32H799.64L772,116l41.48,23.95ZM761.07,116l-27.62,47.83H678.22l41.45-23.93Zm-191.64,0-27.62,47.83H486.58l75.08-43.35ZM377.8,116l-27.62,47.83H294.94l53.76-31ZM280,163.85H224.73L197.09,116l29.17,16.84ZM193.66,892.42l27.6,47.81L193.66,988Zm31.07,45.81-27.64-47.88L280,938.24ZM385.3,892.42l27.6,47.81L385.3,988Zm31.07,45.81-27.64-47.88,82.93,47.88Zm68.19-3.45,27.63-47.86h55.26l-67.47,39Zm315.09,3.45L772,890.36l82.93,47.88Zm-3.46,2L768.57,988V892.43ZM668.74,158.43,641.1,110.55l27.64-47.88Zm-31.11-45.88,27.6,47.81-82.81-47.81ZM477.1,158.43l-27.64-47.88L477.1,62.67ZM446,112.55l27.6,47.81-82.81-47.81ZM101.28,160.4l27.63-47.86h55.26Zm-3.42-2.07V62.76l27.59,47.79Zm91.81,734v95.8L162,940.24Zm35.07,49.9H280L197.1,990.09Zm156.57-49.9v95.8l-27.66-47.9Zm35.07,49.9h55.26l-82.89,47.86Zm160.57-49.81,27.6,47.81L576.93,988ZM608,942.24h55.26l-82.89,47.86Zm156.57-49.9v95.8l-27.66-47.9Zm35.07,49.9H854.9L772,990.09ZM864.4,615.89,892,663.68,864.4,711.47Zm0-110.63L892,553.05,864.4,600.84Zm0-442.5L892,110.55,864.4,158.34Zm-4,95.67-27.64-47.88,27.64-47.88Zm-31.11-45.88,27.6,47.81-82.81-47.81ZM676.19,160.4l27.63-47.86h55.26Zm-3.42-2.07V62.76l27.59,47.79Zm-35.13-49.79H582.37l82.89-47.86ZM484.55,160.4l27.63-47.86h55.26Zm-3.42-2.07V62.76l27.59,47.79ZM446,108.55H390.74l82.89-47.86ZM292.92,160.4l27.63-47.86h55.26Zm-3.42-2.07V62.76l27.59,47.79Zm-4,.09-27.64-47.88,27.64-47.88Zm-31.11-45.88L282,160.36l-82.81-47.81Zm-125.45-4-27.66-47.9,83,47.9ZM93.83,158.43,66.19,110.55,93.83,62.67ZM62.72,112.55l27.6,47.81L7.52,112.55ZM93.83,269.05,66.19,221.17l27.64-47.88Zm0,110.63L66.19,331.8l27.64-47.88Zm0,110.63L66.19,442.43l27.64-47.88Zm0,110.63L66.19,553.05l27.64-47.88ZM62.72,555.05l27.6,47.81L7.52,555.05ZM93.83,711.56,66.19,663.68,93.83,615.8ZM62.72,665.68l27.6,47.81L7.52,665.68ZM93.83,822.18,66.19,774.3l27.64-47.88Zm0,110.63L66.19,884.93l27.64-47.88Zm0,110.63L66.19,995.56l27.64-47.88Zm64.71-101.2L186.15,990l-82.81-47.81ZM282,945.7l-27.63,47.86H199.1Zm3.48,2v95.76l-27.64-47.88Zm64.71-5.44L377.78,990,295,942.24Zm123.45,3.46L446,993.56H390.74Zm3.48,2v95.76l-27.64-47.88Zm95.83-55.34v95.8l-27.66-47.9Zm92.33,53.37-27.63,47.86H582.37Zm3.48,2v95.76L641.1,995.56Zm64.71-5.44L761.05,990l-82.81-47.81ZM856.9,945.7l-27.63,47.86H774Zm3.48,2v95.76l-27.64-47.88Zm4-110.54L892,884.93,864.4,932.72Zm31.05,45.79L867.8,835l83,47.9ZM864.4,726.52,892,774.3,864.4,822.09Zm31.05,45.79L867.8,724.4l83,47.9Zm0-106.63h55.26l-82.89,47.86Zm0-4-27.66-47.9,83,47.9Zm0-106.63h55.26l-82.89,47.86Zm0-4-27.66-47.9,83,47.9ZM864.4,394.64,892,442.43,864.4,490.21Zm31.05,45.79-27.66-47.9,83,47.9ZM864.4,284,892,331.8,864.4,379.59Zm31.05,45.79L867.8,281.9l83,47.9ZM864.4,173.39,892,221.17,864.4,269Zm31.05,45.79-27.66-47.9,83,47.9Zm0-106.63h55.26L867.83,160.4Zm0-4L867.8,60.65l83,47.9Zm-66.19,0H774L856.9,60.69Zm-125.45,0-27.66-47.9,83,47.9Zm-123.45-3.46L608,57.23h55.26Zm-68.19,3.46-27.66-47.9,83,47.9Zm-123.45-3.46,27.63-47.86h55.26Zm-68.19,3.46-27.66-47.9,83,47.9Zm-66.19,0H199.1L282,60.69Zm-64.7-5.42L162,55.23l27.66-47.9ZM62.72,108.55H7.46L90.35,60.69Zm0,110.63H7.46l82.89-47.86Zm-55.21,4H62.72L90.33,271,35.85,239.53ZM62.72,329.8H7.46l82.89-47.86Zm0,110.63H7.46l82.89-47.86Zm0,110.63H7.46L90.35,503.2Zm0,110.63H7.46l82.89-47.86Zm0,110.63H7.46l82.89-47.86Zm-55.21,4H62.72l27.6,47.81L35.85,792.66ZM62.72,882.93H7.46l82.89-47.86Zm0,110.63H7.46L90.35,945.7Zm0,4,27.6,47.81L7.52,997.56Zm35.13-49.79,27.59,47.79-27.59,47.79Zm31.05,45.79-27.66-47.9,83,47.9Zm125.45,4,27.6,47.81-82.81-47.81Zm35.13-49.79,27.59,47.79-27.59,47.79Zm31.05,45.79-27.66-47.9,83,47.9Zm125.45,4,27.6,47.81-82.81-47.81Zm95.82-55.32L569.42,990l-82.81-47.81Zm95.82,55.32,27.6,47.81-82.81-47.81Zm35.13-49.79,27.59,47.79-27.59,47.79Zm31.05,45.79-27.66-47.9,83,47.9Zm125.45,4,27.6,47.81-82.81-47.81Zm35.13-49.79L892,995.56l-27.59,47.79Zm31.05,45.79-27.66-47.9,83,47.9Zm-27.63-58.77,27.63-47.86h55.26l-61.83,35.7Zm0-110.63,27.63-47.86h55.26l-41.41,23.91Zm0-331.88,27.63-47.86h55.26l-61.83,35.7Zm0-110.63,27.63-47.86h55.26l-61.83,35.7Zm0-110.63,27.63-47.86h55.26l-41.41,23.91ZM772,105.08l27.63-47.86H854.9Zm-3.44-2V7.42l27.6,47.81Zm-4,.09-27.66-47.9,27.66-47.9ZM608,53.23,580.36,5.35l82.93,47.88Zm-35.07,49.9-27.66-47.9,27.66-47.9ZM416.37,53.23,388.72,5.35l82.93,47.88Zm-35.07,49.9-27.66-47.9L381.3,7.32Zm-184.2,2,27.63-47.86H280Zm-3.44-2V7.42l27.6,47.81ZM158.54,53.23H103.31L186.16,5.39Zm-125.45,0L5.45,5.35,88.38,53.23Zm0,4H88.35L5.46,105.08ZM55,144.58l33.38,19.27H33.09L5.45,116ZM33.09,167.85H88.35L5.46,215.71Zm22,87.41,33.28,19.21H33.09L5.45,226.6Zm-22,23.21H88.35L5.46,326.34ZM88.38,385.11H33.09L5.45,337.23Zm-55.29,4H88.35L5.46,437ZM88.38,495.73H33.09L5.45,447.85Zm-55.29,4H88.35L5.46,547.59ZM69.5,595.46l18.88,10.9H33.09L5.45,558.48Zm-36.41,14.9H88.35L5.46,658.21ZM69.5,706.09,88.38,717H33.09L5.45,669.1ZM33.09,721H88.35L5.46,768.84Zm22,87.41,33.28,19.21H33.09L5.45,779.73Zm-22,23.21H88.35L5.46,879.47ZM88.38,938.24H33.09L5.45,890.36Zm-55.29,4H88.35L5.46,990.09Zm95.82,55.32h55.26l-82.89,47.86Zm191.64,0h55.26l-82.89,47.86Zm160.58-49.79,27.59,47.79-27.59,47.79Zm31.05,45.79-27.66-47.9,83,47.9Zm191.64,4h55.26l-82.89,47.86Zm191.64,0h55.26l-82.89,47.86Zm33.09-57.32,27.66-47.9v95.8Zm-3.46-2H869.85L952.7,890.4Zm3.46-108.63,27.66-47.9v95.8Zm-3.46-2H869.85l41.45-23.93,41.4-23.9ZM928.55,719l27.66-47.9v95.8Zm-3.46-2H869.85l21.87-12.62,61-35.21Zm3.46-108.63,27.66-47.9v95.8Zm-3.46-2H869.85l21.87-12.62,61-35.21Zm3.46-108.63,27.66-47.9v95.8Zm-3.46-2H869.85L952.7,447.9Zm3.46-108.63,27.66-47.9V435Zm-3.46-2H869.85l82.85-47.83Zm3.46-108.63,27.66-47.9v95.8Zm-3.46-2H869.85l41.45-23.93,41.4-23.9Zm3.46-108.63L956.21,118v95.8Zm-3.46-2H869.85l41.45-23.93L952.7,116Zm3.46-108.63,27.66-47.9v95.8Zm-73.63-2H799.64L772,5.35,813.47,29.3ZM761.07,5.39,733.45,53.23H678.22L719.67,29.3Zm-191.64,0L541.81,53.23H486.58l18.79-10.85Zm-191.64,0L350.18,53.23H294.94L321.35,38ZM280,53.23H224.73L197.09,5.35,253.61,38ZM2,7.42l27.6,47.81L2,103ZM2,118l27.6,47.81L2,213.66ZM2,228.67l27.6,47.81L2,324.29ZM2,339.29l27.6,47.81L2,434.92ZM2,449.92l27.6,47.81L2,545.54ZM2,560.55l27.6,47.81L2,656.17ZM2,671.17,29.63,719,2,766.8ZM2,781.8l27.6,47.81L2,877.42ZM2,892.42l27.6,47.81L2,988Zm482.53,153,27.63-47.86h55.26L547.56,1009Zm475.65-153,27.6,47.81L960.21,988Zm0-110.63,27.6,47.81-27.6,47.81Zm0-110.63L987.81,719l-27.6,47.81Zm0-110.63,27.6,47.81-27.6,47.81Zm0-110.63,27.6,47.81-27.6,47.81Zm0-110.63,27.6,47.81-27.6,47.81Zm0-110.63,27.6,47.81-27.6,47.81Zm0-110.63,27.6,47.81-27.6,47.81Zm0-110.63,27.6,47.81L960.21,103ZM-2,7.32v95.8l-27.66-47.9ZM-2,118v95.8l-27.66-47.9Zm0,110.63v95.8l-27.66-47.9ZM-2,339.2V435l-27.66-47.9Zm0,110.63v95.8l-27.66-47.9Zm0,110.63v95.8l-27.66-47.9Zm0,110.63v95.8L-29.63,719Zm0,110.63v95.8l-27.66-47.9Zm0,110.63v95.8l-27.66-47.9Zm160.52,156.53H103.31l18.88-10.9,64-36.94Zm191.64,0H294.94l25.56-14.76L377.8,1001Zm191.64,0H486.58l30.47-17.59L569.43,1001Zm191.64,0H678.22l21.87-12.62,61-35.21Zm191.64,0H869.85l21.87-12.62,61-35.21Z"/></svg>