<svg xmlns="http://www.w3.org/2000/svg" width="1122" height="1122" viewBox="0 0 1122 1122"><defs><style>.a{fill:#2b99cf;}.b{fill:none;}.c{fill:#edeae4;}</style></defs><title>blue1</title><rect class="a" width="1122" height="1122"/><polygon class="b" points="658.84 472.59 686.44 424.78 658.84 376.97 658.84 472.59"/><polygon class="b" points="463.2 472.68 463.2 376.88 435.55 424.78 463.2 472.68"/><polygon class="b" points="498.27 422.78 553.56 422.78 470.63 374.9 498.27 422.78"/><polygon class="b" points="527.9 703.35 472.69 703.35 555.5 751.16 527.9 703.35"/><polygon class="b" points="402.45 703.35 374.82 751.21 457.71 703.35 402.45 703.35"/><polygon class="b" points="662.28 474.64 745.17 426.78 689.91 426.78 662.28 474.64"/><polygon class="b" points="654.84 598.13 627.18 646.03 654.84 693.93 654.84 598.13"/><polygon class="b" points="747.17 651.5 664.28 699.35 719.54 699.35 747.17 651.5"/><polygon class="b" points="723 590.73 750.64 638.61 750.64 542.85 723 590.73"/><polygon class="b" points="723 480.1 750.64 527.98 750.64 432.22 723 480.1"/><polygon class="b" points="750.64 653.47 723 701.35 750.64 749.23 750.64 653.47"/><polygon class="b" points="654.84 472.68 654.84 376.88 627.18 424.78 654.84 472.68"/><polygon class="b" points="566.43 651.45 594.09 699.35 649.4 699.35 566.43 651.45"/><polygon class="b" points="563.03 653.57 563.03 749.14 590.62 701.35 563.03 653.57"/><polygon class="b" points="623.72 648.03 568.51 648.03 651.32 695.84 623.72 648.03"/><polygon class="b" points="717.19 401.99 747.14 419.29 719.54 371.47 664.33 371.47 717.19 401.99"/><polygon class="b" points="534.68 743.76 470.63 706.78 498.27 754.66 553.56 754.66 534.68 743.76"/><polygon class="b" points="559.01 417.35 559.01 321.6 531.36 369.47 559.01 417.35"/><polygon class="b" points="750.64 417.35 750.64 321.6 723 369.47 750.64 417.35"/><polygon class="b" points="689.91 422.78 745.19 422.78 683.09 386.93 662.26 374.9 689.91 422.78"/><polygon class="b" points="689.91 537.41 662.28 585.26 745.17 537.41 689.91 537.41"/><polygon class="b" points="623.72 422.78 651.33 374.95 568.48 422.78 623.72 422.78"/><polygon class="b" points="432.08 422.78 459.7 374.95 376.85 422.78 432.08 422.78"/><polygon class="b" points="467.2 708.85 467.2 804.47 494.81 756.66 467.2 708.85"/><polygon class="b" points="664.33 482.1 717.19 512.62 747.14 529.91 719.54 482.1 664.33 482.1"/><polygon class="b" points="555.53 651.5 472.64 699.35 527.9 699.35 555.53 651.5"/><polygon class="b" points="432.08 648.03 376.87 648.03 459.69 695.84 432.08 648.03"/><polygon class="b" points="398.99 701.35 371.4 653.57 371.4 749.14 398.99 701.35"/><polygon class="b" points="457.71 592.73 402.45 592.73 374.82 640.58 457.71 592.73"/><polygon class="b" points="559.01 653.47 531.36 701.35 559.01 749.23 559.01 653.47"/><polygon class="b" points="566.46 529.96 581.88 521.05 649.35 482.1 594.09 482.1 566.46 529.96"/><polygon class="b" points="658.84 598.22 658.84 693.84 686.44 646.03 658.84 598.22"/><polygon class="b" points="530.67 404.95 555.5 419.29 527.9 371.47 472.69 371.47 530.67 404.95"/><polygon class="b" points="563.03 527.89 590.62 480.1 563.03 432.31 563.03 527.89"/><polygon class="b" points="527.9 478.1 555.53 430.24 472.64 478.1 527.9 478.1"/><polygon class="b" points="457.76 588.73 374.8 540.82 402.45 588.73 457.76 588.73"/><polygon class="b" points="594.09 592.73 566.46 640.58 629.47 604.21 649.35 592.73 594.09 592.73"/><polygon class="b" points="398.99 480.1 371.4 432.31 371.4 527.89 398.99 480.1"/><polygon class="b" points="402.45 478.1 457.76 478.1 374.8 430.2 402.45 478.1"/><polygon class="b" points="467.2 472.59 494.81 424.78 467.2 376.97 467.2 472.59"/><polygon class="b" points="374.8 651.45 402.45 699.35 457.76 699.35 374.8 651.45"/><polygon class="b" points="398.99 590.73 371.4 542.94 371.4 638.51 398.99 590.73"/><polygon class="b" points="664.28 478.1 719.54 478.1 747.17 430.24 664.28 478.1"/><polygon class="b" points="664.33 592.73 747.14 640.54 719.54 592.73 664.33 592.73"/><polygon class="b" points="664.28 588.73 719.54 588.73 747.17 540.87 664.28 588.73"/><polygon class="b" points="470.64 474.64 553.53 426.78 498.27 426.78 470.64 474.64"/><polygon class="b" points="594.09 478.1 649.4 478.1 566.43 430.2 594.09 478.1"/><polygon class="b" points="689.91 648.03 662.28 695.89 745.17 648.03 689.91 648.03"/><polygon class="b" points="719.54 703.35 664.33 703.35 747.14 751.16 719.54 703.35"/><polygon class="b" points="559.01 764.1 531.36 811.98 559.01 859.86 559.01 764.1"/><polygon class="b" points="654.84 708.76 627.18 756.66 654.84 804.56 654.84 708.76"/><polygon class="b" points="785.72 588.73 841.04 588.73 758.07 540.82 785.72 588.73"/><polygon class="b" points="555.53 762.12 472.64 809.98 527.9 809.98 555.53 762.12"/><polygon class="b" points="785.72 699.35 841.04 699.35 758.07 651.45 785.72 699.35"/><polygon class="b" points="336.26 478.1 363.89 430.24 281 478.1 336.26 478.1"/><polygon class="b" points="336.26 699.35 363.89 651.5 281 699.35 336.26 699.35"/><polygon class="b" points="432.08 758.66 376.87 758.66 459.69 806.47 432.08 758.66"/><polygon class="b" points="367.37 527.98 367.37 432.22 339.73 480.1 367.37 527.98"/><polygon class="b" points="281 809.98 336.26 809.98 363.89 762.12 281 809.98"/><polygon class="b" points="367.37 764.1 339.73 811.98 367.37 859.86 367.37 764.1"/><polygon class="b" points="689.91 758.66 662.28 806.51 745.17 758.66 689.91 758.66"/><polygon class="b" points="470.64 364.01 553.53 316.15 498.27 316.15 470.64 364.01"/><polygon class="b" points="402.45 367.47 457.76 367.47 374.8 319.57 402.45 367.47"/><polygon class="b" points="336.26 367.47 363.89 319.62 281 367.47 336.26 367.47"/><polygon class="b" points="361.92 422.78 278.99 374.9 306.63 422.78 361.92 422.78"/><polygon class="b" points="785.72 482.1 758.09 529.96 779.15 517.8 840.98 482.1 785.72 482.1"/><polygon class="b" points="361.89 426.78 306.63 426.78 279 474.64 361.89 426.78"/><polygon class="b" points="594.09 367.47 649.4 367.47 566.43 319.57 594.09 367.47"/><polygon class="b" points="785.72 478.1 841.04 478.1 758.07 430.2 785.72 478.1"/><polygon class="b" points="785.72 371.47 758.09 419.33 779.15 407.17 840.98 371.47 785.72 371.47"/><polygon class="b" points="662.28 364.01 745.17 316.15 689.91 316.15 662.28 364.01"/><polygon class="b" points="785.72 367.47 841.04 367.47 758.07 319.57 785.72 367.47"/><polygon class="b" points="336.26 588.73 363.89 540.87 281 588.73 336.26 588.73"/><polygon class="b" points="594.09 703.35 566.46 751.21 629.47 714.83 649.35 703.35 594.09 703.35"/><polygon class="b" points="498.27 758.66 470.64 806.51 553.53 758.66 498.27 758.66"/><polygon class="b" points="754.67 749.14 782.26 701.35 754.67 653.57 754.67 749.14"/><polygon class="b" points="728.74 745.16 662.26 706.78 689.91 754.66 745.19 754.66 728.74 745.16"/><polygon class="b" points="840.98 703.35 785.72 703.35 758.09 751.21 840.98 703.35"/><polygon class="b" points="346.01 408.97 363.87 419.29 336.26 371.47 281.06 371.47 346.01 408.97"/><polygon class="b" points="367.37 638.61 367.37 542.85 339.73 590.73 367.37 638.61"/><polygon class="b" points="463.2 708.76 435.55 756.66 463.2 804.56 463.2 708.76"/><polygon class="b" points="363.87 640.54 336.26 592.73 281.06 592.73 363.87 640.54"/><polygon class="b" points="367.37 749.23 367.37 653.47 339.73 701.35 367.37 749.23"/><polygon class="b" points="363.87 751.16 336.26 703.35 281.06 703.35 363.87 751.16"/><polygon class="b" points="658.84 708.85 658.84 804.47 686.44 756.66 658.84 708.85"/><polygon class="b" points="840.98 592.73 785.72 592.73 758.09 640.58 840.98 592.73"/><polygon class="b" points="374.82 419.33 392.76 408.97 457.71 371.47 402.45 371.47 374.82 419.33"/><polygon class="b" points="563.03 417.26 590.62 369.47 563.03 321.69 563.03 417.26"/><polygon class="b" points="367.37 417.35 367.37 321.6 339.73 369.47 367.37 417.35"/><polygon class="b" points="371.4 417.26 398.99 369.47 371.4 321.69 371.4 417.26"/><polygon class="b" points="527.9 367.47 555.53 319.62 472.64 367.47 527.9 367.47"/><polygon class="b" points="566.46 419.33 581.88 410.43 649.35 371.47 594.09 371.47 566.46 419.33"/><polygon class="b" points="754.67 638.51 782.26 590.73 754.67 542.94 754.67 638.51"/><polygon class="b" points="754.67 432.31 754.67 527.89 782.26 480.1 754.67 432.31"/><polygon class="b" points="719.54 367.47 747.17 319.62 664.28 367.47 719.54 367.47"/><polygon class="b" points="754.67 321.69 754.67 417.26 782.26 369.47 754.67 321.69"/><polygon class="b" points="658.84 487.6 658.84 583.22 686.44 535.41 658.84 487.6"/><polygon class="b" points="658.84 45.09 658.84 140.71 686.44 92.9 658.84 45.09"/><polygon class="b" points="568.48 975.91 623.72 975.91 651.33 928.08 568.48 975.91"/><polygon class="b" points="467.2 45.09 467.2 140.71 494.81 92.9 467.2 45.09"/><polygon class="b" points="144.63 371.47 89.42 371.47 147.4 404.95 172.23 419.29 144.63 371.47"/><polygon class="b" points="144.63 924.61 89.42 924.61 147.4 958.08 172.23 972.42 144.63 924.61"/><polygon class="b" points="268.05 142.71 240.44 94.9 185.24 94.9 268.05 142.71"/><polygon class="b" points="144.63 482.1 89.42 482.1 147.4 515.57 172.23 529.91 144.63 482.1"/><polygon class="b" points="1034.59 695.84 1006.99 648.03 951.78 648.03 1034.59 695.84"/><polygon class="b" points="1034.59 585.22 1006.99 537.41 951.78 537.41 1034.59 585.22"/><polygon class="b" points="658.84 155.72 658.84 251.34 686.44 203.53 658.84 155.72"/><polygon class="b" points="1034.59 1027.72 1006.99 979.91 951.78 979.91 1034.59 1027.72"/><polygon class="b" points="1034.59 917.1 1006.99 869.28 951.78 869.28 1034.59 917.1"/><polygon class="b" points="1034.59 474.59 1006.99 426.78 951.78 426.78 1034.59 474.59"/><polygon class="b" points="183.16 872.7 210.81 920.61 266.13 920.61 183.16 872.7"/><polygon class="b" points="842.96 253.34 815.35 205.53 760.15 205.53 842.96 253.34"/><polygon class="b" points="855.97 924.61 917.8 960.3 938.78 972.42 911.17 924.61 855.97 924.61"/><polygon class="b" points="467.2 155.72 467.2 251.34 494.81 203.53 467.2 155.72"/><polygon class="b" points="268.05 253.34 240.44 205.53 185.24 205.53 268.05 253.34"/><polygon class="b" points="683.09 940.06 662.26 928.03 689.91 975.91 745.19 975.91 683.09 940.06"/><polygon class="b" points="185.21 975.91 240.44 975.91 268.06 928.08 185.21 975.91"/><polygon class="b" points="376.85 975.91 432.08 975.91 459.7 928.08 376.85 975.91"/><polygon class="b" points="459.69 253.34 432.08 205.53 376.87 205.53 459.69 253.34"/><polygon class="b" points="651.32 253.34 623.72 205.53 568.51 205.53 651.32 253.34"/><polygon class="b" points="760.12 975.91 815.35 975.91 842.97 928.08 760.12 975.91"/><polygon class="b" points="1034.59 806.47 1006.99 758.66 951.78 758.66 1034.59 806.47"/><polygon class="b" points="649.35 39.6 594.09 39.6 566.46 87.45 649.35 39.6"/><polygon class="b" points="729.37 77.15 747.14 87.41 719.54 39.6 664.33 39.6 729.37 77.15"/><polygon class="b" points="897.38 63.51 938.78 87.41 911.17 39.6 855.97 39.6 897.38 63.51"/><polygon class="b" points="529.79 72.56 555.5 87.41 527.9 39.6 472.69 39.6 529.79 72.56"/><polygon class="b" points="799.57 63.51 840.98 39.6 785.72 39.6 758.09 87.45 799.57 63.51"/><polygon class="b" points="457.71 39.6 402.45 39.6 374.82 87.45 457.71 39.6"/><polygon class="b" points="146.52 72.56 172.23 87.41 144.63 39.6 89.42 39.6 146.52 72.56"/><polygon class="b" points="208.98 72.56 266.07 39.6 210.81 39.6 183.19 87.45 208.98 72.56"/><polygon class="b" points="363.87 87.41 336.26 39.6 281.06 39.6 363.87 87.41"/><polygon class="b" points="991.21 63.51 1032.62 39.6 977.36 39.6 949.73 87.45 991.21 63.51"/><polygon class="b" points="1034.59 363.96 1006.99 316.15 951.78 316.15 1034.59 363.96"/><polygon class="b" points="842.96 142.71 815.35 94.9 760.15 94.9 842.96 142.71"/><polygon class="b" points="651.32 142.71 623.72 94.9 568.51 94.9 651.32 142.71"/><polygon class="b" points="1034.59 253.34 1006.99 205.53 951.78 205.53 1034.59 253.34"/><polygon class="b" points="459.69 142.71 432.08 94.9 376.87 94.9 459.69 142.71"/><polygon class="b" points="1034.59 142.71 1006.99 94.9 951.78 94.9 1034.59 142.71"/><polygon class="b" points="1006.99 90.9 1034.61 43.07 993.21 66.97 951.76 90.9 1006.99 90.9"/><polygon class="b" points="728.74 1077.04 662.26 1038.66 689.91 1086.54 745.19 1086.54 728.74 1077.04"/><polygon class="b" points="914.96 1073.91 853.9 1038.66 881.54 1086.54 936.83 1086.54 914.96 1073.91"/><polygon class="b" points="534.68 1075.64 470.63 1038.66 498.27 1086.54 553.56 1086.54 534.68 1075.64"/><polygon class="b" points="151.41 1075.64 87.35 1038.66 115 1086.54 170.28 1086.54 151.41 1075.64"/><polygon class="b" points="336.36 1071.78 278.99 1038.66 306.63 1086.54 361.92 1086.54 336.36 1071.78"/><polygon class="b" points="623.72 533.41 651.33 485.57 568.48 533.41 623.72 533.41"/><polygon class="b" points="463.2 583.31 463.2 487.5 435.55 535.41 463.2 583.31"/><polygon class="b" points="527.9 592.73 472.69 592.73 555.5 640.54 527.9 592.73"/><polygon class="b" points="689.91 533.41 745.19 533.41 683.09 497.55 662.26 485.53 689.91 533.41"/><polygon class="b" points="472.64 588.73 527.9 588.73 555.53 540.87 472.64 588.73"/><polygon class="b" points="467.2 487.6 467.2 583.22 494.81 535.41 467.2 487.6"/><polygon class="b" points="531.36 590.73 559.01 638.61 559.01 542.85 531.36 590.73"/><polygon class="b" points="689.91 644.03 745.19 644.03 728.74 634.53 662.26 596.15 689.91 644.03"/><polygon class="b" points="553.53 537.41 498.27 537.41 470.64 585.26 553.53 537.41"/><polygon class="b" points="402.41 629.27 376.85 644.03 432.08 644.03 459.7 596.2 402.41 629.27"/><polygon class="b" points="654.84 583.31 654.84 487.5 627.18 535.41 654.84 583.31"/><polygon class="b" points="566.43 540.82 594.09 588.73 649.4 588.73 566.43 540.82"/><polygon class="b" points="498.27 533.41 553.56 533.41 470.63 485.53 498.27 533.41"/><polygon class="b" points="467.2 598.22 467.2 693.84 494.81 646.03 467.2 598.22"/><polygon class="b" points="459.7 485.57 376.85 533.41 432.08 533.41 459.7 485.57"/><polygon class="b" points="459.69 585.22 432.08 537.41 376.87 537.41 459.69 585.22"/><polygon class="b" points="498.27 648.03 470.64 695.89 553.53 648.03 498.27 648.03"/><polygon class="b" points="881.54 312.15 936.83 312.15 895.38 288.22 853.9 264.27 881.54 312.15"/><polygon class="b" points="463.2 598.13 435.55 646.03 463.2 693.93 463.2 598.13"/><polygon class="b" points="534.68 633.13 470.63 596.15 498.27 644.03 553.56 644.03 534.68 633.13"/><polygon class="b" points="530.67 515.57 555.5 529.91 527.9 482.1 472.69 482.1 530.67 515.57"/><polygon class="b" points="623.72 537.41 568.51 537.41 651.32 585.22 623.72 537.41"/><polygon class="b" points="559.01 527.98 559.01 432.22 531.36 480.1 559.01 527.98"/><polygon class="b" points="361.92 533.41 278.99 485.53 306.63 533.41 361.92 533.41"/><polygon class="b" points="563.03 542.94 563.03 638.51 590.62 590.73 563.03 542.94"/><polygon class="b" points="268.06 706.82 204.09 743.76 185.21 754.66 240.44 754.66 268.06 706.82"/><polygon class="b" points="268.06 596.2 204.09 633.13 185.21 644.03 240.44 644.03 268.06 596.2"/><polygon class="b" points="268.06 264.32 218.49 292.94 185.21 312.15 240.44 312.15 268.06 264.32"/><polygon class="b" points="430.85 834.11 376.85 865.28 432.08 865.28 459.7 817.45 430.85 834.11"/><polygon class="b" points="801.57 841.35 760.12 865.28 815.35 865.28 842.97 817.45 801.57 841.35"/><polygon class="b" points="275.56 266.34 275.56 361.96 303.17 314.15 275.56 266.34"/><polygon class="b" points="881.54 754.66 936.83 754.66 914.96 742.03 853.9 706.78 881.54 754.66"/><polygon class="b" points="881.54 644.03 936.83 644.03 914.96 631.41 853.9 596.15 881.54 644.03"/><polygon class="b" points="644.46 821.42 568.48 865.28 623.72 865.28 651.33 817.45 644.46 821.42"/><polygon class="b" points="881.54 865.28 936.83 865.28 895.38 841.35 853.9 817.4 881.54 865.28"/><polygon class="b" points="268.06 817.45 218.49 846.07 185.21 865.28 240.44 865.28 268.06 817.45"/><polygon class="b" points="392.76 519.6 457.71 482.1 402.45 482.1 374.82 529.96 392.76 519.6"/><polygon class="b" points="459.69 474.59 432.08 426.78 376.87 426.78 459.69 474.59"/><polygon class="b" points="402.41 739.9 376.85 754.66 432.08 754.66 459.7 706.82 402.41 739.9"/><polygon class="b" points="336.26 482.1 281.06 482.1 346.01 519.6 363.87 529.91 336.26 482.1"/><polygon class="b" points="651.32 474.59 623.72 426.78 568.51 426.78 651.32 474.59"/><polygon class="b" points="459.69 363.96 432.08 316.15 376.87 316.15 459.69 363.96"/><polygon class="b" points="598.96 626.44 568.48 644.03 623.72 644.03 651.33 596.2 598.96 626.44"/><polygon class="b" points="842.96 363.96 815.35 316.15 760.15 316.15 842.96 363.96"/><polygon class="b" points="651.32 363.96 623.72 316.15 568.51 316.15 651.32 363.96"/><polygon class="b" points="467.2 266.34 467.2 361.96 494.81 314.15 467.2 266.34"/><polygon class="b" points="658.84 266.34 658.84 361.96 686.44 314.15 658.84 266.34"/><polygon class="b" points="598.96 737.07 568.48 754.66 623.72 754.66 651.33 706.82 598.96 737.07"/><polygon class="b" points="144.63 1035.23 89.42 1035.23 172.23 1083.04 144.63 1035.23"/><polygon class="b" points="977.36 150.22 949.73 198.08 1032.62 150.22 977.36 150.22"/><polygon class="b" points="949.7 208.95 977.36 256.85 1032.67 256.85 949.7 208.95"/><polygon class="b" points="977.36 146.22 1032.67 146.22 949.7 98.32 977.36 146.22"/><polygon class="b" points="946.31 211.06 946.31 306.64 973.9 258.85 946.31 211.06"/><polygon class="b" points="336.26 146.22 363.89 98.36 281 146.22 336.26 146.22"/><polygon class="b" points="949.7 319.57 977.36 367.47 1032.67 367.47 949.7 319.57"/><polygon class="b" points="911.17 146.22 938.8 98.36 855.91 146.22 911.17 146.22"/><polygon class="b" points="402.45 146.22 457.76 146.22 374.8 98.32 402.45 146.22"/><polygon class="b" points="470.64 142.76 553.53 94.9 498.27 94.9 470.64 142.76"/><polygon class="b" points="785.72 146.22 841.04 146.22 758.07 98.32 785.72 146.22"/><polygon class="b" points="594.09 146.22 649.4 146.22 566.43 98.32 594.09 146.22"/><polygon class="b" points="662.28 142.76 745.17 94.9 689.91 94.9 662.28 142.76"/><polygon class="b" points="946.31 321.69 946.31 417.26 973.9 369.47 946.31 321.69"/><polygon class="b" points="949.7 762.08 977.36 809.98 1032.67 809.98 949.7 762.08"/><polygon class="b" points="946.31 764.19 946.31 859.77 973.9 811.98 946.31 764.19"/><polygon class="b" points="949.7 872.7 977.36 920.61 1032.67 920.61 949.7 872.7"/><polygon class="b" points="946.31 874.82 946.31 970.39 973.9 922.61 946.31 874.82"/><polygon class="b" points="946.31 985.44 946.31 1081.02 973.9 1033.23 946.31 985.44"/><polygon class="b" points="946.31 432.31 946.31 527.89 973.9 480.1 946.31 432.31"/><polygon class="b" points="977.36 703.35 949.73 751.21 1032.62 703.35 977.36 703.35"/><polygon class="b" points="977.36 588.73 1032.67 588.73 949.7 540.82 977.36 588.73"/><polygon class="b" points="949.7 430.2 977.36 478.1 1032.67 478.1 949.7 430.2"/><polygon class="b" points="977.36 699.35 1032.67 699.35 949.7 651.45 977.36 699.35"/><polygon class="b" points="977.36 592.73 949.73 640.58 1032.62 592.73 977.36 592.73"/><polygon class="b" points="144.63 699.35 172.26 651.5 89.37 699.35 144.63 699.35"/><polygon class="b" points="179.76 985.44 179.76 1081.02 207.35 1033.23 179.76 985.44"/><polygon class="b" points="374.8 983.33 402.45 1031.23 457.76 1031.23 374.8 983.33"/><polygon class="b" points="183.16 983.33 210.81 1031.23 266.13 1031.23 183.16 983.33"/><polygon class="b" points="527.9 1035.23 472.69 1035.23 555.5 1083.04 527.9 1035.23"/><polygon class="b" points="336.26 1035.23 281.06 1035.23 363.87 1083.04 336.26 1035.23"/><polygon class="b" points="371.4 985.44 371.4 1081.02 398.99 1033.23 371.4 985.44"/><polygon class="b" points="758.07 983.33 785.72 1031.23 841.04 1031.23 758.07 983.33"/><polygon class="b" points="911.17 1035.23 855.97 1035.23 938.78 1083.04 911.17 1035.23"/><polygon class="b" points="719.54 1035.23 664.33 1035.23 747.14 1083.04 719.54 1035.23"/><polygon class="b" points="623.72 979.91 568.51 979.91 651.32 1027.72 623.72 979.91"/><polygon class="b" points="754.67 985.44 754.67 1081.02 782.26 1033.23 754.67 985.44"/><polygon class="b" points="144.63 367.47 172.26 319.62 89.37 367.47 144.63 367.47"/><polygon class="b" points="271.56 140.8 271.56 45 243.91 92.9 271.56 140.8"/><polygon class="b" points="144.63 478.1 172.26 430.24 89.37 478.1 144.63 478.1"/><polygon class="b" points="144.63 260.85 89.42 260.85 117.75 277.2 172.23 308.66 144.63 260.85"/><polygon class="b" points="144.63 1031.23 172.26 983.37 89.37 1031.23 144.63 1031.23"/><polygon class="b" points="144.63 256.85 172.26 208.99 89.37 256.85 144.63 256.85"/><polygon class="b" points="144.63 146.22 172.26 98.36 89.37 146.22 144.63 146.22"/><polygon class="b" points="144.63 813.98 89.42 813.98 117.75 830.34 172.23 861.79 144.63 813.98"/><polygon class="b" points="144.63 920.61 172.26 872.75 89.37 920.61 144.63 920.61"/><polygon class="b" points="144.63 588.73 172.26 540.87 89.37 588.73 144.63 588.73"/><polygon class="b" points="938.8 983.37 855.91 1031.23 911.17 1031.23 938.8 983.37"/><polygon class="b" points="144.63 809.98 172.26 762.12 89.37 809.98 144.63 809.98"/><polygon class="b" points="942.28 985.35 914.64 1033.23 942.28 1081.11 942.28 985.35"/><polygon class="b" points="758.09 198.08 840.98 150.22 785.72 150.22 758.09 198.08"/><polygon class="b" points="754.67 196.01 782.26 148.22 754.67 100.43 754.67 196.01"/><polygon class="b" points="719.54 146.22 747.17 98.36 664.28 146.22 719.54 146.22"/><polygon class="b" points="942.28 196.1 942.28 100.34 914.64 148.22 942.28 196.1"/><polygon class="b" points="367.37 196.1 367.37 100.34 339.73 148.22 367.37 196.1"/><polygon class="b" points="815.35 979.91 760.15 979.91 842.96 1027.72 815.35 979.91"/><polygon class="b" points="374.82 198.08 457.71 150.22 402.45 150.22 374.82 198.08"/><polygon class="b" points="371.4 196.01 398.99 148.22 371.4 100.43 371.4 196.01"/><polygon class="b" points="527.9 146.22 555.53 98.36 472.64 146.22 527.9 146.22"/><polygon class="b" points="946.31 100.43 946.31 196.01 973.9 148.22 946.31 100.43"/><polygon class="b" points="566.46 198.08 649.35 150.22 594.09 150.22 566.46 198.08"/><polygon class="b" points="938.78 198.03 911.17 150.22 855.97 150.22 938.78 198.03"/><polygon class="b" points="463.2 930.01 435.55 977.91 463.2 1025.81 463.2 930.01"/><polygon class="b" points="306.63 979.91 279 1027.77 361.89 979.91 306.63 979.91"/><polygon class="b" points="271.56 930.01 243.91 977.91 271.56 1025.81 271.56 930.01"/><polygon class="b" points="498.27 979.91 470.64 1027.77 553.53 979.91 498.27 979.91"/><polygon class="b" points="183.19 198.08 266.07 150.22 210.81 150.22 183.19 198.08"/><polygon class="b" points="846.48 930.01 818.82 977.91 846.48 1025.81 846.48 930.01"/><polygon class="b" points="881.54 979.91 853.91 1027.77 936.8 979.91 881.54 979.91"/><polygon class="b" points="946.31 653.57 946.31 749.14 973.9 701.35 946.31 653.57"/><polygon class="b" points="946.31 542.94 946.31 638.51 973.9 590.73 946.31 542.94"/><polygon class="b" points="658.84 930.1 658.84 1025.72 686.44 977.91 658.84 930.1"/><polygon class="b" points="689.91 979.91 662.28 1027.77 745.17 979.91 689.91 979.91"/><polygon class="b" points="563.03 196.01 590.62 148.22 563.03 100.43 563.03 196.01"/><polygon class="b" points="432.08 979.91 376.87 979.91 459.69 1027.72 432.08 979.91"/><polygon class="b" points="367.37 985.35 339.73 1033.23 367.37 1081.11 367.37 985.35"/><polygon class="b" points="363.89 983.37 281 1031.23 336.26 1031.23 363.89 983.37"/><polygon class="b" points="175.73 970.48 175.73 874.73 148.09 922.61 175.73 970.48"/><polygon class="b" points="240.44 979.91 185.24 979.91 268.05 1027.72 240.44 979.91"/><polygon class="b" points="175.73 1081.11 175.73 985.35 148.09 1033.23 175.73 1081.11"/><polygon class="b" points="747.17 983.37 664.28 1031.23 719.54 1031.23 747.17 983.37"/><polygon class="b" points="750.64 985.35 723 1033.23 750.64 1081.11 750.64 985.35"/><polygon class="b" points="559.01 985.35 531.36 1033.23 559.01 1081.11 559.01 985.35"/><polygon class="b" points="654.84 930.01 627.18 977.91 654.84 1025.81 654.84 930.01"/><polygon class="b" points="555.53 983.37 472.64 1031.23 527.9 1031.23 555.53 983.37"/><polygon class="b" points="175.73 417.35 175.73 321.6 148.09 369.47 175.73 417.35"/><polygon class="b" points="172.23 198.03 144.63 150.22 89.42 150.22 172.23 198.03"/><polygon class="b" points="175.73 859.86 175.73 764.1 148.09 811.98 175.73 859.86"/><polygon class="b" points="175.73 306.73 175.73 210.97 148.09 258.85 175.73 306.73"/><polygon class="b" points="175.73 196.1 175.73 100.34 148.09 148.22 175.73 196.1"/><polygon class="b" points="210.81 146.22 266.13 146.22 183.16 98.32 210.81 146.22"/><polygon class="b" points="363.87 198.03 336.26 150.22 281.06 150.22 363.87 198.03"/><polygon class="b" points="172.23 751.16 144.63 703.35 89.42 703.35 172.23 751.16"/><polygon class="b" points="175.73 749.23 175.73 653.47 148.09 701.35 175.73 749.23"/><polygon class="b" points="175.73 638.61 175.73 542.85 148.09 590.73 175.73 638.61"/><polygon class="b" points="175.73 527.98 175.73 432.22 148.09 480.1 175.73 527.98"/><polygon class="b" points="172.23 640.54 144.63 592.73 89.42 592.73 172.23 640.54"/><polygon class="b" points="179.76 196.01 207.35 148.22 179.76 100.43 179.76 196.01"/><polygon class="b" points="83.93 155.72 83.93 251.34 111.53 203.53 83.93 155.72"/><polygon class="b" points="83.93 266.34 83.93 361.96 111.53 314.15 83.93 266.34"/><polygon class="b" points="83.93 376.97 83.93 472.59 111.53 424.78 83.93 376.97"/><polygon class="b" points="306.63 90.9 361.92 90.9 335.51 75.65 278.99 43.02 306.63 90.9"/><polygon class="b" points="83.93 45.09 83.93 140.71 111.53 92.9 83.93 45.09"/><polygon class="b" points="432.08 90.9 459.7 43.07 403.26 75.65 376.85 90.9 432.08 90.9"/><polygon class="b" points="83.93 487.6 83.93 583.22 111.53 535.41 83.93 487.6"/><polygon class="b" points="83.93 930.1 83.93 1025.72 111.53 977.91 83.93 930.1"/><polygon class="b" points="594.09 1035.23 566.46 1083.09 629.47 1046.71 649.35 1035.23 594.09 1035.23"/><polygon class="b" points="83.93 708.85 83.93 804.47 111.53 756.66 83.93 708.85"/><polygon class="b" points="83.93 598.22 83.93 693.84 111.53 646.03 83.93 598.22"/><polygon class="b" points="83.93 819.47 83.93 915.1 111.53 867.28 83.93 819.47"/><polygon class="b" points="1010.46 314.15 1038.11 362.06 1038.11 266.25 1010.46 314.15"/><polygon class="b" points="951.76 312.15 1006.99 312.15 1034.61 264.32 993.21 288.22 951.76 312.15"/><polygon class="b" points="1042.11 930.1 1042.11 1025.72 1069.71 977.91 1042.11 930.1"/><polygon class="b" points="951.76 422.78 1006.99 422.78 1034.61 374.95 951.76 422.78"/><polygon class="b" points="951.76 533.41 1006.99 533.41 1034.61 485.57 951.76 533.41"/><polygon class="b" points="1010.46 424.78 1038.11 472.68 1038.11 376.88 1010.46 424.78"/><polygon class="b" points="1010.46 92.9 1038.11 140.8 1038.11 45 1010.46 92.9"/><polygon class="b" points="881.54 90.9 936.83 90.9 895.38 66.97 853.9 43.02 881.54 90.9"/><polygon class="b" points="1010.46 203.53 1038.11 251.43 1038.11 155.63 1010.46 203.53"/><polygon class="b" points="815.35 90.9 842.97 43.07 801.57 66.97 760.12 90.9 815.35 90.9"/><polygon class="b" points="951.76 201.53 1006.99 201.53 1034.61 153.69 993.21 177.59 951.76 201.53"/><polygon class="b" points="623.72 90.9 651.33 43.07 587.27 80.06 568.48 90.9 623.72 90.9"/><polygon class="b" points="79.93 598.13 52.27 646.03 79.93 693.93 79.93 598.13"/><polygon class="b" points="79.93 930.01 52.27 977.91 79.93 1025.81 79.93 930.01"/><polygon class="b" points="79.93 487.5 52.27 535.41 79.93 583.31 79.93 487.5"/><polygon class="b" points="1010.46 535.41 1038.11 583.31 1038.11 487.5 1010.46 535.41"/><polygon class="b" points="204.09 1075.64 185.21 1086.54 240.44 1086.54 268.06 1038.7 204.09 1075.64"/><polygon class="b" points="79.93 708.76 52.27 756.66 79.93 804.56 79.93 708.76"/><polygon class="b" points="79.93 819.38 52.27 867.28 79.93 915.19 79.93 819.38"/><polygon class="b" points="973.62 1073.91 951.76 1086.54 1006.99 1086.54 1034.61 1038.7 973.62 1073.91"/><polygon class="b" points="598.96 1068.94 568.48 1086.54 623.72 1086.54 651.33 1038.7 598.96 1068.94"/><polygon class="b" points="402.41 1071.78 376.85 1086.54 432.08 1086.54 459.7 1038.7 402.41 1071.78"/><polygon class="b" points="1042.11 819.47 1042.11 915.1 1069.71 867.28 1042.11 819.47"/><polygon class="b" points="781.99 1073.91 760.12 1086.54 815.35 1086.54 842.97 1038.7 781.99 1073.91"/><polygon class="b" points="1042.11 487.6 1042.11 583.22 1069.71 535.41 1042.11 487.6"/><polygon class="b" points="1042.11 376.97 1042.11 472.59 1069.71 424.78 1042.11 376.97"/><polygon class="b" points="1042.11 598.22 1042.11 693.84 1069.71 646.03 1042.11 598.22"/><polygon class="b" points="1042.11 708.85 1042.11 804.47 1069.71 756.66 1042.11 708.85"/><polygon class="b" points="1042.11 266.34 1042.11 361.96 1069.71 314.15 1042.11 266.34"/><polygon class="b" points="79.93 45 52.27 92.9 79.93 140.8 79.93 45"/><polygon class="b" points="1042.11 155.72 1042.11 251.34 1069.71 203.53 1042.11 155.72"/><polygon class="b" points="79.93 155.63 52.27 203.53 79.93 251.43 79.93 155.63"/><polygon class="b" points="79.93 266.25 52.27 314.15 79.93 362.06 79.93 266.25"/><polygon class="b" points="79.93 376.88 52.27 424.78 79.93 472.68 79.93 376.88"/><polygon class="b" points="1042.11 45.09 1042.11 140.71 1069.71 92.9 1042.11 45.09"/><polygon class="b" points="170.28 754.66 151.41 743.76 87.35 706.78 115 754.66 170.28 754.66"/><polygon class="b" points="463.2 140.8 463.2 45 435.55 92.9 463.2 140.8"/><polygon class="b" points="87.35 43.02 115 90.9 170.28 90.9 87.35 43.02"/><polygon class="b" points="170.26 94.9 115 94.9 87.37 142.76 170.26 94.9"/><polygon class="b" points="279 142.76 361.89 94.9 306.63 94.9 279 142.76"/><polygon class="b" points="275.56 140.71 303.17 92.9 275.56 45.09 275.56 140.71"/><polygon class="b" points="240.44 90.9 268.06 43.07 185.21 90.9 240.44 90.9"/><polygon class="b" points="170.28 422.78 87.35 374.9 115 422.78 170.28 422.78"/><polygon class="b" points="170.26 316.15 115 316.15 87.37 364.01 170.26 316.15"/><polygon class="b" points="170.28 312.15 137 292.94 87.35 264.27 115 312.15 170.28 312.15"/><polygon class="b" points="170.28 201.53 136.9 182.26 87.35 153.65 115 201.53 170.28 201.53"/><polygon class="b" points="170.26 205.53 115 205.53 87.37 253.38 170.26 205.53"/><polygon class="b" points="853.91 142.76 936.8 94.9 881.54 94.9 853.91 142.76"/><polygon class="b" points="977.36 482.1 949.73 529.96 970.79 517.8 1032.62 482.1 977.36 482.1"/><polygon class="b" points="498.27 90.9 553.56 90.9 470.63 43.02 498.27 90.9"/><polygon class="b" points="977.36 260.85 949.73 308.7 991.21 284.76 1032.62 260.85 977.36 260.85"/><polygon class="b" points="977.36 924.61 949.73 972.46 970.79 960.3 1032.62 924.61 977.36 924.61"/><polygon class="b" points="977.36 813.98 949.73 861.84 991.21 837.89 1032.62 813.98 977.36 813.98"/><polygon class="b" points="977.36 371.47 949.73 419.33 970.79 407.17 1032.62 371.47 977.36 371.47"/><polygon class="b" points="170.26 426.78 115 426.78 87.37 474.64 170.26 426.78"/><polygon class="b" points="689.91 90.9 745.19 90.9 662.26 43.02 689.91 90.9"/><polygon class="b" points="654.84 140.8 654.84 45 627.18 92.9 654.84 140.8"/><polygon class="b" points="850.48 140.71 878.08 92.9 850.48 45.09 850.48 140.71"/><polygon class="b" points="846.48 140.8 846.48 45 818.82 92.9 846.48 140.8"/><polygon class="b" points="951.76 754.66 1006.99 754.66 1034.61 706.82 973.62 742.03 951.76 754.66"/><polygon class="b" points="951.76 975.91 1006.99 975.91 1034.61 928.08 951.76 975.91"/><polygon class="b" points="977.36 1035.23 949.73 1083.09 1032.62 1035.23 977.36 1035.23"/><polygon class="b" points="1010.46 977.91 1038.11 1025.81 1038.11 930.01 1010.46 977.91"/><polygon class="b" points="566.43 983.33 594.09 1031.23 649.4 1031.23 566.43 983.33"/><polygon class="b" points="785.72 1035.23 758.09 1083.09 840.98 1035.23 785.72 1035.23"/><polygon class="b" points="951.76 865.28 1006.99 865.28 1034.61 817.45 993.21 841.35 951.76 865.28"/><polygon class="b" points="1010.46 867.28 1038.11 915.19 1038.11 819.38 1010.46 867.28"/><polygon class="b" points="1010.46 646.03 1038.11 693.93 1038.11 598.13 1010.46 646.03"/><polygon class="b" points="951.76 644.03 1006.99 644.03 1034.61 596.2 973.62 631.41 951.76 644.03"/><polygon class="b" points="563.03 985.44 563.03 1081.02 590.62 1033.23 563.03 985.44"/><polygon class="b" points="1010.46 756.66 1038.11 804.56 1038.11 708.76 1010.46 756.66"/><polygon class="b" points="170.28 533.41 87.35 485.53 115 533.41 170.28 533.41"/><polygon class="b" points="949.7 983.33 977.36 1031.23 1032.67 1031.23 949.7 983.33"/><polygon class="b" points="170.26 648.03 115 648.03 87.37 695.89 170.26 648.03"/><polygon class="b" points="402.45 1035.23 374.82 1083.09 457.71 1035.23 402.45 1035.23"/><polygon class="b" points="170.26 537.41 115 537.41 87.37 585.26 170.26 537.41"/><polygon class="b" points="170.26 758.66 115 758.66 87.37 806.51 170.26 758.66"/><polygon class="b" points="170.28 644.03 151.41 633.13 87.35 596.15 115 644.03 170.28 644.03"/><polygon class="b" points="170.26 979.91 115 979.91 87.37 1027.77 170.26 979.91"/><polygon class="b" points="170.28 865.28 137 846.07 87.35 817.4 115 865.28 170.28 865.28"/><polygon class="b" points="210.81 1035.23 183.19 1083.09 266.07 1035.23 210.81 1035.23"/><polygon class="b" points="170.26 869.28 115 869.28 87.37 917.14 170.26 869.28"/><polygon class="b" points="170.28 975.91 87.35 928.03 115 975.91 170.28 975.91"/><polygon class="b" points="268.06 374.95 185.21 422.78 240.44 422.78 268.06 374.95"/><polygon class="b" points="266.13 367.47 183.16 319.57 210.81 367.47 266.13 367.47"/><polygon class="b" points="818.82 646.03 846.48 693.93 846.48 598.13 818.82 646.03"/><polygon class="b" points="237.75 277.2 266.07 260.85 210.81 260.85 183.19 308.7 237.75 277.2"/><polygon class="b" points="336.26 256.85 363.89 208.99 281 256.85 336.26 256.85"/><polygon class="b" points="271.56 251.43 271.56 155.63 243.91 203.53 271.56 251.43"/><polygon class="b" points="818.82 756.66 846.48 804.56 846.48 708.76 818.82 756.66"/><polygon class="b" points="266.13 256.85 183.16 208.95 210.81 256.85 266.13 256.85"/><polygon class="b" points="566.43 762.08 594.09 809.98 649.4 809.98 566.43 762.08"/><polygon class="b" points="563.03 764.19 563.03 859.77 590.62 811.98 563.03 764.19"/><polygon class="b" points="520.28 846.07 470.63 817.4 498.27 865.28 553.56 865.28 520.28 846.07"/><polygon class="b" points="208.1 404.95 266.07 371.47 210.81 371.47 183.19 419.33 208.1 404.95"/><polygon class="b" points="719.54 813.98 664.33 813.98 669.75 817.11 747.14 861.79 719.54 813.98"/><polygon class="b" points="785.72 813.98 758.09 861.84 799.57 837.89 840.98 813.98 785.72 813.98"/><polygon class="b" points="853.9 374.9 881.54 422.78 936.83 422.78 853.9 374.9"/><polygon class="b" points="881.54 537.41 853.91 585.26 936.8 537.41 881.54 537.41"/><polygon class="b" points="881.54 426.78 853.91 474.64 936.8 426.78 881.54 426.78"/><polygon class="b" points="853.9 485.53 881.54 533.41 936.83 533.41 853.9 485.53"/><polygon class="b" points="881.54 648.03 853.91 695.89 936.8 648.03 881.54 648.03"/><polygon class="b" points="881.54 869.28 853.91 917.14 936.8 869.28 881.54 869.28"/><polygon class="b" points="881.54 758.66 853.91 806.51 936.8 758.66 881.54 758.66"/><polygon class="b" points="881.54 316.15 853.91 364.01 936.8 316.15 881.54 316.15"/><polygon class="b" points="594.09 256.85 649.4 256.85 566.43 208.95 594.09 256.85"/><polygon class="b" points="470.64 253.38 553.53 205.53 498.27 205.53 470.64 253.38"/><polygon class="b" points="662.28 253.38 745.17 205.53 689.91 205.53 662.28 253.38"/><polygon class="b" points="467.2 819.47 467.2 915.1 494.81 867.28 467.2 819.47"/><polygon class="b" points="402.45 256.85 457.76 256.85 374.8 208.95 402.45 256.85"/><polygon class="b" points="785.72 256.85 841.04 256.85 758.07 208.95 785.72 256.85"/><polygon class="b" points="855.91 920.61 911.17 920.61 938.8 872.75 855.91 920.61"/><polygon class="b" points="307.92 834.11 278.99 817.4 306.63 865.28 361.92 865.28 307.92 834.11"/><polygon class="b" points="275.56 819.47 275.56 915.1 303.17 867.28 275.56 819.47"/><polygon class="b" points="266.13 478.1 183.16 430.2 210.81 478.1 266.13 478.1"/><polygon class="b" points="758.07 872.7 785.72 920.61 841.04 920.61 758.07 872.7"/><polygon class="b" points="754.67 874.82 754.67 970.39 782.26 922.61 754.67 874.82"/><polygon class="b" points="750.64 874.73 723 922.61 750.64 970.48 750.64 874.73"/><polygon class="b" points="855.97 813.98 897.38 837.89 938.78 861.79 911.17 813.98 855.97 813.98"/><polygon class="b" points="855.97 592.73 938.78 640.54 911.17 592.73 855.97 592.73"/><polygon class="b" points="855.91 588.73 911.17 588.73 938.8 540.87 855.91 588.73"/><polygon class="b" points="855.91 699.35 911.17 699.35 938.8 651.5 855.91 699.35"/><polygon class="b" points="855.91 809.98 911.17 809.98 938.8 762.12 855.91 809.98"/><polygon class="b" points="855.97 703.35 938.78 751.16 911.17 703.35 855.97 703.35"/><polygon class="b" points="747.17 872.75 664.28 920.61 719.54 920.61 747.17 872.75"/><polygon class="b" points="815.35 869.28 760.15 869.28 842.96 917.1 815.35 869.28"/><polygon class="b" points="266.07 592.73 210.81 592.73 183.19 640.58 266.07 592.73"/><polygon class="b" points="266.13 699.35 183.16 651.45 210.81 699.35 266.13 699.35"/><polygon class="b" points="623.72 869.28 568.51 869.28 651.32 917.1 623.72 869.28"/><polygon class="b" points="208.1 515.57 266.07 482.1 210.81 482.1 183.19 529.96 208.1 515.57"/><polygon class="b" points="266.07 703.35 210.81 703.35 183.19 751.21 266.07 703.35"/><polygon class="b" points="266.13 588.73 183.16 540.82 210.81 588.73 266.13 588.73"/><polygon class="b" points="402.45 813.98 374.82 861.84 407.78 842.81 457.71 813.98 402.45 813.98"/><polygon class="b" points="374.8 872.7 402.45 920.61 457.76 920.61 374.8 872.7"/><polygon class="b" points="527.9 924.61 472.69 924.61 530.67 958.08 555.5 972.42 527.9 924.61"/><polygon class="b" points="371.4 874.82 371.4 970.39 398.99 922.61 371.4 874.82"/><polygon class="b" points="336.26 924.61 281.06 924.61 346.01 962.1 363.87 972.42 336.26 924.61"/><polygon class="b" points="237.75 830.34 266.07 813.98 210.81 813.98 183.19 861.84 237.75 830.34"/><polygon class="b" points="266.13 809.98 183.16 762.08 210.81 809.98 266.13 809.98"/><polygon class="b" points="850.48 376.97 850.48 472.59 878.08 424.78 850.48 376.97"/><polygon class="b" points="850.48 708.85 850.48 804.47 878.08 756.66 850.48 708.85"/><polygon class="b" points="559.01 306.73 559.01 210.97 531.36 258.85 559.01 306.73"/><polygon class="b" points="850.48 598.22 850.48 693.84 878.08 646.03 850.48 598.22"/><polygon class="b" points="850.48 487.6 850.48 583.22 878.08 535.41 850.48 487.6"/><polygon class="b" points="719.54 256.85 747.17 208.99 664.28 256.85 719.54 256.85"/><polygon class="b" points="850.48 819.47 850.48 915.1 878.08 867.28 850.48 819.47"/><polygon class="b" points="717.71 849.41 662.26 817.4 689.91 865.28 745.19 865.28 717.71 849.41"/><polygon class="b" points="754.67 306.64 782.26 258.85 754.67 211.06 754.67 306.64"/><polygon class="b" points="669.75 263.98 747.14 308.66 719.54 260.85 664.33 260.85 669.75 263.98"/><polygon class="b" points="758.09 308.7 799.57 284.76 840.98 260.85 785.72 260.85 758.09 308.7"/><polygon class="b" points="850.48 266.34 850.48 361.96 878.08 314.15 850.48 266.34"/><polygon class="b" points="623.72 312.15 651.33 264.32 644.46 268.29 568.48 312.15 623.72 312.15"/><polygon class="b" points="855.97 482.1 917.8 517.8 938.78 529.91 911.17 482.1 855.97 482.1"/><polygon class="b" points="846.48 819.38 818.82 867.28 846.48 915.19 846.48 819.38"/><polygon class="b" points="271.56 472.68 271.56 376.88 243.91 424.78 271.56 472.68"/><polygon class="b" points="271.56 362.06 271.56 266.25 243.91 314.15 271.56 362.06"/><polygon class="b" points="271.56 583.31 271.56 487.5 243.91 535.41 271.56 583.31"/><polygon class="b" points="271.56 693.93 271.56 598.13 243.91 646.03 271.56 693.93"/><polygon class="b" points="432.08 312.15 459.7 264.32 430.85 280.98 376.85 312.15 432.08 312.15"/><polygon class="b" points="306.63 312.15 361.92 312.15 307.92 280.98 278.99 264.27 306.63 312.15"/><polygon class="b" points="271.56 915.19 271.56 819.38 243.91 867.28 271.56 915.19"/><polygon class="b" points="498.27 869.28 470.64 917.14 553.53 869.28 498.27 869.28"/><polygon class="b" points="594.09 813.98 566.46 861.84 593.38 846.29 649.35 813.98 594.09 813.98"/><polygon class="b" points="463.2 819.38 435.55 867.28 463.2 915.19 463.2 819.38"/><polygon class="b" points="658.84 819.47 658.84 915.1 686.44 867.28 658.84 819.47"/><polygon class="b" points="306.63 869.28 279 917.14 361.89 869.28 306.63 869.28"/><polygon class="b" points="271.56 804.56 271.56 708.76 243.91 756.66 271.56 804.56"/><polygon class="b" points="818.82 424.78 846.48 472.68 846.48 376.88 818.82 424.78"/><polygon class="b" points="268.05 806.47 240.44 758.66 185.24 758.66 268.05 806.47"/><polygon class="b" points="363.89 872.75 281 920.61 336.26 920.61 363.89 872.75"/><polygon class="b" points="268.05 695.84 240.44 648.03 185.24 648.03 268.05 695.84"/><polygon class="b" points="268.05 917.1 240.44 869.28 185.24 869.28 268.05 917.1"/><polygon class="b" points="268.05 585.22 240.44 537.41 185.24 537.41 268.05 585.22"/><polygon class="b" points="268.06 485.57 185.21 533.41 240.44 533.41 268.06 485.57"/><polygon class="b" points="818.82 535.41 846.48 583.31 846.48 487.5 818.82 535.41"/><polygon class="b" points="367.37 874.73 339.73 922.61 367.37 970.48 367.37 874.73"/><polygon class="b" points="268.05 474.59 240.44 426.78 185.24 426.78 268.05 474.59"/><polygon class="b" points="654.84 819.38 627.18 867.28 654.84 915.19 654.84 819.38"/><polygon class="b" points="559.01 874.73 531.36 922.61 559.01 970.48 559.01 874.73"/><polygon class="b" points="432.08 869.28 376.87 869.28 459.69 917.1 432.08 869.28"/><polygon class="b" points="555.53 872.75 472.64 920.61 527.9 920.61 555.53 872.75"/><polygon class="b" points="815.35 312.15 842.97 264.32 801.57 288.22 760.12 312.15 815.35 312.15"/><polygon class="b" points="361.89 537.41 306.63 537.41 279 585.26 361.89 537.41"/><polygon class="b" points="527.9 256.85 555.53 208.99 472.64 256.85 527.9 256.85"/><polygon class="b" points="818.82 314.15 846.48 362.06 846.48 266.25 818.82 314.15"/><polygon class="b" points="566.46 308.7 593.38 293.16 649.35 260.85 594.09 260.85 566.46 308.7"/><polygon class="b" points="750.64 306.73 750.64 210.97 723 258.85 750.64 306.73"/><polygon class="b" points="563.03 306.64 590.62 258.85 563.03 211.06 563.03 306.64"/><polygon class="b" points="374.82 308.7 407.78 289.68 457.71 260.85 402.45 260.85 374.82 308.7"/><polygon class="b" points="268.05 363.96 240.44 316.15 185.24 316.15 268.05 363.96"/><polygon class="b" points="689.91 869.28 662.28 917.14 745.17 869.28 689.91 869.28"/><polygon class="b" points="371.4 306.64 398.99 258.85 371.4 211.06 371.4 306.64"/><polygon class="b" points="330.99 289.68 363.87 308.66 336.26 260.85 281.06 260.85 330.99 289.68"/><polygon class="b" points="367.37 306.73 367.37 210.97 339.73 258.85 367.37 306.73"/><polygon class="b" points="914.64 590.73 942.28 638.61 942.28 542.85 914.64 590.73"/><polygon class="b" points="785.72 924.61 758.09 972.46 779.15 960.3 840.98 924.61 785.72 924.61"/><polygon class="b" points="563.03 874.82 563.03 970.39 590.62 922.61 563.03 874.82"/><polygon class="b" points="371.4 764.19 371.4 859.77 398.99 811.98 371.4 764.19"/><polygon class="b" points="719.54 924.61 664.33 924.61 717.19 955.12 747.14 972.42 719.54 924.61"/><polygon class="b" points="914.64 811.98 942.28 859.86 942.28 764.1 914.64 811.98"/><polygon class="b" points="914.64 922.61 942.28 970.48 942.28 874.73 914.64 922.61"/><polygon class="b" points="914.64 369.47 942.28 417.35 942.28 321.6 914.64 369.47"/><polygon class="b" points="914.64 701.35 942.28 749.23 942.28 653.47 914.64 701.35"/><polygon class="b" points="760.12 533.41 815.35 533.41 842.97 485.57 760.12 533.41"/><polygon class="b" points="914.64 480.1 942.28 527.98 942.28 432.22 914.64 480.1"/><polygon class="b" points="501.02 277.2 555.5 308.66 527.9 260.85 472.69 260.85 501.02 277.2"/><polygon class="b" points="566.43 872.7 594.09 920.61 649.4 920.61 566.43 872.7"/><polygon class="b" points="594.09 924.61 566.46 972.46 581.88 963.56 649.35 924.61 594.09 924.61"/><polygon class="b" points="207.35 590.73 179.76 542.94 179.76 638.51 207.35 590.73"/><polygon class="b" points="207.35 701.35 179.76 653.57 179.76 749.14 207.35 701.35"/><polygon class="b" points="207.35 369.47 179.76 321.69 179.76 417.26 207.35 369.47"/><polygon class="b" points="207.35 258.85 179.76 211.06 179.76 306.64 207.35 258.85"/><polygon class="b" points="210.81 924.61 183.19 972.46 208.1 958.08 266.07 924.61 210.81 924.61"/><polygon class="b" points="402.45 924.61 374.82 972.46 392.76 962.1 457.71 924.61 402.45 924.61"/><polygon class="b" points="207.35 811.98 179.76 764.19 179.76 859.77 207.35 811.98"/><polygon class="b" points="336.26 813.98 281.06 813.98 330.99 842.81 363.87 861.79 336.26 813.98"/><polygon class="b" points="361.89 758.66 306.63 758.66 279 806.51 361.89 758.66"/><polygon class="b" points="207.35 922.61 179.76 874.82 179.76 970.39 207.35 922.61"/><polygon class="b" points="207.35 480.1 179.76 432.31 179.76 527.89 207.35 480.1"/><polygon class="b" points="623.72 201.53 651.33 153.69 643.56 158.18 568.48 201.53 623.72 201.53"/><polygon class="b" points="432.08 201.53 459.7 153.69 430.61 170.49 376.85 201.53 432.08 201.53"/><polygon class="b" points="527.9 813.98 472.69 813.98 501.02 830.34 555.5 861.79 527.9 813.98"/><polygon class="b" points="623.72 758.66 568.51 758.66 651.32 806.47 623.72 758.66"/><polygon class="b" points="374.8 762.08 402.45 809.98 457.76 809.98 374.8 762.08"/><polygon class="b" points="470.63 928.03 498.27 975.91 553.56 975.91 470.63 928.03"/><polygon class="b" points="306.63 201.53 361.92 201.53 308.16 170.49 278.99 153.65 306.63 201.53"/><polygon class="b" points="855.91 478.1 911.17 478.1 938.8 430.24 855.91 478.1"/><polygon class="b" points="467.2 930.1 467.2 1025.72 494.81 977.91 467.2 930.1"/><polygon class="b" points="815.35 201.53 842.97 153.69 801.57 177.59 760.12 201.53 815.35 201.53"/><polygon class="b" points="278.99 928.03 306.63 975.91 361.92 975.91 278.99 928.03"/><polygon class="b" points="760.15 648.03 842.96 695.84 815.35 648.03 760.15 648.03"/><polygon class="b" points="914.64 258.85 942.28 306.73 942.28 210.97 914.64 258.85"/><polygon class="b" points="781.99 742.03 760.12 754.66 815.35 754.66 842.97 706.82 781.99 742.03"/><polygon class="b" points="781.99 631.41 760.12 644.03 815.35 644.03 842.97 596.2 781.99 631.41"/><polygon class="b" points="760.15 537.41 842.96 585.22 815.35 537.41 760.15 537.41"/><polygon class="b" points="275.56 930.1 275.56 1025.72 303.17 977.91 275.56 930.1"/><polygon class="b" points="881.54 201.53 936.83 201.53 895.38 177.59 853.9 153.65 881.54 201.53"/><polygon class="b" points="754.67 764.19 754.67 859.77 782.26 811.98 754.67 764.19"/><polygon class="b" points="750.64 764.1 723 811.98 750.64 859.86 750.64 764.1"/><polygon class="b" points="747.17 762.12 664.28 809.98 719.54 809.98 747.17 762.12"/><polygon class="b" points="758.07 762.08 785.72 809.98 841.04 809.98 758.07 762.08"/><polygon class="b" points="760.15 758.66 842.96 806.47 815.35 758.66 760.15 758.66"/><polygon class="b" points="689.91 201.53 745.19 201.53 717.56 185.57 662.26 153.65 689.91 201.53"/><polygon class="b" points="654.84 251.43 654.84 155.63 627.18 203.53 654.84 251.43"/><polygon class="b" points="498.27 201.53 553.56 201.53 520.18 182.26 470.63 153.65 498.27 201.53"/><polygon class="b" points="463.2 362.06 463.2 266.25 435.55 314.15 463.2 362.06"/><polygon class="b" points="279 364.01 361.89 316.15 306.63 316.15 279 364.01"/><polygon class="b" points="498.27 312.15 553.56 312.15 520.28 292.94 470.63 264.27 498.27 312.15"/><polygon class="b" points="689.91 312.15 745.19 312.15 717.71 296.28 662.26 264.27 689.91 312.15"/><polygon class="b" points="654.84 362.06 654.84 266.25 627.18 314.15 654.84 362.06"/><polygon class="b" points="463.2 251.43 463.2 155.63 435.55 203.53 463.2 251.43"/><polygon class="b" points="275.56 376.97 275.56 472.59 303.17 424.78 275.56 376.97"/><polygon class="b" points="855.91 367.47 911.17 367.47 938.8 319.62 855.91 367.47"/><polygon class="b" points="275.56 708.85 275.56 804.47 303.17 756.66 275.56 708.85"/><polygon class="b" points="275.56 487.6 275.56 583.22 303.17 535.41 275.56 487.6"/><polygon class="b" points="855.97 260.85 897.38 284.76 938.78 308.66 911.17 260.85 855.97 260.85"/><polygon class="b" points="855.97 371.47 917.8 407.17 938.78 419.29 911.17 371.47 855.97 371.47"/><polygon class="b" points="760.12 422.78 815.35 422.78 842.97 374.95 760.12 422.78"/><polygon class="b" points="853.91 253.38 936.8 205.53 881.54 205.53 853.91 253.38"/><polygon class="b" points="846.48 251.43 846.48 155.63 818.82 203.53 846.48 251.43"/><polygon class="b" points="275.56 598.22 275.56 693.84 303.17 646.03 275.56 598.22"/><polygon class="b" points="850.48 251.34 878.08 203.53 850.48 155.72 850.48 251.34"/><polygon class="b" points="855.91 256.85 911.17 256.85 938.8 208.99 855.91 256.85"/><polygon class="b" points="853.9 928.03 881.54 975.91 936.83 975.91 853.9 928.03"/><polygon class="b" points="275.56 251.34 303.17 203.53 275.56 155.72 275.56 251.34"/><polygon class="b" points="750.64 196.1 750.64 100.34 723 148.22 750.64 196.1"/><polygon class="b" points="361.92 644.03 336.36 629.27 278.99 596.15 306.63 644.03 361.92 644.03"/><polygon class="b" points="240.44 201.53 268.06 153.69 218.59 182.26 185.21 201.53 240.44 201.53"/><polygon class="b" points="361.92 754.66 336.36 739.9 278.99 706.78 306.63 754.66 361.92 754.66"/><polygon class="b" points="361.89 648.03 306.63 648.03 279 695.89 361.89 648.03"/><polygon class="b" points="878.08 977.91 850.48 930.1 850.48 1025.72 878.08 977.91"/><polygon class="b" points="760.15 426.78 842.96 474.59 815.35 426.78 760.15 426.78"/><polygon class="b" points="559.01 196.1 559.01 100.34 531.36 148.22 559.01 196.1"/><polygon class="b" points="279 253.38 361.89 205.53 306.63 205.53 279 253.38"/><polygon class="b" points="555.5 198.03 527.9 150.22 472.69 150.22 555.5 198.03"/><polygon class="b" points="747.14 198.03 719.54 150.22 664.33 150.22 747.14 198.03"/><path class="c" d="M20.84,0h-8L74.49,35.6H19.18L0,2.38v8L15.71,37.6,0,64.81v8L19.18,39.6H74.44L0,82.57v4.62L20,75.65,76.43,43.07,48.81,90.9H0v4H48.81l27.6,47.81L0,98.6v4.62l74.49,43H19.18L0,113v8l15.71,27.22L0,175.44v8l19.18-33.22H74.44L0,193.2v4.62l47.34-27.33,29.09-16.79L48.81,201.53H0v4H48.81l27.6,47.81L0,209.22v4.62l74.49,43H19.18L0,223.63v8l15.71,27.22L0,286.07v8l19.18-33.22H74.44L24.5,289.68,0,303.83v4.62L47.57,281l28.85-16.66L48.81,312.15H0v4H48.81L76.41,364,0,319.85v4.62l74.49,43H19.18L0,334.26v8l15.71,27.22L0,396.69v8l19.18-33.22H74.44L9.49,409,0,414.45v4.62l76.43-44.12L48.81,422.78H0v4H48.81l27.6,47.81L0,430.47v4.62l74.49,43H19.18L0,444.88v8L15.71,480.1,0,507.32v8L19.18,482.1H74.44l-65,37.5L0,525.08v4.62l76.43-44.12L48.81,533.41H0v4H48.81l27.6,47.81L0,541.1v4.62l74.49,43H19.18L0,555.51v8l15.71,27.22L0,617.94v8l19.18-33.22H74.44L0,635.7v4.62l19.14-11L76.43,596.2,48.81,644H0v4H48.81l27.6,47.81L0,651.73v4.62l74.49,43H19.18L0,666.13v8l15.71,27.22L0,728.57v8l19.18-33.22H74.44L0,746.33v4.62l19.14-11,57.29-33.07L48.81,754.66H0v4H48.81l27.6,47.81L0,762.35V767l74.49,43H19.18L0,776.76v8L15.71,812,0,839.2v8L19.18,814H74.44L24.5,842.81,0,857v4.62l47.57-27.47,28.85-16.66L48.81,865.28H0v4H48.81l27.6,47.81L0,873v4.62l74.49,43H19.18L0,887.39v8l15.71,27.22L0,949.82v8l19.18-33.22H74.44l-65,37.5L0,967.58v4.62l76.43-44.12L48.81,975.91H0v4H48.81l27.6,47.81L0,983.6v4.62l74.49,43H19.18L0,998v8l15.71,27.22L0,1060.45v8l19.18-33.22H74.44L0,1078.21v4.62l19.14-11,57.29-33.07-27.62,47.83H0v4H48.81L67,1122h4.62l-19.32-33.46,27.66-47.9V1122h4v-81.27l27.6,47.81L92.21,1122h4.62L115,1090.54h55.26L115.76,1122h8l48.5-28-16.17,28h4.62l15-26v26h4v-25.93l15,25.93h4.62l-16.19-28,48.58,28h8l-54.5-31.46h55.21L258.61,1122h4.62l-19.32-33.46,27.66-47.9V1122h4v-81.27l27.6,47.81L283.85,1122h4.62l18.17-31.46h55.26L307.4,1122h8l48.5-28-16.17,28h4.62l15-26v26h4v-25.93l15,25.93H391l-16.19-28,48.58,28h8l-54.5-31.46h55.21L450.25,1122h4.62l-19.32-33.46,27.66-47.9V1122h4v-81.27l27.6,47.81L475.49,1122h4.62l18.17-31.46h55.26L499,1122h8l48.5-28-16.17,28H544l15-26v26h4v-25.93L578,1122h4.62l-16.19-28L615,1122h8l-54.5-31.46h55.21L641.88,1122h4.62l-19.32-33.46,27.66-47.9V1122h4v-81.27l27.6,47.81L667.12,1122h4.62l18.17-31.46h55.26L690.67,1122h8l48.5-28L731,1122h4.62l15-26v26h4v-25.93l15,25.93h4.62l-16.19-28,48.58,28h8l-54.5-31.46h55.21L833.52,1122h4.62l-19.32-33.46,27.66-47.9V1122h4v-81.27l27.6,47.81L858.76,1122h4.62l18.17-31.46H936.8L882.31,1122h8l48.5-28-16.17,28h4.62l15-26v26h4v-25.93l15,25.93h4.62l-16.19-28,48.58,28h8l-54.5-31.46H1007l18.17,31.46h4.62l-19.32-33.46,27.66-47.9V1122h4v-81.27l27.6,47.81L1050.39,1122H1055l18.17-31.46H1122v-4h-48.82l-27.64-47.88,61.06,35.26,15.4,8.89v-4.62l-74.4-43h55.21l19.19,33.24v-8l-15.73-27.24L1122,1006v-8l-19.19,33.24h-55.26l74.45-43v-4.62l-76.45,44.14,27.63-47.86H1122v-4h-48.82L1045.54,928,1122,972.18v-4.62l-12.57-7.25-61.83-35.7h55.21L1122,957.85v-8l-15.73-27.24L1122,895.36v-8l-19.19,33.24h-55.26l74.45-43V873l-76.45,44.14,27.63-47.86H1122v-4h-48.82l-27.64-47.88L1087,841.35l35,20.2v-4.62l-33-19L1047.6,814h55.21L1122,847.22v-8L1106.27,812,1122,784.74v-8L1102.81,810h-55.26L1122,767v-4.62l-76.45,44.14,27.63-47.86H1122v-4h-48.82l-27.64-47.88L1106.6,742l15.4,8.89v-4.62l-74.4-43h55.21L1122,736.59v-8l-15.73-27.24L1122,674.11v-8l-19.19,33.24h-55.26l74.45-43v-4.62l-76.45,44.14L1073.18,648H1122v-4h-48.82l-27.64-47.88,61.06,35.26,15.4,8.89v-4.62l-74.4-43h55.21L1122,626v-8l-15.73-27.24L1122,563.49v-8l-19.19,33.24h-55.26l74.45-43v-4.62l-76.45,44.14,27.63-47.86H1122v-4h-48.82l-27.64-47.88L1122,529.67v-4.62l-12.57-7.25-61.83-35.7h55.21L1122,515.34v-8l-15.73-27.24L1122,452.86v-8l-19.19,33.24h-55.26l74.45-43V430.5l-76.45,44.14,27.63-47.86H1122v-4h-48.82l-27.64-47.88L1122,419v-4.62l-12.57-7.25-61.83-35.7h55.21L1122,404.71v-8l-15.73-27.24L1122,342.23v-8l-19.19,33.24h-55.26l74.45-43v-4.62L1045.55,364l27.63-47.86H1122v-4h-48.82l-27.64-47.88L1087,288.22l35,20.2V303.8l-33-19-41.41-23.91h55.21L1122,294.09v-8l-15.73-27.24L1122,231.61v-8l-19.19,33.24h-55.26l74.45-43v-4.62l-76.45,44.14,27.63-47.86H1122v-4h-48.82l-27.64-47.88L1087,177.6l35,20.2v-4.62l-74.4-43h55.21L1122,183.46v-8l-15.73-27.24L1122,121v-8l-19.19,33.24h-55.26l74.45-43V98.62l-76.45,44.14,27.63-47.86H1122v-4h-48.82L1045.54,43,1087,67l35,20.2V82.55l-33-19L1047.6,39.6h55.21L1122,72.84v-8L1106.27,37.6,1122,10.36v-8L1102.81,35.6h-55.26L1109.2,0h-8l-55.65,32.13L1064.1,0h-4.62l-17.37,30.09V0h-4V30.18L1020.69,0h-4.62l18.52,32.09L979,0h-8l61.65,35.6H977.36L956.81,0h-4.62L973.9,37.6,946.31,85.38V0h-4V85.48L914.64,37.6,936.34,0h-4.62L911.17,35.6H855.91L917.57,0h-8L853.91,32.13,872.46,0h-4.62L850.47,30.09V0h-4V30.18L829.05,0h-4.62L843,32.09,787.38,0h-8L841,35.6H785.72L765.17,0h-4.62l21.71,37.6L754.67,85.38V0h-4V85.48L723,37.6,744.71,0h-4.62L719.54,35.6H664.28L725.93,0h-8L662.28,32.13,680.83,0h-4.62L658.84,30.09V0h-4V30.18L637.42,0H632.8l18.52,32.09L595.75,0h-8L649.4,35.6H594.09L573.54,0h-4.62l21.71,37.6L563,85.38V0h-4V85.48L531.36,37.6,553.07,0h-4.62L527.9,35.6H472.64L534.29,0h-8L470.64,32.13,489.19,0h-4.62L467.2,30.09V0h-4V30.18L445.78,0h-4.62l18.52,32.09L404.11,0h-8l61.65,35.6H402.45L381.9,0h-4.62L399,37.6,371.4,85.38V0h-4V85.48L339.73,37.6,361.43,0h-4.62L336.26,35.6H281L342.66,0h-8L279,32.13,297.55,0h-4.62L275.57,30.09V0h-4V30.18L254.14,0h-4.62L268,32.09,212.47,0h-8l61.65,35.6H210.81L190.26,0h-4.62l21.71,37.6L179.76,85.38V0h-4V85.48L148.09,37.6,169.8,0h-4.62L144.63,35.6H89.37L151,0h-8L87.37,32.13,105.92,0H101.3L83.93,30.09V0h-4V30.18L62.51,0H57.89L76.41,32.09ZM144.63,39.6l27.6,47.81L146.52,72.56l-57.1-33Zm66.19,0h55.26l-57.1,33L183.19,87.45Zm125.45,0,27.6,47.81L281.06,39.6Zm66.19,0h55.26L374.82,87.45Zm125.45,0,27.6,47.81L529.79,72.56l-57.1-33Zm66.19,0h55.26L566.46,87.45Zm125.45,0,27.6,47.81L729.37,77.15l-65-37.55Zm66.19,0H841L799.57,63.5,758.09,87.45Zm125.45,0,27.6,47.81-41.4-23.9L856,39.6Zm66.19,0h55.26L991.21,63.5,949.73,87.45ZM881.54,1086.54l-27.64-47.88L915,1073.91l21.87,12.62Zm-191.64,0-27.64-47.88L728.73,1077l16.46,9.5Zm-191.64,0-27.64-47.88,64.05,37,18.88,10.9Zm-191.64,0L279,1038.66l57.36,33.12,25.56,14.76Zm-191.64,0-27.64-47.88,64.05,37,18.88,10.9ZM1034.61,43.07,1007,90.9H951.76L993.21,67ZM432.08,94.9l27.6,47.81L376.87,94.9Zm191.64,0,27.6,47.81L568.51,94.9Zm191.64,0L843,142.71,760.15,94.9Zm191.64,0,27.6,47.81L951.78,94.9Zm0,110.63,27.6,47.81-82.81-47.81Zm0,110.63,27.6,47.81-82.81-47.81Zm0,110.63,27.6,47.81-82.81-47.81Zm0,110.63,27.6,47.81-82.81-47.81ZM1007,648l27.6,47.81L951.78,648Zm0,110.63,27.6,47.81-82.81-47.81Zm0,110.63,27.6,47.81-82.81-47.81Zm0,110.63,27.6,47.81-82.81-47.81ZM240.44,94.9,268,142.71,185.24,94.9ZM467.2,45.09l27.6,47.81-27.6,47.81Zm191.64,0,27.6,47.81-27.6,47.81ZM623.72,975.91H568.48l82.85-47.83ZM89.42,924.61h55.21l27.6,47.81L147.4,958.08Zm0-442.5h55.21l27.6,47.81L147.4,515.57Zm0-110.63h55.21l27.6,47.81L147.4,404.95ZM815.35,975.91H760.12L843,928.08Zm-383.27,0H376.85l82.85-47.83Zm-191.64,0H185.21l82.85-47.83Zm449.46,0L662.26,928l20.83,12,62.1,35.85ZM432.08,205.53l27.6,47.81-82.81-47.81Zm191.64,0,27.6,47.81-82.81-47.81Zm191.64,0L843,253.34l-82.81-47.81ZM917.8,960.3,856,924.61h55.21l27.6,47.81Zm-707-39.7-27.66-47.9,83,47.9Zm29.63-715.08L268,253.34l-82.81-47.81ZM467.2,155.72l27.6,47.81-27.6,47.81Zm191.64,0,27.6,47.81-27.6,47.81Zm278,156.44H881.54L853.9,264.27l41.48,23.95Zm0,331.88H881.54L853.9,596.15,915,631.41Zm0,110.63H881.54L853.9,706.78,915,742Zm0,110.63H881.54L853.9,817.4l41.48,23.95Zm-313.11,0H568.48l76-43.86,6.88-4ZM218.49,846.07l49.57-28.62-27.62,47.83H185.21Zm-14.4-102.31,64-36.94-27.62,47.83H185.21Zm0-110.63,64-36.94L240.44,644H185.21Zm14.4-340.19,49.57-28.62-27.62,47.83H185.21ZM815.35,865.28H760.12l41.45-23.93,41.4-23.9Zm-383.27,0H376.85l54-31.18,28.85-16.66ZM275.57,266.34l27.6,47.81L275.57,362Zm156.52,49.81L459.69,364l-82.81-47.81Zm191.64,0L651.32,364l-82.81-47.81Zm191.64,0L843,364l-82.81-47.81ZM467.2,266.34l27.6,47.81L467.2,362Zm191.64,0,27.6,47.81L658.84,362ZM623.72,754.66H568.48L599,737.07l52.38-30.24Zm-191.64,0H376.85l25.56-14.76,57.29-33.07Zm-151-272.56h55.21l27.6,47.81L346,519.6Zm151-55.32,27.6,47.81-82.81-47.81Zm191.64,0,27.6,47.81-82.81-47.81Zm0,217.25H568.48L599,626.44l52.38-30.24ZM402.45,482.1h55.26l-65,37.5L374.82,530Zm342.74,51.31H689.91l-27.64-47.88,20.83,12Zm0,110.63H689.91l-27.64-47.88,66.47,38.38Zm-313.11,0H376.85l25.56-14.76L459.7,596.2Zm222.76-60.72-27.66-47.9,27.66-47.9Zm-31.12-49.9H568.48l82.85-47.83Zm-125.45,4h55.26l-82.89,47.86Zm29.63,51.32H472.64l82.89-47.86Zm0,4,27.6,47.81-82.81-47.81Zm3.46-2L559,542.85v95.76Zm-33.09-57.32-27.64-47.88,82.93,47.88ZM467.2,487.59l27.6,47.81-27.6,47.81Zm-4,95.71-27.66-47.9,27.66-47.9Zm4,14.91L494.81,646l-27.6,47.81ZM498.27,644l-27.64-47.88,64.05,37L553.56,644ZM623.72,537.41l27.6,47.81-82.81-47.81Zm35.12-49.81,27.6,47.81-27.6,47.81ZM559,528,531.36,480.1,559,432.22ZM527.9,482.1l27.6,47.81-24.83-14.34-58-33.47Zm-68.2,3.47-27.62,47.83H376.85Zm-27.62,51.83,27.6,47.81-82.81-47.81Zm31.12,60.72v95.8L435.55,646ZM498.27,648h55.26l-82.89,47.86ZM563,542.94l27.59,47.79L563,638.51Zm31.05,45.79-27.66-47.9,83,47.9Zm95.82-51.32h55.26l-82.89,47.86Zm-108-16.35L566.46,530l27.63-47.86h55.26ZM563,527.89V432.31l27.59,47.79ZM527.9,478.1H472.64l82.89-47.86ZM457.76,588.73H402.45l-27.66-47.9Zm-55.31,4h55.26l-82.89,47.86ZM432.08,648l27.6,47.81L376.87,648Zm123.45,3.46L527.9,699.35H472.64Zm3.48,2v95.76l-27.64-47.88Zm7.45-12.89,27.63-47.86h55.26l-19.88,11.48Zm92.38-42.36L686.44,646l-27.6,47.81ZM689.91,648h55.26l-82.89,47.86Zm-25.58-55.31h55.21l27.6,47.81Zm55.21-4H664.28l82.89-47.86Zm-2.35-76.11L664.33,482.1h55.21l27.6,47.81Zm2.35-34.52H664.28l82.89-47.86Zm-125.45,0-27.66-47.9,83,47.9Zm-123.45-3.46,27.63-47.86h55.26Zm-3.44-2V377l27.6,47.81Zm-64.75,5.51-27.66-47.9,83,47.9Zm-3.46,2L371.4,527.89V432.31Zm0,110.63L371.4,638.51V542.94Zm3.46,108.63-27.66-47.9,83,47.9Zm-3.46,2L371.4,749.14V653.56Zm128.91,2,27.6,47.81-82.81-47.81ZM654.84,598.13v95.8L627.18,646Zm92.33,53.37-27.63,47.86H664.28Zm3.48,2v95.76L723,701.35ZM723,590.73l27.64-47.88v95.76Zm0-110.63,27.64-47.88V528Zm-60.72-5.46,27.63-47.86h55.26Zm-3.44-2V377l27.6,47.81Zm-4,.09-27.66-47.9,27.66-47.9Zm-156.57-49.9L470.63,374.9l82.93,47.88Zm-35.07,49.9-27.66-47.9,27.66-47.9ZM402.45,703.35h55.26l-82.89,47.86ZM623.72,648l27.6,47.81L568.51,648Zm95.82,55.32,27.6,47.81-82.81-47.81Zm25.66-280.57H689.91L662.26,374.9l20.83,12Zm-121.47,0H568.48l82.85-47.83Zm-191.64,0H376.85l82.85-47.83ZM467.2,708.85l27.6,47.81-27.6,47.81Zm31.07,45.81-27.64-47.88,64.05,37,18.88,10.9ZM563,653.56l27.59,47.79L563,749.14Zm31.05,45.79-27.66-47.9,83,47.9Zm156.56-282L723,369.47l27.64-47.88Zm-31.11-45.88,27.6,47.81-30-17.29-52.86-30.52ZM559,417.35l-27.64-47.88L559,321.59ZM527.9,371.47l27.6,47.81-24.83-14.34-58-33.47ZM367.37,528,339.73,480.1l27.64-47.88Zm0,110.63-27.64-47.88,27.64-47.88Zm-31.11-45.88,27.6,47.81-82.81-47.81Zm31.11,156.51-27.64-47.88,27.64-47.88Zm-31.11-45.88,27.6,47.81-82.81-47.81Zm126.94,5.4v95.8l-27.66-47.9Zm35.07,49.9h55.26l-82.89,47.86Zm68.19-7.45,27.63-47.86h55.26l-19.88,11.48Zm92.38-42.36,27.6,47.81-27.6,47.81Zm31.07,45.81-27.64-47.88,66.47,38.38,16.46,9.5Zm95.82-51.31H841l-82.89,47.86Zm-31.05,45.79V653.56l27.59,47.79Zm31.05-156.41H841l-82.89,47.86Zm-31.05,45.79V542.94l27.59,47.79Zm0-206.2,27.59,47.79-27.59,47.79Zm0-110.63,27.59,47.79-27.59,47.79Zm-35.13,45.79H664.28l82.89-47.86Zm-137.66,43-15.42,8.9,27.63-47.86h55.26ZM563,417.26V321.69l27.59,47.79ZM527.9,367.47H472.64l82.89-47.86ZM392.76,409l-17.94,10.36,27.63-47.86h55.26Zm-21.36,8.29V321.69L399,369.47Zm-4,.09-27.64-47.88,27.64-47.88Zm-31.11-45.88,27.6,47.81L346,409l-65-37.5Zm0,106.63H281l82.89-47.86Zm0,110.63H281l82.89-47.86Zm0,110.63H281l82.89-47.86Zm0,110.63H281l82.89-47.86Zm31.11-45.88v95.76L339.73,812Zm64.71-5.44,27.6,47.81-82.81-47.81Zm123.45,3.46L527.9,810H472.64Zm3.48,2v95.76L531.36,812Zm95.83-55.34v95.8l-27.66-47.9Zm35.07,49.9h55.26l-82.89,47.86Zm95.82-59.31-27.66-47.9,83,47.9Zm0-110.63-27.66-47.9,83,47.9ZM758.09,530l27.63-47.86H841l-61.83,35.7Zm27.63-51.86-27.66-47.9,83,47.9Zm-27.63-58.77,27.63-47.86H841l-61.83,35.7Zm27.63-51.86-27.66-47.9,83,47.9ZM662.28,364l27.63-47.86h55.26Zm-68.19,3.46-27.66-47.9,83,47.9ZM470.64,364l27.63-47.86h55.26Zm-68.19,3.46-27.66-47.9,83,47.9Zm-66.19,0H281l82.89-47.86Zm25.66,55.31H306.63L279,374.9Zm-55.29,4h55.26L279,474.64Zm55.29,106.63H306.63L279,485.53Zm-55.29,4h55.26L279,585.26Zm29.72,91.87L361.92,644H306.63L279,596.15ZM306.63,648h55.26L279,695.89Zm29.72,91.87,25.56,14.76H306.63L279,706.78Zm-29.72,18.76h55.26L279,806.51ZM281.06,814h55.21l27.6,47.81-32.88-19Zm90.34-49.79L399,812,371.4,859.77ZM402.45,810l-27.66-47.9,83,47.9Zm70.24,4H527.9l27.6,47.81L501,830.34Zm151-55.32,27.6,47.81-82.81-47.81Zm123.45,3.46L719.54,810H664.28Zm3.48,2v95.76L723,812Zm4,.09L782.26,812l-27.59,47.79ZM785.72,810l-27.66-47.9L841,810Zm-25.58-51.32h55.21L843,806.47Zm55.21-4H760.12L782,742l61-35.21ZM760.15,648h55.21L843,695.84Zm55.21-4H760.12L782,631.41l61-35.21ZM760.15,537.41h55.21L843,585.22Zm55.21-4H760.12L843,485.57ZM760.15,426.78h55.21L843,474.59Zm55.21-4H760.12L843,374.95ZM745.19,312.15H689.91l-27.64-47.88,55.44,32Zm-90.35,49.9-27.66-47.9,27.66-47.9Zm-101.28-49.9H498.27l-27.64-47.88,49.65,28.67Zm-90.35,49.9-27.66-47.9,27.66-47.9ZM279,364l27.63-47.86h55.26Zm-3.44,13,27.6,47.81-27.6,47.81Zm0,110.63,27.6,47.81-27.6,47.81Zm0,110.63L303.17,646l-27.6,47.81Zm0,110.63,27.6,47.81-27.6,47.81Zm0,110.63,27.6,47.81-27.6,47.81Zm31.07,45.81L279,817.4l28.93,16.7,54,31.18Zm68.19-3.45L402.45,814h55.26l-49.93,28.83Zm92.38-42.36,27.6,47.81L467.2,915.1Zm31.07,45.81L470.63,817.4l49.65,28.67,33.28,19.21ZM563,764.19,590.62,812,563,859.77ZM594.09,810l-27.66-47.9,83,47.9Zm70.24,4h55.21l27.6,47.81-77.39-44.68Zm93.77,47.86L785.72,814H841l-41.41,23.91Zm60.72-105.18,27.66-47.9v95.8Zm0-110.63,27.66-47.9v95.8Zm0-110.63,27.66-47.9v95.8Zm0-110.63,27.66-47.9v95.8Zm0-110.63,27.66-47.9v95.8ZM843,264.32l-27.62,47.83H760.12l41.45-23.93Zm-92.33,42.41L723,258.85,750.64,211Zm-31.11-45.88,27.6,47.81L669.75,264l-5.42-3.13Zm-68.2,3.47-27.62,47.83H568.48l76-43.86ZM559,306.73l-27.64-47.88L559,211ZM527.9,260.85l27.6,47.81L501,277.2l-28.33-16.36Zm-68.2,3.47-27.62,47.83H376.85l54-31.18Zm-97.78,47.83H306.63L279,264.27,307.92,281Zm-90.35,49.9-27.66-47.9,27.66-47.9Zm0,110.63-27.66-47.9,27.66-47.9Zm0,110.63-27.66-47.9,27.66-47.9Zm0,110.63L243.91,646l27.66-47.9Zm0,110.63-27.66-47.9,27.66-47.9Zm0,110.63-27.66-47.9,27.66-47.9Zm35.07-45.9h55.26L279,917.14Zm156.57-49.9v95.8l-27.66-47.9Zm35.07,49.9h55.26l-82.89,47.86Zm68.19-7.45L594.09,814h55.26l-56,32.32Zm92.38-42.36,27.6,47.81-27.6,47.81Zm31.07,45.81L662.26,817.4l55.44,32,27.49,15.87Zm156.57-45.9v95.8l-27.66-47.9Zm4,.09,27.6,47.81-27.6,47.81Zm0-110.63,27.6,47.81-27.6,47.81Zm0-110.63L878.08,646l-27.6,47.81Zm0-110.63,27.6,47.81-27.6,47.81Zm0-110.63,27.6,47.81-27.6,47.81Zm0-110.63,27.6,47.81L850.47,362Zm-50.9,18.41L758.09,308.7l27.63-47.86H841Zm-44.9,21.88V211.06l27.59,47.79Zm-35.13-49.79H664.28L747.17,209ZM593.38,293.16,566.46,308.7l27.63-47.86h55.26ZM563,306.64V211.06l27.59,47.79ZM527.9,256.85H472.64L555.53,209ZM407.78,289.68l-33,19,27.63-47.86h55.26Zm-36.38,17V211.06L399,258.85Zm-4,.09-27.64-47.88L367.37,211Zm-31.11-45.88,27.6,47.81-32.88-19-49.93-28.83Zm-95.82,55.31L268,364l-82.81-47.81Zm27.62,58.79-27.62,47.83H185.21Zm-27.62,51.83L268,474.59l-82.81-47.81Zm27.62,58.79-27.62,47.83H185.21Zm-27.62,51.83L268,585.22l-82.81-47.81Zm0,110.63L268,695.84,185.24,648Zm0,110.63L268,806.47l-82.81-47.81Zm0,110.63L268,917.1l-82.81-47.81Zm123.45,3.46-27.63,47.86H281Zm3.48,2v95.76l-27.64-47.88Zm64.71-5.44,27.6,47.81-82.81-47.81Zm123.45,3.46L527.9,920.61H472.64Zm3.48,2v95.76l-27.64-47.88Zm95.83-55.34v95.8l-27.66-47.9Zm35.07,49.9h55.26l-82.89,47.86Zm125.45,0L843,917.1l-82.81-47.81Zm66.19,0H936.8l-82.89,47.86Zm0-110.63H936.8l-82.89,47.86Zm0-110.63H936.8l-82.89,47.86Zm0-110.63H936.8l-82.89,47.86Zm0-4L853.9,485.53l82.93,47.88Zm0-106.63H936.8l-82.89,47.86Zm0-4L853.9,374.9l82.93,47.88Zm0-106.63H936.8L853.91,364Zm-95.82-59.31-27.66-47.9,83,47.9Zm-123.45-3.46,27.63-47.86h55.26Zm-68.19,3.46-27.66-47.9,83,47.9Zm-123.45-3.46,27.63-47.86h55.26Zm-68.19,3.46-27.66-47.9,83,47.9Zm-66.19,0H281L363.89,209Zm-64.7-5.42-27.66-47.9,27.66-47.9Zm-5.44,5.42H210.81l-27.66-47.9Zm-55.31,4h55.26L237.75,277.2l-54.56,31.5Zm55.31,106.63H210.81l-27.66-47.9Zm-55.31,4h55.26l-58,33.47-24.91,14.38ZM266.13,478.1H210.81l-27.66-47.9Zm-55.31,4h55.26l-58,33.47L183.19,530Zm55.31,106.63H210.81l-27.66-47.9Zm-55.31,4h55.26l-82.89,47.86Zm55.31,106.63H210.81l-27.66-47.9Zm-55.31,4h55.26l-82.89,47.86ZM266.13,810H210.81l-27.66-47.9Zm-55.31,4h55.26l-28.33,16.36-54.56,31.5Zm70.24,110.63h55.21l27.6,47.81L346,962.1Zm90.34-49.79L399,922.61,371.4,970.39Zm31.05,45.79-27.66-47.9,83,47.9Zm70.24,4H527.9l27.6,47.81-24.83-14.34Zm151-55.32,27.6,47.81-82.81-47.81Zm123.45,3.46-27.63,47.86H664.28Zm3.48,2v95.76L723,922.61Zm4,.09,27.59,47.79-27.59,47.79Zm31.05,45.79-27.66-47.9,83,47.9Zm125.45,0H855.91l82.89-47.86Zm-13.8-82.72L856,814h55.21l27.6,47.81ZM911.17,810H855.91l82.89-47.86ZM856,703.35h55.21l27.6,47.81Zm55.21-4H855.91L938.8,651.5ZM856,592.73h55.21l27.6,47.81Zm55.21-4H855.91l82.89-47.86Zm6.63-70.93L856,482.1h55.21l27.6,47.81Zm-6.63-39.7H855.91l82.89-47.86Zm6.63-70.93L856,371.47h55.21l27.6,47.81Zm-6.63-39.7H855.91l82.89-47.86Zm-13.8-82.72L856,260.85h55.21l27.6,47.81Zm13.8-27.91H855.91L938.8,209Zm-57.26-3.46,27.63-47.86H936.8Zm-3.44-2V155.72l27.6,47.81Zm-4,.09-27.66-47.9,27.66-47.9Zm-101.28-49.9H689.91l-27.64-47.88,55.29,31.92Zm-90.35,49.9-27.66-47.9,27.66-47.9Zm-101.28-49.9H498.27l-27.64-47.88,49.55,28.61Zm-90.35,49.9-27.66-47.9,27.66-47.9Zm-184.2,2,27.63-47.86h55.26Zm-3.44-2V155.72l27.6,47.81Zm-7.5-97.64-27.62,47.83H185.21l33.38-19.27ZM207.35,258.85l-27.59,47.79V211.06Zm0,110.63-27.59,47.79V321.69Zm0,110.63-27.59,47.79V432.31Zm0,110.63-27.59,47.79V542.94Zm0,110.63-27.59,47.79V653.56Zm0,110.63-27.59,47.79V764.19Zm0,110.63-27.59,47.79V874.82Zm-24.17,49.86,27.63-47.86h55.26l-58,33.47Zm191.64,0,27.63-47.86h55.26l-65,37.5ZM563,874.82l27.59,47.79L563,970.39Zm31.05,45.79-27.66-47.9,83,47.9Zm70.24,4h55.21l27.6,47.81-30-17.29Zm93.77,47.86,27.63-47.86H841l-61.83,35.7Zm156.54-49.86,27.64-47.88v95.76Zm0-110.63,27.64-47.88v95.76Zm0-110.63,27.64-47.88v95.76Zm0-110.63,27.64-47.88v95.76Zm0-110.63,27.64-47.88V528Zm0-110.63,27.64-47.88v95.76Zm0-110.63L942.28,211v95.76Zm22.19-57.32H881.54L853.9,153.65l41.48,23.95ZM843,153.69l-27.62,47.83H760.12l41.45-23.93Zm-191.64,0-27.62,47.83H568.48l75.08-43.35Zm-191.64,0-27.62,47.83H376.85l53.76-31Zm-97.78,47.83H306.63L279,153.65l29.17,16.84ZM275.57,930.1l27.6,47.81-27.6,47.81Zm31.07,45.81L279,928l82.93,47.88ZM467.2,930.1l27.6,47.81-27.6,47.81Zm31.07,45.81L470.63,928l82.93,47.88Zm68.19-3.45,27.63-47.86h55.26l-67.47,39Zm315.09,3.45L853.9,928l82.93,47.88Zm-3.46,2-27.6,47.81V930.1ZM750.64,196.1,723,148.22l27.64-47.88Zm-31.11-45.88L747.14,198l-82.81-47.81ZM559,196.1l-27.64-47.88L559,100.34ZM527.9,150.22,555.5,198l-82.81-47.81ZM183.19,198.08l27.63-47.86h55.26ZM179.76,196V100.43l27.59,47.79Zm91.81,734v95.8l-27.66-47.9Zm35.07,49.9h55.26L279,1027.77ZM463.2,930v95.8l-27.66-47.9Zm35.07,49.9h55.26l-82.89,47.86ZM658.84,930.1l27.6,47.81-27.6,47.81Zm31.07,49.81h55.26l-82.89,47.86ZM846.47,930v95.8l-27.66-47.9Zm35.07,49.9H936.8l-82.89,47.86Zm64.76-326.35,27.59,47.79-27.59,47.79Zm0-110.63,27.59,47.79-27.59,47.79Zm0-442.5,27.59,47.79L946.31,196Zm-4,95.67-27.64-47.88,27.64-47.88Zm-31.11-45.88L938.78,198,856,150.22ZM758.09,198.08l27.63-47.86H841ZM754.67,196V100.43l27.59,47.79Zm-35.13-49.79H664.28l82.89-47.86ZM566.46,198.08l27.63-47.86h55.26ZM563,196V100.43l27.59,47.79ZM527.9,146.22H472.64l82.89-47.86ZM374.82,198.08l27.63-47.86h55.26ZM371.4,196V100.43L399,148.22Zm-4,.09-27.64-47.88,27.64-47.88Zm-31.11-45.88L363.87,198l-82.81-47.81Zm-125.45-4-27.66-47.9,83,47.9ZM175.73,196.1l-27.64-47.88,27.64-47.88Zm-31.11-45.88L172.23,198,89.42,150.22Zm31.11,156.51-27.64-47.88L175.73,211Zm0,110.63-27.64-47.88,27.64-47.88Zm0,110.63L148.09,480.1l27.64-47.88Zm0,110.63-27.64-47.88,27.64-47.88Zm-31.11-45.88,27.6,47.81L89.42,592.73Zm31.11,156.51-27.64-47.88,27.64-47.88Zm-31.11-45.88,27.6,47.81L89.42,703.35Zm31.11,156.51L148.09,812l27.64-47.88Zm0,110.63-27.64-47.88,27.64-47.88Zm0,110.63-27.64-47.88,27.64-47.88Zm64.71-101.2,27.6,47.81-82.81-47.81Zm123.45,3.46-27.63,47.86H281Zm3.48,2v95.76l-27.64-47.88Zm64.71-5.44,27.6,47.81-82.81-47.81Zm123.45,3.46-27.63,47.86H472.64Zm3.48,2v95.76l-27.64-47.88ZM654.84,930v95.8l-27.66-47.9Zm92.33,53.37-27.63,47.86H664.28Zm3.48,2v95.76L723,1033.23Zm64.71-5.44,27.6,47.81-82.81-47.81Zm123.45,3.46-27.63,47.86H855.91Zm3.48,2v95.76l-27.64-47.88Zm4-110.54,27.59,47.79-27.59,47.79Zm31.05,45.79L949.7,872.7l83,47.9ZM946.31,764.19,973.9,812l-27.59,47.79ZM977.36,810l-27.66-47.9,83,47.9Zm0-106.63h55.26l-82.89,47.86Zm0-4-27.66-47.9,83,47.9Zm0-106.63h55.26l-82.89,47.86Zm0-4-27.66-47.9,83,47.9ZM946.31,432.31,973.9,480.1l-27.59,47.79Zm31.05,45.79L949.7,430.2l83,47.9ZM946.31,321.69l27.59,47.79-27.59,47.79Zm31.05,45.79-27.66-47.9,83,47.9ZM946.31,211.06l27.59,47.79-27.59,47.79Zm31.05,45.79-27.66-47.9,83,47.9Zm0-106.63h55.26l-82.89,47.86Zm0-4L949.7,98.32l83,47.9Zm-66.19,0H855.91L938.8,98.37Zm-125.45,0-27.66-47.9,83,47.9Zm-123.45-3.46L689.91,94.9h55.26Zm-68.19,3.46-27.66-47.9,83,47.9Zm-123.45-3.46L498.27,94.9h55.26Zm-68.19,3.46-27.66-47.9,83,47.9Zm-66.19,0H281l82.89-47.86Zm-64.7-5.42L243.91,92.9,271.57,45Zm-126.94,5.42H89.37l82.89-47.86Zm0,110.63H89.37L172.26,209Zm-55.21,4h55.21l27.6,47.81L117.75,277.2Zm55.21,106.63H89.37l82.89-47.86Zm0,110.63H89.37l82.89-47.86Zm0,110.63H89.37l82.89-47.86Zm0,110.63H89.37l82.89-47.86Zm0,110.63H89.37l82.89-47.86Zm-55.21,4h55.21l27.6,47.81-54.48-31.45Zm55.21,106.63H89.37l82.89-47.86Zm0,110.63H89.37l82.89-47.86Zm0,4,27.6,47.81-82.81-47.81Zm35.13-49.79,27.59,47.79L179.76,1081Zm31.05,45.79-27.66-47.9,83,47.9Zm125.45,4,27.6,47.81-82.81-47.81Zm35.13-49.79L399,1033.23,371.4,1081Zm31.05,45.79-27.66-47.9,83,47.9Zm125.45,4L555.5,1083l-82.81-47.81Zm95.82-55.32,27.6,47.81-82.81-47.81Zm95.82,55.32,27.6,47.81-82.81-47.81Zm35.13-49.79,27.59,47.79L754.67,1081Zm31.05,45.79-27.66-47.9,83,47.9Zm125.45,4,27.6,47.81L856,1035.23Zm35.13-49.79,27.59,47.79L946.31,1081Zm31.05,45.79-27.66-47.9,83,47.9Zm-27.63-58.77,27.63-47.86h55.26l-61.83,35.7Zm0-110.63L977.36,814h55.26l-41.41,23.91Zm0-331.88,27.63-47.86h55.26l-61.83,35.7Zm0-110.63,27.63-47.86h55.26l-61.83,35.7Zm0-110.63,27.63-47.86h55.26l-41.41,23.91ZM853.91,142.76,881.54,94.9H936.8Zm-3.44-2V45.09l27.6,47.81Zm-4,.09L818.82,92.9,846.47,45ZM689.91,90.9,662.26,43,745.19,90.9Zm-35.07,49.9L627.18,92.9,654.84,45ZM498.27,90.9,470.63,43,553.56,90.9ZM463.2,140.8,435.55,92.9,463.2,45Zm-184.2,2L306.63,94.9h55.26Zm-3.44-2V45.09l27.6,47.81ZM240.44,90.9H185.21l82.85-47.83ZM115,90.9,87.35,43,170.28,90.9Zm0,4h55.26L87.37,142.76Zm21.91,87.35,33.38,19.27H115L87.35,153.65ZM115,205.53h55.26L87.37,253.38Zm22,87.41,33.28,19.21H115L87.35,264.27Zm-22,23.21h55.26L87.37,364Zm55.29,106.63H115L87.35,374.9Zm-55.29,4h55.26L87.37,474.64Zm55.29,106.63H115L87.35,485.53Zm-55.29,4h55.26L87.37,585.26Zm36.41,95.73L170.28,644H115L87.35,596.15ZM115,648h55.26L87.37,695.89Zm36.41,95.73,18.88,10.9H115L87.35,706.78ZM115,758.66h55.26L87.37,806.51Zm22,87.41,33.28,19.21H115L87.35,817.4Zm-22,23.21h55.26L87.37,917.14Zm55.29,106.63H115L87.35,928Zm-55.29,4h55.26l-82.89,47.86Zm95.82,55.32h55.26l-82.89,47.86Zm191.64,0h55.26l-82.89,47.86ZM563,985.44l27.59,47.79L563,1081Zm31.05,45.79-27.66-47.9,83,47.9Zm191.64,4H841l-82.89,47.86Zm191.64,0h55.26l-82.89,47.86Zm33.09-57.32,27.66-47.9v95.8Zm-3.46-2H951.76l82.85-47.83Zm3.46-108.63,27.66-47.9v95.8Zm-3.46-2H951.76l41.45-23.93,41.4-23.9Zm3.46-108.63,27.66-47.9v95.8Zm-3.46-2H951.76L973.62,742l61-35.21ZM1010.45,646l27.66-47.9v95.8Zm-3.46-2H951.76l21.87-12.62,61-35.21Zm3.46-108.63,27.66-47.9v95.8Zm-3.46-2H951.76l82.85-47.83Zm3.46-108.63,27.66-47.9v95.8Zm-3.46-2H951.76l82.85-47.83Zm3.46-108.63,27.66-47.9v95.8Zm-3.46-2H951.76l41.45-23.93,41.4-23.9Zm3.46-108.63,27.66-47.9v95.8Zm-3.46-2H951.76l41.45-23.93,41.4-23.9Zm3.46-108.63L1038.11,45v95.8Zm-73.63-2H881.54L853.9,43,895.38,67ZM843,43.07,815.35,90.9H760.12L801.57,67Zm-191.64,0L623.72,90.9H568.48l18.79-10.85Zm-191.64,0L432.08,90.9H376.85l26.41-15.25ZM361.92,90.9H306.63L279,43l56.52,32.63Zm-278-45.81,27.6,47.81-27.6,47.81Zm0,110.63,27.6,47.81-27.6,47.81Zm0,110.63,27.6,47.81L83.93,362Zm0,110.63,27.6,47.81-27.6,47.81Zm0,110.63,27.6,47.81-27.6,47.81Zm0,110.63L111.53,646l-27.6,47.81Zm0,110.63,27.6,47.81-27.6,47.81Zm0,110.63,27.6,47.81L83.93,915.1Zm0,110.63,27.6,47.81-27.6,47.81Zm482.53,153,27.63-47.86h55.26l-19.88,11.48Zm475.65-153,27.6,47.81-27.6,47.81Zm0-110.63,27.6,47.81-27.6,47.81Zm0-110.63,27.6,47.81-27.6,47.81Zm0-110.63,27.6,47.81-27.6,47.81Zm0-110.63,27.6,47.81-27.6,47.81Zm0-110.63,27.6,47.81-27.6,47.81Zm0-110.63,27.6,47.81L1042.11,362Zm0-110.63,27.6,47.81-27.6,47.81Zm0-110.63,27.6,47.81-27.6,47.81ZM79.93,45v95.8L52.27,92.9Zm0,110.63v95.8l-27.66-47.9Zm0,110.63v95.8l-27.66-47.9Zm0,110.63v95.8l-27.66-47.9Zm0,110.63v95.8l-27.66-47.9Zm0,110.63v95.8L52.27,646Zm0,110.63v95.8l-27.66-47.9Zm0,110.63v95.8l-27.66-47.9Zm0,110.63v95.8l-27.66-47.9Zm160.52,156.53H185.21l18.88-10.9,64-36.94Zm191.64,0H376.85l25.56-14.76,57.29-33.07Zm191.64,0H568.48L599,1068.94l52.38-30.24Zm191.64,0H760.12L782,1073.91l61-35.21Zm191.64,0H951.76l21.87-12.62,61-35.21Z" transform="translate(0)"/><polygon class="c" points="0 1098.85 40.1 1122 48.1 1122 0 1094.23 0 1098.85"/><polygon class="c" points="0 1116.64 3.1 1122 7.71 1122 0 1108.64 0 1116.64"/><polygon class="c" points="1081.94 1122 1122 1098.87 1122 1094.25 1073.94 1122 1081.94 1122"/><polygon class="c" points="1118.89 1122 1122 1116.62 1122 1108.62 1114.27 1122 1118.89 1122"/></svg>