<svg id="Layer_1" data-name="Layer 1" xmlns="http://www.w3.org/2000/svg" viewBox="0 0 384 512"><defs><style>.cls-1{fill:#373737;}</style></defs><title>lightbulbgrey</title><path class="cls-1" d="M256,64A128,128,0,0,0,128,192c0,64,64,129,64,192H320c0-65,64-128,64-192A128,128,0,0,0,256,64Zm67.59,208.91c-12.75,25.34-25.78,51.34-31.94,79.09H220.19c-6.16-26.91-18.91-52.5-31.37-77.5C174,244.72,160,216.59,160,192a96,96,0,0,1,192,0C352,216.31,338.19,243.81,323.59,272.91ZM320,464a16,16,0,0,1-16,16h-2.94a47.73,47.73,0,0,1-90.13,0H208a16,16,0,0,1,0-32h96A16,16,0,0,1,320,464Zm0-48a16,16,0,0,1-16,16H208a16,16,0,0,1,0-32h96A16,16,0,0,1,320,416ZM97.72,82.13l28.81,16.66a159.32,159.32,0,0,0-16.09,27.66L81.72,109.87ZM256,32c-5.5,0-10.66,1.06-16,1.63V0h32V33.63C266.66,33.06,261.5,32,256,32ZM162.78,62.53,146.13,33.72l27.75-16,16.56,28.72A159.33,159.33,0,0,0,162.78,62.53Zm238.81,63.91a159.43,159.43,0,0,0-16.12-27.66l28.81-16.66,16,27.75ZM349.22,62.5a160.9,160.9,0,0,0-27.62-16.06l16.56-28.72,27.69,16ZM97.69,208H64V176H97.63c-.56,5.34-1.62,10.5-1.62,16S97.06,202.69,97.69,208ZM448,176v32H414.31c.63-5.31,1.69-10.56,1.69-16s-1.06-10.66-1.62-16Zm-46.78,81.38,29.06,16.75-16,27.72-26.19-15.12C392.81,277.06,397.19,267.31,401.22,257.38Zm-290.56.06c4,9.94,8.34,19.75,13,29.44l-26,15-16-27.72Z" transform="translate(-64)"/></svg>