<svg id="Layer_1" data-name="Layer 1" xmlns="http://www.w3.org/2000/svg" viewBox="0 0 384 512.02"><defs><style>.cls-1{fill:#2b99cf;}</style></defs><title>lightbulbblue</title><path class="cls-1" d="M192,64A128,128,0,0,0,64,192c0,64,64,129,64,192H256c0-65,64-128,64-192A128,128,0,0,0,192,64Zm67.59,208.91c-12.75,25.34-25.78,51.34-31.94,79.09H156.19c-6.16-26.91-18.91-52.5-31.37-77.5C110,244.72,96,216.59,96,192a96,96,0,0,1,192,0C288,216.31,274.19,243.81,259.59,272.91ZM256,464a16,16,0,0,1-16,16h-2.94a47.73,47.73,0,0,1-90.13,0H144a16,16,0,0,1,0-32h96A16,16,0,0,1,256,464Zm0-48a16,16,0,0,1-16,16H144a16,16,0,0,1,0-32h96A16,16,0,0,1,256,416ZM33.72,82.13,62.53,98.79a159.32,159.32,0,0,0-16.09,27.66L17.72,109.87ZM192,32c-5.5,0-10.66,1.06-16,1.63V0h32V33.63C202.66,33.06,197.5,32,192,32ZM98.78,62.53,82.13,33.72l27.75-16,16.56,28.72A159.33,159.33,0,0,0,98.78,62.53Zm238.81,63.91a159.43,159.43,0,0,0-16.12-27.66l28.81-16.66,16,27.75ZM285.22,62.5A160.9,160.9,0,0,0,257.6,46.44l16.56-28.72,27.69,16ZM33.69,208H0V176H33.63c-.56,5.34-1.62,10.5-1.62,16S33.06,202.69,33.69,208ZM384,176v32H350.31c.63-5.31,1.69-10.56,1.69-16s-1.06-10.66-1.62-16Zm-46.78,81.38,29.06,16.75-16,27.72-26.19-15.12C328.81,277.06,333.19,267.31,337.22,257.38Zm-290.56.06q6,14.91,13,29.44l-26,15-16-27.72Z"/></svg>