<svg id="Layer_1" data-name="Layer 1" xmlns="http://www.w3.org/2000/svg" viewBox="0 0 440 440"><defs><style>.cls-1{fill:#1a1a1a;}</style></defs><title>undobutton</title><path class="cls-1" d="M138.91,407.42a206.05,206.05,0,0,0,73.72,19.81V362.42C198,360.8,184,357.52,171,351.83Z"/><path class="cls-1" d="M371,204h64.81C427.58,96.83,337.89,12,228.63,12A208.73,208.73,0,0,0,64.81,92L5,57.45,4.91,255.3,176.3,156.48,121.2,124.61C148.27,94.3,187.2,76,228.63,76,302.58,76,363,132.23,371,204Z"/><path class="cls-1" d="M113.13,305.2l-56,32.31a209.89,209.89,0,0,0,54,54l32.31-56A145.1,145.1,0,0,1,113.13,305.2Z"/><path class="cls-1" d="M244.64,362.42v64.81a205.8,205.8,0,0,0,73.69-19.81l-32.06-55.59C273.27,357.52,259.2,360.8,244.64,362.42Z"/><path class="cls-1" d="M313.77,335.55l32.31,56a210.11,210.11,0,0,0,54.06-54l-56-32.31A144.18,144.18,0,0,1,313.77,335.55Z"/><path class="cls-1" d="M360.45,277.64,416,309.73A205.8,205.8,0,0,0,435.83,236H371A144.06,144.06,0,0,1,360.45,277.64Z"/></svg>