<svg xmlns="http://www.w3.org/2000/svg" xmlns:xlink="http://www.w3.org/1999/xlink" version="1.1" baseProfile="full" viewBox="0 0 200 200" width="200" height="200">
<g fill="black">
<path d="M 138.0 177.0 L 158.0 177.0 L 159.2 176.9 L 160.1 176.7 L 161.0 176.4 L 161.4 176.0 L 161.7 175.1 L 161.9 174.2 L 162.0 173.0 L 162.0 102.0 L 106.0 102.0 L 106.0 150.0 L 130.0 150.0 L 130.0 115.0 L 142.0 117.0 L 145.0 119.0 L 142.0 120.8 L 142.0 160.0 L 130.0 166.0 L 130.0 154.0 L 70.0 154.0 L 70.0 166.0 L 58.0 172.0 L 58.0 115.0 L 70.0 117.0 L 73.0 119.0 L 70.0 120.8 L 70.0 150.0 L 94.0 150.0 L 94.0 102.0 L 38.0 102.0 L 38.0 183.0 L 26.0 189.0 L 26.0 92.0 L 38.0 98.0 L 94.0 98.0 L 94.0 78.0 L 16.0 78.0 L 16.0 74.0 L 66.0 74.0 L 66.0 46.0 L 22.0 46.0 L 22.0 42.0 L 66.0 42.0 L 66.0 14.0 L 78.0 16.0 L 81.0 18.0 L 78.0 19.8 L 78.0 42.0 L 122.0 42.0 L 122.0 14.0 L 134.0 16.0 L 137.0 18.0 L 134.0 19.8 L 134.0 42.0 L 156.0 42.0 L 166.0 32.0 L 178.0 42.0 L 178.0 46.0 L 134.0 46.0 L 134.0 74.0 L 162.0 74.0 L 172.0 64.0 L 184.0 74.0 L 184.0 78.0 L 106.0 78.0 L 106.0 98.0 L 162.0 98.0 L 168.0 93.0 L 179.0 102.0 L 174.0 106.0 L 174.0 173.0 L 173.8 175.5 L 173.4 178.0 L 172.6 180.4 L 171.3 182.7 L 169.7 184.7 L 167.7 186.3 L 165.4 187.6 L 163.0 188.4 L 160.5 188.8 L 158.0 189.0 L 158.0 183.0 L 138.0 180.0 Z M 78.0 46.0 L 78.0 74.0 L 122.0 74.0 L 122.0 46.0 Z " />
</g>
</svg>
