<svg xmlns="http://www.w3.org/2000/svg" xmlns:xlink="http://www.w3.org/1999/xlink" version="1.1" baseProfile="full" viewBox="0 0 200 200" width="200" height="200">
<g fill="black">
<path d="M 32.6 184.0 L 20.6 190.0 L 20.6 23.0 L 32.6 29.0 L 76.7 29.0 L 86.7 19.0 L 98.7 29.0 L 98.7 33.0 L 65.5 33.0 L 65.5 72.0 L 81.4 72.0 L 87.4 67.0 L 98.4 76.0 L 93.4 80.0 L 93.4 131.0 L 81.4 137.0 L 81.4 125.0 L 65.5 125.0 L 65.5 168.0 L 79.1 168.0 L 89.1 158.0 L 101.1 168.0 L 101.1 172.0 L 32.6 172.0 Z M 180.6 139.2 L 182.6 139.2 L 180.6 164.2 L 184.2 166.6 L 186.6 170.2 L 184.2 173.8 L 180.6 176.2 L 125.3 176.2 L 122.7 176.1 L 120.2 175.6 L 117.8 174.8 L 115.6 173.6 L 113.6 172.0 L 111.9 169.9 L 110.7 167.7 L 109.9 165.3 L 109.4 162.8 L 109.3 160.2 L 109.3 20.7 L 121.3 26.7 L 164.1 26.7 L 170.1 21.7 L 181.1 30.7 L 176.1 34.7 L 176.1 99.0 L 164.1 105.0 L 164.1 93.0 L 121.3 93.0 L 121.3 160.2 L 121.4 161.5 L 121.5 162.4 L 121.7 163.0 L 121.9 163.3 L 122.0 163.5 L 122.6 163.8 L 123.2 164.0 L 124.1 164.2 L 174.6 164.2 Z M 32.6 125.0 L 32.6 168.0 L 53.5 168.0 L 53.5 125.0 Z M 32.6 121.0 L 81.4 121.0 L 81.4 76.0 L 32.6 76.0 Z M 121.3 30.7 L 121.3 89.0 L 164.1 89.0 L 164.1 30.7 Z M 32.6 33.0 L 32.6 72.0 L 53.5 72.0 L 53.5 33.0 Z " />
</g>
</svg>
