<svg xmlns="http://www.w3.org/2000/svg" xmlns:xlink="http://www.w3.org/1999/xlink" version="1.1" baseProfile="full" viewBox="0 0 200 200" width="200" height="200">
<g fill="black">
<path d="M 70.0 178.0 L 90.0 178.0 L 91.2 177.9 L 92.1 177.7 L 93.0 177.4 L 93.4 177.0 L 93.7 176.1 L 93.9 175.2 L 94.0 174.0 L 94.0 124.0 L 17.0 124.0 L 17.0 120.0 L 161.0 120.0 L 171.0 110.0 L 183.0 120.0 L 183.0 124.0 L 106.0 124.0 L 106.0 174.0 L 105.8 176.5 L 105.4 179.0 L 104.6 181.4 L 103.3 183.7 L 101.7 185.7 L 99.7 187.3 L 97.4 188.6 L 95.0 189.4 L 92.5 189.8 L 90.0 190.0 L 90.0 184.0 L 70.0 181.0 Z M 68.6 142.9 L 70.1 146.2 L 66.24285717010498 146.2 L 65.1 147.8 L 61.2 152.6 L 57.0 157.3 L 52.4 161.8 L 47.5 166.2 L 42.3 170.5 L 36.7 174.6 L 30.7 178.6 L 24.3 182.3 L 17.4 185.7 L 16.5 184.2 L 22.1 179.2 L 27.4 174.3 L 32.5 169.5 L 37.2 164.8 L 41.6 160.1 L 45.7 155.4 L 49.3 150.8 L 52.7 146.1 L 55.7 141.4 L 57.801673412323 137.60082120895385 L 57.8 137.6 L 58.8 135.8 Z M 159.1 170.7 L 156.0 166.5 L 152.6 162.4 L 148.8 158.4 L 144.6 154.5 L 140.1 150.6 L 135.2 146.9 L 130.0 143.1 L 124.5 139.2 L 125.2 137.6 L 131.8 139.7 L 138.0 142.2 L 143.8 145.2 L 149.2 148.4 L 154.3 151.9 L 159.1 155.7 L 163.5 159.7 L 167.6 164.0 L 171.3 168.6 L 174.6 173.4 L 175.2 177.9 L 172.4 181.5 L 167.9 182.1 L 164.3 179.3 L 161.9 175.0 Z M 160.0 92.0 L 160.0 96.0 L 40.0 96.0 L 40.0 92.0 L 138.0 92.0 L 148.0 82.0 Z M 28.0 64.9 L 94.0 64.9 L 94.0 40.3 L 16.0 40.3 L 16.0 36.3 L 94.0 36.3 L 94.0 13.0 L 106.0 15.0 L 109.0 17.0 L 106.0 18.8 L 106.0 36.3 L 162.0 36.3 L 172.0 26.3 L 184.0 36.3 L 184.0 40.3 L 106.0 40.3 L 106.0 64.9 L 150.0 64.9 L 160.0 54.9 L 172.0 64.9 L 172.0 68.9 L 28.0 68.9 Z " />
</g>
</svg>
