<svg xmlns="http://www.w3.org/2000/svg" xmlns:xlink="http://www.w3.org/1999/xlink" version="1.1" baseProfile="full" viewBox="0 0 200 200" width="200" height="200">
<g fill="black">
<path d="M 98.6 19.9 L 100.1 23.2 L 96.25526313781738 23.2 L 95.9 23.7 L 90.1 30.9 L 87.0 34.4 L 83.8 37.8 L 77.0 44.2 L 73.4 47.2 L 69.5 50.0 L 164.0 50.0 L 170.0 45.0 L 181.0 54.0 L 176.0 58.0 L 176.0 177.0 L 164.0 183.0 L 164.0 54.0 L 36.0 54.0 L 36.0 177.0 L 24.0 183.0 L 24.0 44.0 L 36.0 50.0 L 65.25789470672608 50.0 L 67.1 47.5 L 69.7 43.7 L 74.9 36.3 L 77.4 32.6 L 79.7 28.8 L 82.0 25.1 L 84.2 21.3 L 86.3 17.6 L 87.83072834014892 14.61507968902588 L 87.8 14.6 L 88.8 12.8 Z M 137.9 149.2 L 135.1 145.0 L 131.8 140.9 L 128.1 136.9 L 123.9 133.0 L 119.2 129.2 L 114.1 125.4 L 108.6 121.6 L 106.0 119.95333337783813 L 106.0 168.4 L 94.0 174.4 L 94.0 122.05853662490844 L 93.3 123.1 L 88.8 129.0 L 83.9 134.6 L 78.6 140.1 L 72.9 145.3 L 66.8 150.4 L 60.3 155.1 L 53.3 159.5 L 45.9 163.6 L 44.8 162.1 L 51.0 156.5 L 56.9 150.9 L 62.4 145.4 L 67.6 139.9 L 72.3 134.4 L 76.7 128.7 L 80.7 123.0 L 84.3 117.2 L 87.5 111.3 L 88.09090909957885 110.0 L 42.6 110.0 L 42.6 106.0 L 94.0 106.0 L 94.0 60.8 L 106.0 62.8 L 109.0 64.8 L 106.0 66.6 L 106.0 106.0 L 135.4 106.0 L 145.4 96.0 L 157.4 106.0 L 157.4 110.0 L 106.0 110.0 L 106.0 116.9714285850525 L 110.3 118.2 L 116.7 120.7 L 122.8 123.6 L 128.4 126.9 L 133.6 130.5 L 138.4 134.4 L 142.7 138.5 L 146.7 143.0 L 150.1 147.8 L 153.1 152.9 L 153.3 157.5 L 150.2 160.9 L 145.6 161.1 L 142.2 158.0 L 140.3 153.6 Z M 147.8 69.9 L 149.2 73.3 L 145.23646059036255 73.09498929977417 L 142.8 76.0 L 140.0 79.1 L 137.0 82.3 L 133.8 85.6 L 130.5 89.0 L 126.9 92.4 L 123.1 95.8 L 118.9 99.2 L 114.6 102.7 L 113.3 101.5 L 116.3 96.9 L 119.2 92.4 L 122.1 88.2 L 124.8 84.2 L 127.4 80.4 L 129.8 76.7 L 132.1 73.1 L 134.2 69.7 L 136.1 66.4 L 137.32406368255616 64.16788387298584 L 137.2 64.1 L 138.3 62.6 Z M 69.5 91.2 L 68.3 88.5 L 66.8 85.6 L 65.0 82.7 L 62.8 79.7 L 60.2 76.7 L 57.4 73.5 L 54.2 70.3 L 50.6 67.1 L 51.6 65.6 L 60.2 69.9 L 64.1 72.2 L 67.6 74.8 L 70.9 77.4 L 73.8 80.2 L 76.4 83.1 L 78.7 86.2 L 80.7 89.4 L 82.4 92.8 L 81.9 97.4 L 78.4 100.3 L 73.9 99.9 L 70.9 96.4 L 70.4 93.8 Z " />
</g>
</svg>
