<svg xmlns="http://www.w3.org/2000/svg" xmlns:xlink="http://www.w3.org/1999/xlink" version="1.1" baseProfile="full" viewBox="0 0 200 200" width="200" height="200">
<g fill="black">
<path d="M 45.7 179.5 L 33.7 185.5 L 33.7 65.2 L 45.7 71.2 L 154.3 71.2 L 160.3 66.2 L 171.3 75.2 L 166.3 79.2 L 166.3 173.5 L 154.3 179.5 L 154.3 167.5 L 45.7 167.5 Z M 45.7 120.7 L 45.7 163.5 L 94.0 163.5 L 94.0 120.7 Z M 106.0 120.7 L 106.0 163.5 L 154.3 163.5 L 154.3 120.7 Z M 45.7 75.2 L 45.7 116.7 L 94.0 116.7 L 94.0 75.2 Z M 106.0 75.2 L 106.0 116.7 L 154.3 116.7 L 154.3 75.2 Z M 184.0 38.0 L 184.0 42.0 L 18.0 42.0 L 18.0 38.0 L 162.0 38.0 L 172.0 28.0 Z " />
</g>
</svg>
