<svg xmlns="http://www.w3.org/2000/svg" xmlns:xlink="http://www.w3.org/1999/xlink" version="1.1" baseProfile="full" viewBox="0 0 200 200" width="200" height="200">
<g fill="black">
<path d="M 154.7 62.1 L 157.2 64.6 L 153.82576684951783 65.82699384689332 L 150.9 78.3 L 146.5 93.7 L 141.6 108.3 L 136.1 122.2 L 130.0 135.2 L 123.3 147.5 L 116.1 158.9 L 108.2 169.4 L 99.7 179.0 L 90.6 187.6 L 89.3 186.3 L 96.8 176.5 L 103.9 166.3 L 110.5 155.4 L 116.7 143.9 L 122.3 131.7 L 127.4 118.7 L 132.1 105.1 L 136.2 90.7 L 139.8 75.6 L 142.7037184715271 60.80040283203125 L 142.7 60.8 L 143.2 57.9 Z M 91.5 24.4 L 94.0 27.0 L 90.42514286041259 28.085224533081053 L 88.0 36.4 L 84.1 48.1 L 79.8 59.5 L 75.1 70.6 L 70.0 81.5 L 64.5 92.0 L 58.5 102.2 L 52.1 112.0 L 45.1 121.5 L 37.7 130.5 L 36.2 129.4 L 42.0 119.4 L 47.5 109.2 L 52.7 99.0 L 57.7 88.6 L 62.3 77.9 L 66.5 67.1 L 70.4 56.0 L 73.9 44.8 L 77.1 33.2 L 79.65845031738282 22.509332370758056 L 79.6 22.5 L 80.3 19.8 Z " />
</g>
</svg>
