<svg xmlns="http://www.w3.org/2000/svg" xmlns:xlink="http://www.w3.org/1999/xlink" version="1.1" baseProfile="full" viewBox="0 0 200 200" width="200" height="200">
<g fill="black">
<path d="M 19.0 173.0 L 75.0 173.0 L 75.0 126.0 L 50.0 126.0 L 50.0 138.0 L 38.0 144.0 L 38.0 70.0 L 50.0 76.0 L 75.0 76.0 L 75.0 35.8 L 36.643137264251706 35.8 L 36.7 38.7 L 36.4 43.5 L 35.8 48.0 L 34.7 52.2 L 33.3 56.1 L 31.3 59.6 L 28.9 62.8 L 26.0 65.6 L 21.5 66.4 L 17.6 63.9 L 16.8 59.4 L 19.4 55.6 L 21.2 54.5 L 23.0 53.1 L 24.8 51.2 L 26.5 48.7 L 28.1 45.6 L 29.5 42.0 L 30.8 37.9 L 31.9 33.2 L 32.9 28.0 L 33.5 22.3 L 35.3 22.3 L 36.1 28.1 L 36.43636360168457 31.8 L 75.0 31.8 L 75.0 31.0 L 87.0 31.0 L 87.0 31.8 L 112.0 31.8 L 112.0 31.0 L 124.0 31.0 L 124.0 31.8 L 166.2 31.8 L 166.7232558250427 31.363953495025633 L 166.9 30.9 L 167.1269624710083 31.027531242370607 L 172.2 26.8 L 183.2 35.8 L 178.2 38.8 L 174.42754487991334 40.3718563079834 L 174.0 40.9 L 172.0 43.1 L 169.9 45.4 L 167.7 47.8 L 162.7 52.8 L 159.9 55.5 L 156.8 58.1 L 153.9 61.1 L 152.4 60.0 L 154.6 56.4 L 156.5 52.8 L 158.2 49.5 L 159.9 46.3 L 162.8 40.5 L 164.1 37.8 L 164.9800000190735 35.8 L 124.0 35.8 L 124.0 76.0 L 149.0 76.0 L 155.0 71.0 L 166.0 80.0 L 161.0 84.0 L 161.0 132.0 L 149.0 138.0 L 149.0 126.0 L 124.0 126.0 L 124.0 173.0 L 160.0 173.0 L 170.0 163.0 L 182.0 173.0 L 182.0 177.0 L 19.0 177.0 Z M 87.0 126.0 L 87.0 173.0 L 112.0 173.0 L 112.0 126.0 Z M 50.0 80.0 L 50.0 122.0 L 75.0 122.0 L 75.0 80.0 Z M 87.0 80.0 L 87.0 122.0 L 112.0 122.0 L 112.0 80.0 Z M 124.0 80.0 L 124.0 122.0 L 149.0 122.0 L 149.0 80.0 Z M 87.0 35.8 L 87.0 76.0 L 112.0 76.0 L 112.0 35.8 Z " />
</g>
</svg>
