<svg xmlns="http://www.w3.org/2000/svg" xmlns:xlink="http://www.w3.org/1999/xlink" version="1.1" baseProfile="full" viewBox="0 0 200 200" width="200" height="200">
<g fill="black">
<path d="M 70.0 89.2 L 90.0 89.2 L 91.2 89.1 L 92.1 88.9 L 93.0 88.6 L 93.4 88.2 L 93.7 87.3 L 93.9 86.4 L 94.0 85.2 L 94.0 12.4 L 106.0 14.4 L 109.0 16.4 L 106.0 18.2 L 106.0 50.59072160720825 L 110.9 51.5 L 120.2 53.7 L 125.24930553436279 55.07708330154419 L 127.4 52.7 L 131.1 48.6 L 134.8 44.7 L 138.4 40.9 L 141.9 37.1 L 148.5 29.7 L 151.6 26.1 L 154.6 22.5 L 156.83490905761718 19.626545429229736 L 156.8 19.6 L 157.18461542129518 19.176923084259034 L 157.4 18.9 L 157.4201117515564 18.917877101898192 L 157.8 18.5 L 166.4 26.9 L 167.3 30.4 L 163.47149162292482 29.661165046691895 L 162.9 30.2 L 159.3 33.5 L 151.7 40.1 L 147.6 43.3 L 143.4 46.5 L 139.1 49.7 L 134.5 52.7 L 129.8 55.6 L 128.91633110046388 56.07718124389648 L 129.0 56.1 L 137.2 58.8 L 145.0 61.6 L 152.3 64.5 L 159.2 67.6 L 165.6 70.9 L 171.5 74.3 L 177.0 77.8 L 179.2 81.8 L 178.1 86.3 L 174.1 88.5 L 169.7 87.4 L 165.1 83.7 L 160.0 80.1 L 154.4 76.5 L 148.2 72.9 L 141.6 69.3 L 134.4 65.8 L 126.7 62.3 L 118.5 58.8 L 109.8 55.2 L 106.0 53.613186836242676 L 106.0 85.2 L 105.8 87.7 L 105.4 90.2 L 104.6 92.6 L 103.4 94.9 L 101.7 96.9 L 99.7 98.5 L 97.4 99.8 L 95.36666669845582 100.4777777671814 L 104.5 102.0 L 107.5 104.0 L 104.5 105.8 L 104.5 123.7 L 141.5 123.7 L 151.5 113.7 L 163.5 123.7 L 163.5 127.7 L 104.5 127.7 L 104.5 151.5 L 163.1 151.5 L 173.1 141.5 L 185.1 151.5 L 185.1 155.5 L 104.5 155.5 L 104.5 182.5 L 92.5 188.5 L 92.5 155.5 L 13.7 155.5 L 13.7 151.5 L 92.5 151.5 L 92.5 127.7 L 45.87272729873657 127.7 L 45.0 128.9 L 41.5 133.0 L 37.5 136.9 L 33.2 140.6 L 28.4 144.0 L 23.2 147.0 L 22.0 145.6 L 25.9 141.1 L 29.4 136.8 L 32.6 132.5 L 35.5 128.3 L 38.0 124.1 L 40.1 119.9 L 41.9 115.7 L 43.3 111.5 L 44.4 107.2 L 44.936564445495605 103.90396118164062 L 44.9 103.9 L 45.0745454788208 103.05636367797851 L 45.1 102.9 L 45.1066291809082 102.9012921333313 L 45.5 101.0 L 56.9 105.2 L 59.4 107.8 L 55.68128747940064 109.08464612960816 L 55.3 110.3 L 53.4 115.2 L 51.0 120.0 L 48.69777774810791 123.7 L 92.5 123.7 L 92.5 101.0 L 90.0 101.2 L 90.0 95.2 L 70.0 92.2 Z M 17.3 77.1 L 31.9 72.9 L 54.1 66.3 L 61.5 64.0 L 68.9 61.8 L 83.9 57.4 L 91.5 55.5 L 92.2 57.1 L 85.3 61.0 L 78.3 64.6 L 64.1 71.2 L 57.0 74.3 L 49.8 77.3 L 42.6 80.2 L 28.2 85.8 L 24.80333776473999 87.05629978179931 L 23.8 90.7 L 20.9 88.5 L 15.4 77.7 Z M 56.1 44.8 L 53.7 42.3 L 50.9 39.7 L 47.8 37.2 L 44.4 34.6 L 40.7 32.0 L 36.7 29.4 L 32.5 26.7 L 27.9 24.0 L 28.5 22.3 L 33.7 23.6 L 38.8 24.9 L 43.5 26.5 L 47.9 28.3 L 52.1 30.2 L 56.1 32.3 L 59.7 34.5 L 63.2 36.9 L 66.3 39.4 L 69.3 42.1 L 70.6 46.4 L 68.6 50.5 L 64.2 51.9 L 60.1 49.9 L 58.3 47.3 Z " />
</g>
</svg>
