<svg xmlns="http://www.w3.org/2000/svg" xmlns:xlink="http://www.w3.org/1999/xlink" version="1.1" baseProfile="full" viewBox="0 0 200 200" width="200" height="200">
<g fill="black">
<path d="M 14.0 182.1 L 94.0 182.1 L 94.0 148.0 L 29.0 148.0 L 29.0 144.0 L 94.0 144.0 L 94.0 117.16000003814698 L 80.7 118.3 L 66.2 119.3 L 51.3 120.1 L 35.9 120.6 L 20.0 120.7 L 19.9 118.9 L 35.6 116.8 L 50.8 114.7 L 65.6 112.8 L 79.9 110.8 L 93.7 108.7 L 107.1 106.6 L 120.0 104.4 L 132.4 102.1 L 144.3 99.7 L 154.80465936660767 97.41637840270997 L 154.8 97.4 L 154.81668405532838 97.4137643814087 L 155.8 97.2 L 156.0380711555481 98.4214087486267 L 166.8 107.3 L 167.1 110.3 L 162.65790071487427 108.10937566757202 L 158.1 109.0 L 146.3 110.9 L 134.1 112.7 L 121.4 114.3 L 108.3 115.8 L 106.0 116.01985292434692 L 106.0 144.0 L 149.0 144.0 L 159.0 134.0 L 171.0 144.0 L 171.0 148.0 L 106.0 148.0 L 106.0 182.1 L 164.0 182.1 L 174.0 172.1 L 186.0 182.1 L 186.0 186.1 L 14.0 186.1 Z M 186.0 86.8 L 186.0 90.8 L 14.0 90.8 L 14.0 86.8 L 164.0 86.8 L 174.0 76.8 Z M 44.0 73.0 L 32.0 79.0 L 32.0 27.0 L 44.0 29.0 L 47.0 31.0 L 44.0 32.8 L 44.0 62.0 L 94.0 62.0 L 94.0 14.0 L 106.0 16.0 L 109.0 18.0 L 106.0 19.8 L 106.0 62.0 L 155.0 62.0 L 155.0 27.0 L 167.0 29.0 L 170.0 31.0 L 167.0 32.8 L 167.0 70.0 L 155.0 76.0 L 155.0 66.0 L 44.0 66.0 Z " />
</g>
</svg>
