<svg xmlns="http://www.w3.org/2000/svg" xmlns:xlink="http://www.w3.org/1999/xlink" version="1.1" baseProfile="full" viewBox="0 0 200 200" width="200" height="200">
<g fill="black">
<path d="M 146.5 184.0 L 144.4 184.8 L 140.0 186.0 L 137.8 186.4 L 135.5 186.7 L 133.3 186.9 L 131.0 187.0 L 131.0 181.0 L 111.0 178.0 L 111.0 175.0 L 131.0 175.0 L 132.6 174.9 L 134.3 174.8 L 135.9 174.6 L 137.4 174.3 L 139.0 173.9 L 140.5 173.4 L 143.5 172.2 L 144.9 171.5 L 146.4 170.6 L 148.3 169.2 L 150.2 167.3 L 151.9 165.0 L 153.5 162.1 L 154.9 158.6 L 156.2 154.6 L 157.2 150.0 L 158.1 144.8 L 158.6 139.1 L 158.86031742095946 135.0 L 104.78018016815186 135.0 L 99.1 144.7 L 91.3 154.6 L 82.2 163.3 L 72.0 170.9 L 60.5 177.3 L 47.9 182.4 L 34.1 186.3 L 19.1 188.8 L 18.8 187.1 L 33.0 182.6 L 45.9 177.4 L 57.4 171.5 L 67.6 164.7 L 76.6 157.0 L 84.2 148.6 L 90.6 139.2 L 92.78235292434692 135.0 L 30.0 135.0 L 30.0 131.0 L 94.86078433990478 131.0 L 95.9 129.0 L 100.0 117.8 L 102.9 105.7 L 102.91366024017334 105.70291881561279 L 103.3 103.9 L 114.6 108.2 L 117.1 110.7 L 113.52474765777588 111.93508720397949 L 110.8 121.4 L 106.70819673538207 131.0 L 159.0 131.0 L 165.0 126.0 L 176.0 135.0 L 171.0 138.0 L 170.67790260314942 138.13420724868774 L 170.6 139.9 L 170.0 146.3 L 169.0 152.2 L 167.8 157.7 L 166.2 162.7 L 164.3 167.3 L 162.0 171.4 L 159.3 175.1 L 156.2 178.3 L 152.6 180.9 L 148.6 183.1 Z M 146.0 102.9 L 131.7 97.6 L 118.5 91.6 L 106.3 85.0 L 100.85740737915039 81.3716049194336 L 100.4 81.7 L 87.9 89.3 L 74.5 96.2 L 60.2 102.4 L 45.1 107.8 L 29.0 112.2 L 12.2 115.8 L 11.7 114.1 L 28.0 108.6 L 43.2 102.7 L 57.6 96.4 L 71.0 89.5 L 83.5 82.1 L 92.80416669845582 75.6833333015442 L 85.2 69.6 L 76.4 60.9 L 68.9 51.4 L 63.50822820663452 42.47264003753662 L 60.3 46.3 L 54.2 52.8 L 47.7 58.9 L 40.6 64.7 L 33.1 70.2 L 25.0 75.2 L 16.4 79.7 L 15.5 78.2 L 22.8 72.1 L 29.8 66.0 L 36.3 59.8 L 42.4 53.5 L 48.0 47.1 L 53.1 40.5 L 57.8 33.7 L 62.0 26.8 L 65.8 19.7 L 69.1 12.3 L 69.12379913330078 12.311135387420654 L 69.6 11.2 L 80.0 17.4 L 81.9 20.4 L 78.11442956924438 20.856879234313965 L 75.8 25.1 L 71.1 32.5 L 67.09285717010498 38.0 L 158.0 38.0 L 168.0 28.0 L 180.0 38.0 L 180.0 42.0 L 143.04285717010498 42.0 L 141.8 43.5 L 132.8 54.2 L 122.9 64.1 L 112.1 73.3 L 108.82654333114624 75.65017404556275 L 110.9 76.8 L 122.8 82.4 L 135.7 87.3 L 149.5 91.6 L 164.4 95.3 L 180.2 98.5 L 189.5 100.3 L 177.7 111.4 L 161.4 107.5 Z M 65.86000003814698 42.0 L 72.1 48.8 L 80.6 56.7 L 89.8 64.0 L 99.56478338241577 70.47762861251832 L 105.7 65.5 L 115.4 56.4 L 124.2 46.7 L 127.77761192321778 42.0 Z " />
</g>
</svg>
