<svg xmlns="http://www.w3.org/2000/svg" xmlns:xlink="http://www.w3.org/1999/xlink" version="1.1" baseProfile="full" viewBox="0 0 200 200" width="200" height="200">
<g fill="black">
<path d="M 25.2 125.9 L 38.6 124.3 L 52.3 122.5 L 66.1 120.6 L 80.1 118.4 L 93.0 116.23496503829956 L 93.0 66.0 L 50.083116912841795 66.0 L 47.5 71.1 L 43.1 78.5 L 38.2 85.5 L 32.9 92.3 L 27.0 98.6 L 20.6 104.6 L 19.3 103.3 L 24.1 96.2 L 28.5 89.1 L 32.7 82.0 L 36.5 74.7 L 39.8 67.3 L 42.8 59.8 L 45.4 52.1 L 47.6 44.2 L 49.5 36.1 L 50.74556350708008 28.804556369781494 L 50.7 28.8 L 51.2 25.9 L 62.7 30.0 L 65.3 32.5 L 61.72239189147949 33.86599578857422 L 60.5 38.7 L 57.9 47.2 L 54.9 55.4 L 52.0125 62.0 L 93.0 62.0 L 93.0 13.0 L 105.0 15.0 L 108.0 17.0 L 105.0 18.8 L 105.0 62.0 L 141.0 62.0 L 151.0 52.0 L 163.0 62.0 L 163.0 66.0 L 105.0 66.0 L 105.0 114.15972223281861 L 108.8 113.5 L 123.4 110.7 L 138.3 107.9 L 153.4 105.0 L 168.7 102.1 L 169.2 103.8 L 154.3 108.7 L 139.5 113.1 L 124.9 117.2 L 110.4 120.9 L 105.0 122.175 L 105.0 183.0 L 93.0 189.0 L 93.0 124.97605638504028 L 81.8 127.5 L 67.8 130.4 L 54.0 133.1 L 40.3 135.6 L 30.751917362213135 137.14454278945922 L 29.1 140.5 L 26.7 137.8 L 23.2 126.1 Z " />
</g>
</svg>
