<svg xmlns="http://www.w3.org/2000/svg" xmlns:xlink="http://www.w3.org/1999/xlink" version="1.1" baseProfile="full" viewBox="0 0 200 200" width="200" height="200">
<g fill="black">
<path d="M 60.1 111.4 L 139.9 111.4 L 145.9 106.4 L 156.9 115.4 L 151.9 119.4 L 151.9 176.5 L 139.9 182.5 L 139.9 172.5 L 60.1 172.5 L 60.1 179.5 L 48.1 185.5 L 48.1 105.4 Z M 60.1 143.1 L 60.1 168.5 L 139.9 168.5 L 139.9 143.1 Z M 60.1 115.4 L 60.1 139.1 L 139.9 139.1 L 139.9 115.4 Z M 40.0 100.7 L 28.0 106.7 L 28.0 23.8 L 40.0 29.8 L 158.9 29.8 L 164.9 24.8 L 175.9 33.8 L 170.9 37.8 L 170.9 94.7 L 158.9 100.7 L 158.9 88.7 L 40.0 88.7 Z M 40.0 33.8 L 40.0 84.7 L 93.5 84.7 L 93.5 33.8 Z M 105.5 33.8 L 105.5 84.7 L 158.9 84.7 L 158.9 33.8 Z M 146.8 49.0 L 148.1 52.3 L 144.18720169067382 52.03015184402466 L 141.7 54.9 L 139.0 58.0 L 136.1 61.1 L 133.1 64.2 L 126.8 70.5 L 123.4 73.6 L 119.7 76.8 L 116.0 79.9 L 114.7 78.8 L 117.2 74.6 L 119.6 70.5 L 122.0 66.6 L 124.4 62.8 L 126.7 59.1 L 129.0 55.5 L 131.1 52.1 L 133.1 48.7 L 135.1 45.4 L 136.46141729354858 43.03543310165405 L 136.4 43.0 L 136.90338983535767 42.26779661178589 L 137.0 42.1 L 137.01263427734375 42.10889558792114 L 137.5 41.4 Z M 66.1 66.8 L 64.8 63.7 L 63.2 60.6 L 61.5 57.5 L 59.6 54.6 L 57.5 51.6 L 55.3 48.6 L 52.9 45.6 L 50.2 42.8 L 51.2 41.4 L 54.8 43.3 L 58.3 45.2 L 61.6 47.5 L 64.7 49.9 L 67.6 52.6 L 70.4 55.4 L 72.9 58.5 L 75.3 61.7 L 77.5 65.1 L 79.5 68.6 L 79.5 73.2 L 76.3 76.5 L 71.7 76.4 L 68.4 73.3 L 67.4 70.0 Z " />
</g>
</svg>
