<svg xmlns="http://www.w3.org/2000/svg" xmlns:xlink="http://www.w3.org/1999/xlink" version="1.1" baseProfile="full" viewBox="0 0 200 200" width="200" height="200">
<g fill="black">
<path d="M 174.0 104.1 L 172.8 100.1 L 171.3 96.1 L 169.6 92.3 L 167.7 88.5 L 165.5 84.9 L 163.1 81.2 L 161.32273797988893 78.76449279785156 L 161.1 92.5 L 160.7 109.1 L 160.2 123.6 L 159.6 136.2 L 158.9 146.8 L 158.0 155.4 L 157.0 162.3 L 155.8 167.5 L 154.9 169.9 L 153.7 172.1 L 152.3 174.2 L 150.7 176.0 L 148.8 177.6 L 146.7 179.0 L 144.4 180.0 L 142.0 180.6 L 139.5 181.0 L 137.0 181.2 L 137.0 175.2 L 117.0 172.2 L 117.0 169.2 L 137.0 169.2 L 138.3 169.1 L 139.4 168.9 L 140.3 168.7 L 141.1 168.3 L 142.3 167.5 L 142.8 166.8 L 143.4 166.1 L 143.9 165.0 L 144.3 163.8 L 145.2 160.1 L 146.1 154.0 L 146.9 145.8 L 147.6 135.5 L 148.2 123.1 L 148.7 108.7 L 149.1 92.3 L 149.4 73.9 L 149.6 53.4 L 149.6 33.0 L 118.45053005218506 33.0 L 117.8 59.3 L 116.4 83.9 L 114.1 105.0 L 110.9 123.1 L 106.8 138.5 L 101.8 151.6 L 95.9 162.7 L 89.0 172.1 L 81.0 180.2 L 72.2 187.2 L 71.0 185.8 L 78.3 177.5 L 84.7 168.9 L 90.2 159.5 L 94.8 148.7 L 98.7 136.1 L 101.8 121.3 L 102.81977348327636 113.54085369110108 L 98.7 112.9 L 95.9 109.3 L 95.1 105.2 L 94.0 101.3 L 92.6 97.5 L 91.0 93.8 L 89.2 90.1 L 87.0 86.5 L 84.5 83.0 L 81.8 79.4 L 78.9 75.9 L 75.6 72.4 L 76.6 70.9 L 81.0 73.2 L 85.2 75.8 L 89.1 78.7 L 92.6 81.9 L 95.9 85.4 L 98.8 89.1 L 101.5 93.1 L 103.8 97.3 L 104.4873963356018 98.81227197647095 L 105.7 83.2 L 106.5 59.0 L 106.5 33.0 L 76.4 33.0 L 76.4 29.0 L 149.6 29.0 L 155.6 24.0 L 166.6 33.0 L 161.6 36.0 L 161.6 53.5 L 161.4 74.0 L 161.39732313156128 74.16507329940796 L 162.8 75.0 L 166.7 77.7 L 170.3 80.9 L 173.6 84.3 L 176.6 88.0 L 179.4 91.9 L 181.8 96.1 L 184.0 100.5 L 185.9 105.1 L 187.4 110.0 L 186.6 114.5 L 182.9 117.1 L 178.4 116.3 L 175.7 112.6 L 175.0 108.3 Z M 43.2 186.9 L 39.2 184.8 L 37.7 180.5 L 38.3 173.5 L 38.2 167.2 L 37.4 161.6 L 36.1 156.4 L 34.1 151.8 L 31.4 147.6 L 28.0 143.8 L 23.8 140.3 L 18.8 137.0 L 12.9 134.1 L 13.3 132.3 L 20.2 133.5 L 26.5 135.6 L 32.1 138.6 L 35.57185926437378 141.3633165359497 L 36.0 140.4 L 38.6 134.2 L 41.8 126.3 L 45.5 116.8 L 49.9 105.6 L 54.9 92.8 L 60.5 78.4 L 66.8 62.3 L 73.9 44.7 L 75.6 45.2 L 70.4 63.5 L 65.5 80.1 L 61.1 95.0 L 57.1 108.1 L 53.5 119.6 L 50.6 129.4 L 48.1 137.6 L 46.1 144.0 L 44.7 148.9 L 43.935055351257326 151.70479707717897 L 44.6 152.8 L 47.2 159.0 L 48.8 165.9 L 49.7 173.4 L 49.7 181.5 L 47.5 185.5 Z M 33.5 85.8 L 31.8 83.7 L 29.8 81.6 L 27.5 79.5 L 24.9 77.4 L 21.9 75.3 L 18.6 73.2 L 15.1 71.0 L 11.1 69.1 L 11.6 67.4 L 16.0 68.3 L 20.3 69.1 L 24.3 70.1 L 28.1 71.4 L 31.6 72.8 L 34.9 74.5 L 38.0 76.3 L 40.9 78.4 L 43.5 80.6 L 45.8 83.1 L 46.7 87.6 L 44.3 91.4 L 39.8 92.3 L 35.9 89.9 L 34.9 87.8 Z M 51.2 38.1 L 49.7 36.1 L 47.8 34.0 L 45.5 31.9 L 43.0 29.8 L 40.0 27.7 L 36.8 25.5 L 33.3 23.2 L 29.3 21.1 L 29.9 19.4 L 34.3 20.5 L 38.6 21.5 L 42.5 22.6 L 46.2 23.9 L 49.7 25.4 L 52.9 27.0 L 55.9 28.7 L 58.6 30.7 L 61.1 32.8 L 63.3 35.1 L 64.1 39.6 L 61.6 43.4 L 57.2 44.3 L 53.3 41.8 L 52.4 40.0 Z " />
</g>
</svg>
