<svg xmlns="http://www.w3.org/2000/svg" xmlns:xlink="http://www.w3.org/1999/xlink" version="1.1" baseProfile="full" viewBox="0 0 200 200" width="200" height="200">
<g fill="black">
<path d="M 89.0 176.1 L 110.2 176.1 L 111.1 175.9 L 111.7 175.7 L 112.0 175.5 L 112.2 175.4 L 112.4 175.2 L 112.7 174.3 L 112.9 173.4 L 113.0 172.1 L 113.0 116.0 L 51.0 116.0 L 51.0 112.0 L 164.9 112.0 L 174.9 102.0 L 186.9 112.0 L 186.9 116.0 L 125.0 116.0 L 125.0 172.1 L 124.8 174.7 L 124.4 177.2 L 123.6 179.6 L 122.3 181.9 L 120.7 183.9 L 118.7 185.5 L 116.4 186.7 L 114.0 187.5 L 111.5 188.0 L 109.0 188.1 L 109.0 182.1 L 89.0 179.1 Z M 45.0 23.0 L 161.0 23.0 L 167.0 18.0 L 178.0 27.0 L 173.0 31.0 L 173.0 60.0 L 161.0 66.0 L 161.0 56.0 L 45.0 56.0 L 45.0 87.0 L 44.4 99.7 L 43.3 111.8 L 41.7 123.3 L 39.5 134.2 L 36.8 144.5 L 33.6 154.1 L 29.7 163.1 L 25.4 171.4 L 20.3 178.8 L 14.7 185.5 L 13.2 184.4 L 17.1 176.9 L 20.6 169.0 L 23.7 160.6 L 26.3 151.8 L 28.6 142.4 L 30.4 132.5 L 31.7 122.0 L 32.6 110.9 L 33.0 99.2 L 33.0 17.0 Z M 93.8 137.9 L 95.5 141.0 L 91.65188026428223 141.26538753509521 L 90.8 142.6 L 87.5 147.2 L 83.9 151.7 L 80.1 156.0 L 76.0 160.2 L 71.5 164.2 L 66.8 168.1 L 61.8 171.7 L 56.5 175.1 L 50.7 178.1 L 49.7 176.7 L 54.1 172.1 L 58.4 167.6 L 62.4 163.2 L 66.2 158.9 L 69.7 154.5 L 72.9 150.1 L 75.9 145.7 L 78.6 141.3 L 81.0 136.8 L 83.1 132.3 L 83.1577709197998 132.33023529052736 L 83.7 131.3 Z M 166.3 164.3 L 163.9 160.3 L 161.2 156.4 L 158.3 152.6 L 155.3 148.8 L 152.0 145.0 L 148.6 141.3 L 141.4 133.5 L 142.4 132.0 L 147.4 134.4 L 152.0 137.2 L 156.4 140.2 L 160.6 143.4 L 164.6 146.8 L 168.3 150.4 L 171.8 154.2 L 175.1 158.1 L 178.2 162.2 L 181.1 166.4 L 181.7 171.0 L 178.9 174.6 L 174.4 175.1 L 170.7 172.4 L 168.6 168.3 Z M 171.1 81.6 L 171.1 85.6 L 66.8 85.6 L 66.8 81.6 L 149.1 81.6 L 159.1 71.6 Z M 45.0 27.0 L 45.0 52.0 L 161.0 52.0 L 161.0 27.0 Z " />
</g>
</svg>
