<svg xmlns="http://www.w3.org/2000/svg" xmlns:xlink="http://www.w3.org/1999/xlink" version="1.1" baseProfile="full" viewBox="0 0 200 200" width="200" height="200">
<g fill="black">
<path d="M 159.9 169.6 L 151.6 164.7 L 143.7 159.5 L 136.2 153.9 L 129.0 148.0 L 122.3 141.8 L 115.9 135.1 L 110.1 128.1 L 106.0 122.1865385055542 L 106.0 182.1 L 94.0 188.1 L 94.0 129.0262294769287 L 92.8 130.6 L 86.1 138.1 L 78.8 145.2 L 71.0 151.8 L 62.7 157.9 L 53.9 163.5 L 44.5 168.6 L 34.7 173.2 L 24.2 177.2 L 13.3 180.5 L 12.6 178.8 L 22.7 173.7 L 32.3 168.4 L 41.3 162.9 L 49.8 157.1 L 57.7 151.1 L 65.0 144.7 L 71.8 138.0 L 78.1 131.0 L 83.8 123.6 L 85.29767446517944 121.3 L 18.0 121.3 L 18.0 117.3 L 94.0 117.3 L 94.0 91.7 L 106.0 93.7 L 109.0 95.7 L 106.0 97.5 L 106.0 117.3 L 160.0 117.3 L 170.0 107.3 L 182.0 117.3 L 182.0 121.3 L 108.52758617401123 121.3 L 113.1 125.2 L 120.0 130.9 L 127.0 136.3 L 134.1 141.4 L 141.5 146.3 L 149.2 150.9 L 157.1 155.1 L 165.3 159.1 L 173.7 162.8 L 182.4 166.2 L 188.9 168.9 L 177.5 178.4 L 168.5 174.2 Z M 56.0 102.8 L 44.0 108.8 L 44.0 45.2 L 19.0 45.2 L 19.0 41.2 L 44.0 41.2 L 44.0 17.3 L 56.0 19.3 L 59.0 21.3 L 56.0 23.1 L 56.0 41.2 L 94.0 41.2 L 94.0 17.3 L 106.0 19.3 L 109.0 21.3 L 106.0 23.1 L 106.0 41.2 L 144.0 41.2 L 144.0 17.3 L 156.0 19.3 L 159.0 21.3 L 156.0 23.1 L 156.0 41.2 L 164.0 41.2 L 174.0 31.2 L 186.0 41.2 L 186.0 45.2 L 156.0 45.2 L 156.0 96.8 L 144.0 102.8 L 144.0 90.8 L 56.0 90.8 Z M 56.0 45.2 L 56.0 86.8 L 94.0 86.8 L 94.0 45.2 Z M 106.0 45.2 L 106.0 86.8 L 144.0 86.8 L 144.0 45.2 Z " />
</g>
</svg>
