<svg xmlns="http://www.w3.org/2000/svg" xmlns:xlink="http://www.w3.org/1999/xlink" version="1.1" baseProfile="full" viewBox="0 0 200 200" width="200" height="200">
<g fill="black">
<path d="M 70.0 176.8 L 90.0 176.8 L 91.2 176.7 L 92.1 176.5 L 92.7 176.4 L 93.0 176.2 L 93.4 175.8 L 93.7 174.9 L 93.9 174.0 L 94.0 172.8 L 94.0 144.0 L 17.4 144.0 L 17.4 140.0 L 94.0 140.0 L 94.0 125.7 L 104.4600682258606 127.44334468841552 L 107.4 125.5 L 112.9 122.0 L 118.2 118.7 L 123.0 115.6 L 127.4 112.7 L 131.5 110.0 L 134.6680000305176 107.8 L 42.4 107.8 L 42.4 103.8 L 139.9545454978943 103.8 L 141.1 102.9 L 143.4 100.9 L 143.80917825698853 101.4590181350708 L 147.0 98.8 L 158.0 107.8 L 153.0 110.8 L 141.0 115.8 L 141.0 115.75 L 140.3 116.1 L 136.1 118.1 L 131.5 120.2 L 126.5 122.3 L 121.1 124.5 L 115.3 126.8 L 109.0 129.0 L 108.28578681945801 129.22385787963867 L 109.0 129.7 L 106.0 131.5 L 106.0 140.0 L 160.5 140.0 L 170.5 130.0 L 182.5 140.0 L 182.5 144.0 L 106.0 144.0 L 106.0 172.8 L 105.8 175.3 L 105.4 177.8 L 104.6 180.2 L 103.3 182.5 L 101.7 184.5 L 99.7 186.2 L 97.4 187.4 L 95.0 188.2 L 92.5 188.6 L 90.0 188.8 L 90.0 182.8 L 70.0 179.8 Z M 52.0 23.1 L 148.0 23.1 L 154.0 18.1 L 165.0 27.1 L 160.0 31.1 L 160.0 86.8 L 148.0 92.8 L 148.0 82.8 L 52.0 82.8 L 52.0 89.8 L 40.0 95.8 L 40.0 17.1 Z M 52.0 54.1 L 52.0 78.8 L 148.0 78.8 L 148.0 54.1 Z M 52.0 27.1 L 52.0 50.1 L 148.0 50.1 L 148.0 27.1 Z " />
</g>
</svg>
