<svg xmlns="http://www.w3.org/2000/svg" xmlns:xlink="http://www.w3.org/1999/xlink" version="1.1" baseProfile="full" viewBox="0 0 200 200" width="200" height="200">
<g fill="black">
<path d="M 148.0 175.0 L 160.0 175.0 L 161.2 174.9 L 162.1 174.7 L 163.0 174.4 L 163.4 174.0 L 163.7 173.1 L 163.9 172.2 L 164.0 171.0 L 164.0 60.0 L 124.0 60.0 L 124.0 182.0 L 112.0 188.0 L 112.0 50.0 L 124.0 56.0 L 164.0 56.0 L 170.0 51.0 L 181.0 60.0 L 176.0 64.0 L 176.0 171.0 L 175.8 173.5 L 175.4 176.0 L 174.6 178.4 L 173.3 180.7 L 171.7 182.7 L 169.7 184.3 L 167.4 185.6 L 165.0 186.4 L 162.5 186.8 L 160.0 187.0 L 160.0 181.0 L 148.0 178.0 Z M 63.0 174.0 L 75.0 174.0 L 76.2 173.9 L 77.1 173.7 L 78.0 173.4 L 78.4 173.0 L 78.7 172.1 L 78.9 171.2 L 79.0 170.0 L 79.0 59.0 L 40.0 59.0 L 40.0 181.0 L 28.0 187.0 L 28.0 49.0 L 40.0 55.0 L 79.0 55.0 L 85.0 50.0 L 96.0 59.0 L 91.0 63.0 L 91.0 170.0 L 90.8 172.5 L 90.4 175.0 L 89.6 177.4 L 88.3 179.7 L 86.7 181.7 L 84.7 183.3 L 82.4 184.6 L 80.0 185.4 L 77.5 185.8 L 75.0 186.0 L 75.0 180.0 L 63.0 177.0 Z M 145.3 118.8 L 143.6 114.8 L 141.8 111.1 L 139.9 107.6 L 137.8 104.2 L 135.7 101.0 L 133.4 98.0 L 131.0 95.0 L 128.3 92.2 L 129.3 90.7 L 132.9 92.4 L 136.6 94.4 L 140.0 96.8 L 143.3 99.6 L 146.4 102.7 L 149.3 106.2 L 152.1 109.9 L 154.7 114.0 L 157.2 118.4 L 159.5 123.0 L 159.3 127.6 L 156.0 130.8 L 151.5 130.6 L 148.3 127.3 L 146.8 122.9 Z M 59.7 117.6 L 58.6 114.2 L 57.2 110.8 L 55.6 107.4 L 53.8 104.0 L 51.7 100.6 L 49.4 97.2 L 47.0 93.7 L 44.1 90.3 L 45.3 88.9 L 49.1 91.3 L 52.8 93.9 L 56.2 96.7 L 59.4 99.7 L 62.3 102.9 L 64.9 106.3 L 67.3 109.8 L 69.5 113.6 L 71.3 117.4 L 72.9 121.5 L 72.3 126.0 L 68.7 128.8 L 64.2 128.2 L 61.4 124.6 L 60.7 121.1 Z M 96.0 30.0 L 96.0 34.0 L 15.0 34.0 L 15.0 30.0 L 74.0 30.0 L 84.0 20.0 Z M 187.0 29.0 L 187.0 33.0 L 111.0 33.0 L 111.0 29.0 L 165.0 29.0 L 175.0 19.0 Z " />
</g>
</svg>
