<svg xmlns="http://www.w3.org/2000/svg" xmlns:xlink="http://www.w3.org/1999/xlink" version="1.1" baseProfile="full" viewBox="0 0 200 200" width="200" height="200">
<g fill="black">
<path d="M 40.0 185.3 L 30.0 175.3 L 36.0 169.3 L 36.0 137.6 L 48.0 139.6 L 51.0 141.6 L 48.0 143.4 L 48.0 173.3 L 94.0 173.3 L 94.0 129.5 L 15.0 129.5 L 15.0 125.5 L 94.0 125.5 L 94.0 96.1 L 54.65306119918823 96.1 L 53.6 97.3 L 48.9 101.9 L 44.0 106.4 L 38.6 110.6 L 33.0 114.6 L 26.9 118.3 L 20.5 121.7 L 19.4 120.2 L 24.7 115.3 L 29.6 110.5 L 34.3 105.7 L 38.7 101.0 L 42.7 96.2 L 46.5 91.3 L 49.9 86.4 L 52.9 81.4 L 55.7 76.4 L 57.16967420578003 73.27694234848022 L 55.4 73.2 L 52.3 69.9 L 51.7 67.6 L 50.9 65.2 L 49.9 62.8 L 48.6 60.4 L 47.1 57.9 L 45.3 55.4 L 43.2 52.8 L 40.9 50.1 L 38.3 47.3 L 35.3 44.8 L 36.3 43.3 L 39.9 45.1 L 43.5 46.7 L 46.8 48.5 L 49.9 50.5 L 52.7 52.6 L 55.3 54.9 L 57.7 57.4 L 59.9 60.0 L 61.8 62.7 L 63.5 65.6 L 63.3 70.2 L 61.4649619102478 71.97943086624146 L 68.8 76.7 L 70.6 79.9 L 66.67919998168945 80.17040004730225 L 65.5 82.1 L 61.9 87.4 L 58.13999996185303 92.1 L 147.0 92.1 L 157.0 82.1 L 169.0 92.1 L 169.0 96.1 L 106.0 96.1 L 106.0 125.5 L 163.0 125.5 L 173.0 115.5 L 185.0 125.5 L 185.0 129.5 L 106.0 129.5 L 106.0 173.3 L 152.0 173.3 L 152.0 137.6 L 164.0 139.6 L 167.0 141.6 L 164.0 143.4 L 164.0 181.3 L 152.0 187.3 L 152.0 177.3 L 48.0 177.3 Z M 163.5 38.8 L 165.0 42.1 L 160.83054714202882 42.029331302642824 L 160.2 42.8 L 158.1 45.3 L 155.7 48.3 L 153.0 51.6 L 150.0 55.2 L 146.7 59.3 L 143.1 63.7 L 139.0 68.4 L 134.7 73.4 L 133.2 72.4 L 136.2 66.5 L 138.9 60.9 L 141.5 55.8 L 143.9 51.2 L 146.1 47.0 L 148.1 43.3 L 149.8 39.9 L 151.2 37.0 L 152.4 34.5 L 152.89365425109864 33.34814004898071 L 152.8 33.3 L 153.1384614944458 32.77692308425903 L 153.3 32.4 L 153.35857257843017 32.436751461029054 L 153.9 31.6 Z M 97.8 59.5 L 97.1 57.5 L 96.1 55.4 L 94.9 53.2 L 93.4 50.9 L 91.6 48.5 L 89.5 45.9 L 87.1 43.3 L 84.3 40.8 L 85.3 39.3 L 88.6 41.2 L 92.0 42.7 L 95.1 44.4 L 97.9 46.2 L 100.5 48.2 L 102.8 50.2 L 105.0 52.3 L 106.9 54.6 L 108.5 57.0 L 109.9 59.6 L 109.3 64.1 L 105.8 67.1 L 101.3 66.5 L 98.3 63.0 L 98.2 61.3 Z M 166.05263156890868 16.831578922271728 L 176.7 25.6 L 177.1 28.6 L 172.6133858680725 26.417322826385497 L 168.2 27.3 L 157.5 29.0 L 146.0 30.6 L 133.6 32.1 L 120.3 33.4 L 106.2 34.7 L 91.1 35.8 L 75.2 36.7 L 58.4 37.4 L 40.6 37.9 L 22.0 38.1 L 21.9 36.3 L 40.4 34.1 L 57.9 32.1 L 74.6 30.1 L 90.4 28.2 L 105.2 26.2 L 119.2 24.2 L 132.2 22.2 L 144.3 20.0 L 155.5 17.8 L 164.8037798881531 15.81278486251831 L 164.8 15.8 L 164.81310577392577 15.810792922973633 L 165.8 15.6 Z " />
</g>
</svg>
