<svg xmlns="http://www.w3.org/2000/svg" xmlns:xlink="http://www.w3.org/1999/xlink" version="1.1" baseProfile="full" viewBox="0 0 200 200" width="200" height="200">
<g fill="black">
<path d="M 88.0 63.5 L 89.1 66.9 L 85.36786670684815 66.38522300720214 L 82.8 69.2 L 77.4 74.8 L 71.8 80.1 L 65.9 85.3 L 59.8 90.3 L 53.5 95.1 L 46.9 99.7 L 40.0 104.0 L 32.9 108.1 L 25.4 111.7 L 24.5 110.2 L 30.8 104.9 L 36.9 99.7 L 42.9 94.5 L 48.7 89.3 L 54.2 84.0 L 59.6 78.6 L 64.7 73.1 L 69.6 67.5 L 74.2 61.8 L 78.6 56.0 L 78.64592084884643 56.036639022827146 L 79.1 55.5 Z M 150.6 95.4 L 146.8 90.1 L 142.8 85.1 L 138.4 80.3 L 133.8 75.6 L 128.8 71.1 L 123.6 66.8 L 118.2 62.5 L 112.4 58.2 L 113.3 56.6 L 120.1 59.2 L 126.6 62.3 L 132.7 65.8 L 138.6 69.8 L 144.2 74.1 L 149.5 78.7 L 154.4 83.6 L 159.1 88.9 L 163.5 94.4 L 167.6 100.3 L 168.2 104.8 L 165.5 108.5 L 161.0 109.1 L 157.3 106.4 L 154.1 100.8 Z " />
</g>
</svg>
