<svg xmlns="http://www.w3.org/2000/svg" xmlns:xlink="http://www.w3.org/1999/xlink" version="1.1" baseProfile="full" viewBox="0 0 200 200" width="200" height="200">
<g fill="black">
<path d="M 66.0 62.0 L 134.0 62.0 L 140.0 57.0 L 151.0 66.0 L 146.0 70.0 L 146.0 91.0 L 134.0 97.0 L 134.0 89.0 L 66.0 89.0 L 66.0 92.0 L 54.0 98.0 L 54.0 56.0 Z M 66.0 66.0 L 66.0 85.0 L 134.0 85.0 L 134.0 66.0 Z M 16.2 77.5 L 15.4 73.0 L 18.0 69.2 L 19.9 68.2 L 21.8 66.7 L 23.7 64.7 L 25.5 62.1 L 27.1 59.1 L 28.5 55.4 L 29.8 51.2 L 31.0 46.5 L 32.0 41.2 L 32.6 35.4 L 34.4 35.3 L 35.2 41.2 L 35.54821424484253 45.1 L 95.5 45.1 L 95.5 11.9 L 107.5 13.9 L 110.5 15.9 L 107.5 17.7 L 107.5 45.1 L 127.1714285850525 45.1 L 130.0 41.8 L 133.1 37.7 L 136.0 34.0 L 138.7 30.6 L 141.1 27.5 L 143.1 24.6 L 144.9 22.1 L 146.4 19.9 L 147.5 18.0 L 147.85187969207763 17.296240615844727 L 147.7 17.2 L 148.7 15.8 L 157.8 23.6 L 159.0 27.0 L 154.5867272377014 26.543454551696776 L 154.3 26.8 L 152.1 28.7 L 149.5 30.7 L 146.7 33.0 L 143.6 35.4 L 140.1 38.1 L 136.3 41.0 L 132.1 44.0 L 130.63333330154418 45.1 L 170.3 45.1 L 170.91395349502562 44.58837213516235 L 171.1 44.1 L 171.33636360168458 44.23636360168457 L 176.3 40.1 L 187.3 49.1 L 182.3 52.1 L 178.50689659118652 53.68045978546142 L 178.0 54.3 L 176.0 56.5 L 173.9 58.8 L 171.6 61.2 L 169.1 63.7 L 166.4 66.3 L 163.5 69.0 L 160.4 71.8 L 157.3 74.8 L 155.9 73.6 L 158.2 70.0 L 160.1 66.4 L 161.9 62.9 L 163.7 59.7 L 165.3 56.7 L 166.8 53.8 L 168.1 51.1 L 169.06000003814697 49.1 L 35.7442307472229 49.1 L 35.8 52.0 L 35.5 56.9 L 34.8 61.5 L 33.7 65.7 L 32.1 69.7 L 30.1 73.3 L 27.5 76.5 L 24.5 79.3 L 20.0 80.1 Z M 59.4 36.9 L 58.2 34.6 L 56.8 32.4 L 55.2 30.1 L 53.3 27.9 L 51.3 25.6 L 49.1 23.3 L 46.6 20.9 L 43.8 18.9 L 44.6 17.3 L 48.0 18.6 L 51.3 19.8 L 54.5 21.2 L 57.5 22.8 L 60.3 24.5 L 63.0 26.4 L 65.5 28.5 L 67.8 30.8 L 69.9 33.2 L 71.9 35.7 L 72.2 40.3 L 69.4 43.9 L 64.8 44.2 L 61.3 41.4 L 60.4 39.1 Z " />
</g>
</svg>
