<svg xmlns="http://www.w3.org/2000/svg" xmlns:xlink="http://www.w3.org/1999/xlink" version="1.1" baseProfile="full" viewBox="0 0 200 200" width="200" height="200">
<g fill="black">
<path d="M 131.0 134.0 L 133.0 134.0 L 131.0 159.0 L 134.6 161.4 L 137.0 165.0 L 134.6 168.6 L 131.0 171.0 L 66.0 171.0 L 63.4 170.8 L 60.9 170.4 L 58.5 169.6 L 56.2 168.3 L 54.2 166.7 L 52.6 164.7 L 51.3 162.4 L 50.5 160.0 L 50.1 157.5 L 50.0 155.0 L 50.0 125.18955221176148 L 48.5 126.6 L 41.4 132.7 L 33.9 138.4 L 25.9 143.8 L 17.5 148.7 L 16.4 147.2 L 23.6 140.7 L 30.5 134.3 L 37.0 127.8 L 43.2 121.2 L 49.0 114.6 L 54.4 107.7 L 59.4 100.8 L 64.0 93.7 L 68.3 86.4 L 70.61891889572144 82.0 L 56.0 82.0 L 56.0 94.0 L 44.0 100.0 L 44.0 18.0 L 56.0 24.0 L 140.0 24.0 L 146.0 19.0 L 157.0 28.0 L 152.0 32.0 L 152.0 86.0 L 140.0 92.0 L 140.0 82.0 L 78.72985076904297 82.0 L 82.8 84.7 L 84.5 87.9 L 80.69753875732422 88.02889699935913 L 78.0 92.3 L 72.9 99.7 L 70.3436619758606 103.0 L 160.0 103.0 L 166.0 98.0 L 177.0 107.0 L 172.05642023086548 109.96614789962769 L 172.2 114.8 L 172.0 124.3 L 171.5 133.2 L 170.7 141.5 L 169.4 149.2 L 167.8 156.3 L 165.7 162.8 L 163.3 168.8 L 160.3 174.2 L 156.9 179.0 L 155.3 180.8 L 153.6 182.5 L 151.7 184.0 L 149.7 185.3 L 147.6 186.4 L 145.4 187.3 L 143.1 188.1 L 140.8 188.6 L 138.4 188.9 L 136.0 189.0 L 136.0 183.0 L 116.0 180.0 L 116.0 177.0 L 136.0 177.0 L 137.4 176.9 L 138.8 176.7 L 140.1 176.4 L 141.3 176.1 L 142.5 175.6 L 143.5 175.0 L 144.6 174.3 L 145.6 173.5 L 146.6 172.5 L 147.6 171.4 L 150.1 167.9 L 152.4 163.7 L 154.4 158.8 L 156.2 153.2 L 157.6 146.9 L 158.8 139.9 L 159.6 132.2 L 160.0 123.9 L 160.19962615966796 114.91682243347168 L 160.0 115.0 L 160.0 107.0 L 67.2289855003357 107.0 L 61.5 113.7 L 55.2 120.3 L 54.6880898475647 120.78134832382202 L 62.0 122.0 L 65.0 124.0 L 62.0 125.8 L 62.0 142.61315793991088 L 63.3 142.1 L 70.6 139.2 L 77.6 136.4 L 84.3 133.6 L 90.7 130.9 L 96.8 128.0 L 102.6 125.2 L 108.1 122.2 L 113.3 119.3 L 117.23055801391601 116.84340124130249 L 117.2 116.8 L 117.23819141387939 116.83863039016724 L 118.1 116.3 L 120.1 119.73333330154419 L 125.9 125.6 L 126.1 129.0 L 122.33274974822999 127.46755924224854 L 118.6 129.3 L 112.8 131.9 L 106.7 134.3 L 100.4 136.6 L 93.7 138.8 L 86.8 140.8 L 79.6 142.7 L 72.1 144.3 L 64.3 145.7 L 62.0 146.0123456954956 L 62.0 156.2 L 62.2 157.1 L 62.5 158.0 L 62.9 158.4 L 63.8 158.7 L 64.7 158.9 L 66.0 159.0 L 125.0 159.0 Z M 56.0 55.0 L 56.0 78.0 L 140.0 78.0 L 140.0 55.0 Z M 56.0 28.0 L 56.0 51.0 L 140.0 51.0 L 140.0 28.0 Z " />
</g>
</svg>
