<svg xmlns="http://www.w3.org/2000/svg" xmlns:xlink="http://www.w3.org/1999/xlink" version="1.1" baseProfile="full" viewBox="0 0 200 200" width="200" height="200">
<g fill="black">
<path d="M 19.2 185.6 L 19.2 181.0 L 22.4 177.8 L 25.3 176.8 L 27.9 175.6 L 30.3 174.2 L 32.5 172.4 L 34.6 170.4 L 36.5 167.9 L 38.2 165.1 L 39.7 161.8 L 41.1 158.1 L 42.0 153.9 L 43.8 154.0 L 44.0 158.4 L 44.0 162.7 L 43.6 166.8 L 42.6 170.7 L 41.2 174.5 L 39.3 178.0 L 36.9 181.2 L 34.0 184.1 L 30.7 186.7 L 27.0 188.9 L 22.4 188.8 Z M 168.8 179.0 L 167.4 176.4 L 165.7 173.6 L 163.6 170.8 L 161.1 167.8 L 158.2 164.8 L 155.0 161.6 L 151.4 158.3 L 147.4 155.0 L 148.3 153.4 L 153.1 155.6 L 157.7 157.8 L 161.9 160.1 L 165.7 162.5 L 169.2 165.1 L 172.4 167.7 L 175.2 170.5 L 177.7 173.4 L 179.8 176.4 L 181.6 179.6 L 181.3 184.1 L 178.0 187.3 L 173.4 187.0 L 170.3 183.7 L 169.7 181.4 Z M 121.4 176.8 L 120.9 174.6 L 120.0 172.2 L 118.8 169.7 L 117.2 167.1 L 115.3 164.4 L 113.0 161.5 L 110.4 158.5 L 107.3 155.8 L 108.3 154.3 L 112.1 156.4 L 115.7 158.3 L 119.1 160.4 L 122.1 162.6 L 124.8 165.0 L 127.2 167.5 L 129.3 170.2 L 131.1 173.0 L 132.5 176.0 L 133.5 179.2 L 132.3 183.6 L 128.3 185.9 L 123.9 184.7 L 121.6 180.7 L 121.7 178.8 Z M 80.6 185.9 L 76.6 183.6 L 75.4 179.2 L 75.9 177.4 L 76.3 175.4 L 76.4 173.4 L 76.2 171.3 L 75.8 169.0 L 75.1 166.5 L 74.2 164.0 L 72.9 161.3 L 71.3 158.4 L 69.1 155.8 L 70.3 154.5 L 73.1 156.7 L 75.9 158.7 L 78.5 160.9 L 80.7 163.3 L 82.6 165.8 L 84.2 168.5 L 85.6 171.3 L 86.5 174.3 L 87.1 177.5 L 87.3 180.7 L 85.0 184.7 Z M 16.0 143.8 L 94.0 143.8 L 94.0 128.3 L 34.0 128.3 L 34.0 124.3 L 94.0 124.3 L 94.0 105.5 L 51.0 105.5 L 51.0 108.5 L 39.0 114.5 L 39.0 53.9 L 51.0 59.9 L 94.0 59.9 L 94.0 46.0 L 18.0 46.0 L 18.0 42.0 L 94.0 42.0 L 94.0 30.188524627685545 L 83.0 31.0 L 70.5 31.7 L 57.7 32.3 L 44.5 32.6 L 31.0 32.6 L 30.9 30.8 L 44.2 28.8 L 57.2 26.9 L 69.9 25.2 L 82.2 23.4 L 94.2 21.7 L 105.9 19.8 L 117.2 18.0 L 128.1 16.1 L 138.7 14.1 L 148.9 12.1 L 149.0953133583069 13.206775856018066 L 160.2 22.4 L 160.5 25.4 L 156.06000003814697 23.119999980926515 L 151.0 24.0 L 140.5 25.4 L 129.7 26.7 L 118.5 27.9 L 107.0 29.1 L 106.0 29.18474578857422 L 106.0 42.0 L 159.0 42.0 L 169.0 32.0 L 181.0 42.0 L 181.0 46.0 L 106.0 46.0 L 106.0 59.9 L 149.0 59.9 L 155.0 54.9 L 166.0 63.9 L 161.0 67.9 L 161.0 107.5 L 149.0 113.5 L 149.0 105.5 L 106.0 105.5 L 106.0 124.3 L 151.8181818008423 124.3 L 160.0 115.3 L 170.0 124.3 L 170.0 128.3 L 106.0 128.3 L 106.0 143.8 L 161.0 143.8 L 171.0 133.8 L 183.0 143.8 L 183.0 147.8 L 16.0 147.8 Z M 51.0 85.1 L 51.0 101.5 L 94.0 101.5 L 94.0 85.1 Z M 106.0 85.1 L 106.0 101.5 L 149.0 101.5 L 149.0 85.1 Z M 51.0 63.9 L 51.0 81.1 L 94.0 81.1 L 94.0 63.9 Z M 106.0 63.9 L 106.0 81.1 L 149.0 81.1 L 149.0 63.9 Z " />
</g>
</svg>
