<svg xmlns="http://www.w3.org/2000/svg" xmlns:xlink="http://www.w3.org/1999/xlink" version="1.1" baseProfile="full" viewBox="0 0 200 200" width="200" height="200">
<g fill="black">
<path d="M 131.9 175.4 L 143.9 175.4 L 145.1 175.3 L 146.0 175.2 L 146.6 175.0 L 147.0 174.8 L 147.1 174.6 L 147.3 174.4 L 147.5 174.1 L 147.7 173.5 L 147.8 172.6 L 147.9 171.4 L 147.9 154.7 L 106.0 154.7 L 106.0 181.0 L 94.0 187.0 L 94.0 154.7 L 48.787878799438474 154.7 L 48.0 157.3 L 45.4 163.5 L 42.2 169.1 L 38.4 174.2 L 34.0 178.8 L 29.2 182.8 L 23.7 186.1 L 17.8 188.6 L 16.9 187.1 L 21.5 183.0 L 25.6 178.7 L 29.2 174.4 L 32.2 169.8 L 34.7 165.0 L 36.8 159.8 L 38.4 154.4 L 39.4 148.6 L 40.1 142.4 L 40.2 135.9 L 40.2 96.6 L 52.2 102.6 L 94.0 102.6 L 94.0 84.0 L 39.0 84.0 L 39.0 80.0 L 94.0 80.0 L 94.0 61.0 L 18.0 61.0 L 18.0 57.0 L 94.0 57.0 L 94.0 38.0 L 39.0 38.0 L 39.0 34.0 L 94.0 34.0 L 94.0 13.0 L 106.0 15.0 L 109.0 17.0 L 106.0 18.8 L 106.0 34.0 L 146.0 34.0 L 152.0 29.0 L 163.0 38.0 L 158.0 42.0 L 158.0 57.0 L 167.8181818008423 57.0 L 176.0 48.0 L 186.0 57.0 L 186.0 61.0 L 158.0 61.0 L 158.0 86.0 L 146.0 92.0 L 146.0 84.0 L 106.0 84.0 L 106.0 102.6 L 147.9 102.6 L 153.9 97.6 L 164.9 106.6 L 159.9 110.6 L 159.9 171.4 L 159.8 173.9 L 159.3 176.4 L 158.5 178.8 L 157.3 181.1 L 155.6 183.1 L 153.6 184.8 L 151.4 186.0 L 148.9 186.8 L 146.5 187.2 L 143.9 187.4 L 143.9 181.4 L 131.9 178.4 Z M 52.2 136.2 L 51.4 143.7 L 50.0 150.7 L 94.0 150.7 L 94.0 130.7 L 52.2 130.7 L 52.2 136.1 L 52.13442621231079 136.1983606338501 Z M 106.0 130.7 L 106.0 150.7 L 147.9 150.7 L 147.9 130.7 Z M 52.2 106.6 L 52.2 126.7 L 94.0 126.7 L 94.0 106.6 Z M 106.0 106.6 L 106.0 126.7 L 147.9 126.7 L 147.9 106.6 Z M 106.0 61.0 L 106.0 80.0 L 146.0 80.0 L 146.0 61.0 Z M 106.0 38.0 L 106.0 57.0 L 146.0 57.0 L 146.0 38.0 Z " />
</g>
</svg>
