<svg xmlns="http://www.w3.org/2000/svg" xmlns:xlink="http://www.w3.org/1999/xlink" version="1.1" baseProfile="full" viewBox="0 0 200 200" width="200" height="200">
<g fill="black">
<path d="M 13.9 133.6 L 21.3 128.6 L 25.1 126.0 L 32.9 120.6 L 37.0 117.7 L 41.1 114.9 L 45.4 112.0 L 49.8 109.1 L 51.3 108.18695650100707 L 51.3 13.0 L 63.3 15.0 L 66.3 17.0 L 63.3 18.8 L 63.3 184.0 L 51.3 190.0 L 51.3 112.98529415130615 L 48.8 116.0 L 45.4 119.8 L 41.9 123.5 L 34.9 130.5 L 31.4 133.8 L 28.0 137.0 L 24.6 140.1 L 24.377570056915282 140.29626169204712 L 24.6 144.3 L 21.2 143.1 L 12.3 134.8 Z M 125.7 176.7 L 144.9 176.7 L 145.8 176.5 L 146.4 176.3 L 147.0 176.0 L 147.1 175.8 L 147.3 175.5 L 147.5 174.9 L 147.6 174.0 L 147.7 172.7 L 147.7 117.5 L 71.8 117.5 L 71.8 113.5 L 147.7 113.5 L 147.7 85.0 L 159.7 87.0 L 162.7 89.0 L 159.7 90.8 L 159.7 113.5 L 165.3 113.5 L 175.3 103.5 L 187.3 113.5 L 187.3 117.5 L 159.7 117.5 L 159.7 172.7 L 159.6 175.3 L 159.1 177.8 L 158.3 180.2 L 157.1 182.5 L 155.4 184.5 L 153.4 186.1 L 151.2 187.4 L 148.8 188.2 L 146.3 188.6 L 143.7 188.7 L 143.7 182.7 L 125.7 179.7 Z M 109.6 147.4 L 108.7 145.4 L 107.6 143.2 L 106.2 141.0 L 104.5 138.7 L 102.6 136.4 L 100.3 133.9 L 97.9 131.4 L 94.9 129.1 L 95.8 127.6 L 99.3 129.2 L 102.7 130.6 L 105.9 132.1 L 108.8 133.8 L 111.6 135.7 L 114.1 137.7 L 116.4 139.8 L 118.4 142.1 L 120.2 144.6 L 121.8 147.2 L 121.5 151.8 L 118.2 154.9 L 113.6 154.6 L 110.5 151.3 L 110.1 149.4 Z M 127.1 60.7 L 125.7 59.0 L 124.0 57.3 L 122.0 55.5 L 119.7 53.6 L 117.1 51.7 L 114.3 49.6 L 111.3 47.4 L 110.53138952255249 46.99308853149414 L 109.5 47.9 L 103.4 52.6 L 96.8 57.1 L 94.97086610794068 58.186876678466795 L 97.5 58.8 L 100.7 59.8 L 103.7 60.9 L 106.6 62.1 L 109.4 63.4 L 112.0 64.8 L 114.5 66.4 L 116.8 68.0 L 119.0 69.8 L 120.4 74.2 L 118.4 78.3 L 114.1 79.7 L 109.9 77.7 L 108.8 75.9 L 107.5 74.0 L 106.0 72.2 L 104.3 70.3 L 102.5 68.4 L 100.4 66.4 L 98.1 64.5 L 95.7 62.4 L 93.1 60.3 L 92.23732833862304 59.81115274429321 L 89.9 61.2 L 82.6 65.0 L 74.9 68.3 L 74.0 66.7 L 80.6 61.7 L 86.9 56.8 L 92.9 51.8 L 98.5 46.8 L 103.8 41.6 L 108.7 36.3 L 113.2 30.9 L 117.3 25.4 L 121.1 19.7 L 124.6 13.8 L 124.62157363891602 13.81332483291626 L 125.1 13.0 L 134.8 20.1 L 136.3 23.4 L 132.51971511840821 23.33482265472412 L 130.5 26.2 L 125.8 32.0 L 125.61454544067382 32.2 L 166.8 32.2 L 167.3962025642395 31.70316457748413 L 167.7 31.2 L 167.87657146453859 31.30285711288452 L 172.8 27.2 L 183.8 36.2 L 178.8 39.2 L 175.84615383148193 40.4307692527771 L 170.6 48.3 L 162.5 58.5 L 153.6 67.9 L 144.1 76.5 L 133.9 84.2 L 123.0 91.1 L 111.4 97.1 L 99.2 102.3 L 86.3 106.5 L 72.7 109.6 L 72.3 107.9 L 85.0 102.9 L 97.1 97.4 L 108.4 91.3 L 119.0 84.7 L 128.8 77.4 L 138.0 69.5 L 146.4 60.9 L 154.2 51.7 L 161.3 41.8 L 164.68113203048705 36.2 L 121.90545454025269 36.2 L 120.7 37.5 L 115.3 42.8 L 112.61007490158082 45.165278911590576 L 116.1 45.9 L 119.5 46.8 L 122.8 47.9 L 125.8 49.0 L 128.6 50.1 L 131.2 51.4 L 133.7 52.7 L 135.9 54.1 L 138.0 55.7 L 139.4 60.0 L 137.5 64.1 L 133.1 65.6 L 129.0 63.6 L 128.2 62.2 Z M 35.7 68.6 L 34.0 65.0 L 32.2 61.5 L 30.2 58.2 L 27.9 55.0 L 25.5 52.0 L 23.0 49.0 L 20.2 46.0 L 17.2 43.2 L 18.1 41.7 L 22.1 43.3 L 25.9 45.2 L 29.6 47.5 L 33.1 50.1 L 36.4 53.0 L 39.4 56.3 L 42.3 59.8 L 45.0 63.6 L 47.5 67.6 L 49.7 71.9 L 49.6 76.5 L 46.4 79.7 L 41.8 79.6 L 38.6 76.4 L 37.2 72.4 Z " />
</g>
</svg>
