<svg xmlns="http://www.w3.org/2000/svg" xmlns:xlink="http://www.w3.org/1999/xlink" version="1.1" baseProfile="full" viewBox="0 0 200 200" width="200" height="200">
<g fill="black">
<path d="M 101.2 25.5 L 142.0 25.5 L 148.0 20.5 L 159.0 29.5 L 154.0 33.5 L 154.0 164.6 L 154.2 165.5 L 154.4 166.1 L 154.6 166.4 L 154.7 166.6 L 154.9 166.7 L 155.2 166.9 L 155.8 167.1 L 156.7 167.3 L 177.9 167.3 L 183.9 142.3 L 185.9 142.3 L 183.9 167.3 L 187.5 169.7 L 189.9 173.3 L 187.5 176.9 L 183.9 179.3 L 158.0 179.3 L 155.4 179.2 L 152.9 178.7 L 150.5 177.9 L 148.3 176.7 L 146.2 175.1 L 144.6 173.1 L 143.4 170.8 L 142.6 168.4 L 142.1 165.9 L 142.0 163.3 L 142.0 29.5 L 101.2 29.5 L 101.2 102.4 L 100.5 114.8 L 99.1 126.3 L 96.8 136.9 L 93.7 146.7 L 89.9 155.6 L 85.2 163.6 L 79.7 170.6 L 73.4 176.5 L 66.4 181.3 L 58.7 185.0 L 57.9 183.4 L 64.2 178.3 L 69.7 172.6 L 74.6 166.5 L 78.7 159.7 L 82.1 152.1 L 84.9 143.8 L 87.0 134.7 L 88.4 124.8 L 89.2 114.0 L 89.2 19.5 Z M 15.1 139.9 L 20.7 138.4 L 26.6 136.9 L 32.8 135.2 L 39.0 133.48307695388795 L 39.0 49.0 L 17.0 49.0 L 17.0 45.0 L 57.0 45.0 L 67.0 35.0 L 79.0 45.0 L 79.0 49.0 L 51.0 49.0 L 51.0 130.2887324333191 L 53.2 129.7 L 60.6 127.8 L 68.2 125.8 L 76.3 123.9 L 84.7 122.1 L 85.2 123.8 L 77.5 127.5 L 70.0 130.9 L 62.7 134.0 L 55.6 136.9 L 48.8 139.6 L 42.2 142.3 L 36.0 144.7 L 29.9 147.1 L 24.2 149.3 L 22.617697334289552 149.9041519165039 L 21.6 153.6 L 18.7 151.4 L 13.2 140.5 Z M 121.1 93.5 L 120.2 90.0 L 119.1 86.5 L 117.9 83.1 L 116.4 79.7 L 114.8 76.3 L 113.1 73.0 L 111.2 69.6 L 109.0 66.3 L 110.3 65.0 L 113.5 67.5 L 116.7 70.1 L 119.6 72.9 L 122.3 76.0 L 124.8 79.2 L 127.1 82.7 L 129.2 86.3 L 131.1 90.1 L 132.7 94.0 L 134.2 98.1 L 133.4 102.6 L 129.7 105.3 L 125.2 104.5 L 122.5 100.8 L 121.9 97.2 Z " />
</g>
</svg>
