<svg xmlns="http://www.w3.org/2000/svg" xmlns:xlink="http://www.w3.org/1999/xlink" version="1.1" baseProfile="full" viewBox="0 0 200 200" width="200" height="200">
<g fill="black">
<path d="M 168.1 96.9 L 166.5 98.8 L 164.7 100.4 L 162.7 101.8 L 160.6 103.0 L 158.3 103.9 L 155.9 104.5 L 153.5 104.8 L 151.0 105.0 L 151.0 99.0 L 131.0 96.0 L 131.0 93.0 L 151.0 93.0 L 152.3 92.9 L 153.5 92.7 L 154.6 92.4 L 155.6 92.1 L 157.2 91.1 L 158.0 90.4 L 158.7 89.5 L 159.4 88.5 L 160.1 87.3 L 161.2 84.6 L 162.3 81.2 L 163.3 77.1 L 164.2 72.4 L 164.9 67.1 L 165.4 61.1 L 165.8 54.5 L 166.0 47.3 L 166.0812029838562 40.966165447235106 L 166.0 41.0 L 166.0 33.0 L 138.67886180877684 33.0 L 137.3 43.6 L 134.7 55.0 L 131.1 65.5 L 126.5 75.1 L 121.0 83.8 L 114.4 91.5 L 107.0 98.2 L 98.6 103.9 L 89.4 108.4 L 79.3 111.8 L 78.6 110.1 L 87.6 105.0 L 95.6 99.4 L 102.6 93.3 L 108.7 86.5 L 113.9 79.1 L 118.2 70.9 L 121.7 62.0 L 124.3 52.4 L 126.1 41.9 L 126.75321102142334 33.0 L 101.0 33.0 L 101.0 29.0 L 166.0 29.0 L 172.0 24.0 L 183.0 33.0 L 178.0206421852112 35.98761463165283 L 178.1 39.4 L 178.0 47.5 L 177.8 55.0 L 177.4 62.0 L 176.8 68.4 L 176.0 74.2 L 175.0 79.6 L 173.9 84.4 L 172.5 88.8 L 170.8 92.7 L 169.6 94.9 Z M 81.8 79.4 L 80.59274921417236 76.91842899322509 L 76.6 79.2 L 69.2 83.3 L 61.9 87.0 L 54.8 90.5 L 48.0 93.8 L 41.5 96.9 L 35.2 99.7 L 29.2 102.4 L 23.4 104.9 L 21.774780559539796 105.60918664932251 L 20.8 109.4 L 17.9 107.3 L 12.0 96.6 L 13.9 96.0 L 19.5 94.3 L 25.4 92.4 L 29.0 91.23870964050293 L 29.0 32.0 L 39.16610174179077 37.08305082321167 L 40.9 36.3 L 46.8 33.8 L 52.5 31.4 L 57.9 29.1 L 63.1 26.8 L 67.9 24.6 L 72.5 22.4 L 76.7 20.3 L 80.7 18.1 L 83.50485038757324 16.508057880401612 L 83.5 16.5 L 83.507093334198 16.506784915924072 L 84.4 16.0 L 85.65864944458008 18.564795112609865 L 92.7 25.3 L 92.9 28.5 L 89.22304744720459 26.993052196502685 L 85.5 28.5 L 81.0 30.1 L 76.2 31.7 L 71.2 33.3 L 65.9 34.8 L 60.3 36.3 L 54.5 37.6 L 48.4 38.9 L 41.9 40.0 L 41.0 40.10746269226074 L 41.0 87.18529415130615 L 44.8 85.9 L 51.9 83.5 L 59.3 81.0 L 67.1 78.3 L 75.1 75.7 L 79.2751558303833 74.42289352416992 L 77.9 72.0 L 75.5 68.4 L 72.8 64.8 L 69.7 61.2 L 66.2 57.6 L 62.5 53.9 L 58.3 50.2 L 59.3 48.7 L 64.5 50.9 L 69.4 53.5 L 73.9 56.3 L 78.0 59.5 L 81.8 62.9 L 85.3 66.5 L 88.4 70.3 L 91.2 74.4 L 93.6 78.7 L 95.7 83.2 L 95.3 87.8 L 91.9 90.8 L 87.3 90.4 L 84.3 87.0 L 83.2 83.2 Z " />
</g>
</svg>
