<svg xmlns="http://www.w3.org/2000/svg" xmlns:xlink="http://www.w3.org/1999/xlink" version="1.1" baseProfile="full" viewBox="0 0 200 200" width="200" height="200">
<g fill="black">
<path d="M 152.9 177.0 L 164.5 177.0 L 165.1 176.9 L 165.6 176.8 L 165.8 176.7 L 165.9 176.6 L 166.1 176.5 L 166.3 176.1 L 166.5 175.5 L 166.7 174.6 L 166.9 173.4 L 167.0 172.0 L 167.0 32.0 L 105.0 32.0 L 105.0 179.5 L 95.0 184.5 L 95.0 32.0 L 34.0 32.0 L 34.0 182.0 L 22.0 188.0 L 22.0 22.0 L 34.0 28.0 L 167.0 28.0 L 172.0 23.0 L 182.0 32.0 L 177.0 35.0 L 177.0 172.0 L 176.9 174.3 L 176.6 176.5 L 176.0 178.6 L 175.2 180.6 L 174.1 182.5 L 172.6 184.1 L 170.8 185.4 L 168.7 186.3 L 166.6 186.8 L 164.5 187.0 L 164.5 182.0 L 152.9 179.5 Z M 79.2 112.5 L 79.1816831588745 112.41452140808106 L 75.7 114.2 L 71.6 115.9 L 71.1 116.09512195587158 L 71.1 176.4 L 59.1 182.4 L 59.1 135.27307691574097 L 57.00802917480469 136.2788321495056 L 56.9 136.9 L 55.8 141.4 L 54.5 145.9 L 53.0 150.3 L 51.4 154.7 L 49.5 158.9 L 47.4 163.1 L 45.0 167.2 L 42.3 171.1 L 39.4 174.9 L 37.9 174.0 L 39.2 169.6 L 40.4 165.1 L 42.6 156.5 L 43.5 152.2 L 44.9 143.8 L 45.3 139.6 L 45.6 135.4 L 45.75709753036499 132.10095167160034 L 45.7 132.1 L 46.0 129.0 L 57.7 132.3 L 59.1 133.45 L 59.1 120.4 L 54.8 121.7 L 50.4 122.9 L 46.0 124.0 L 45.73599996566772 124.06000003814697 L 44.0 127.7 L 41.6 125.0 L 37.9 113.4 L 39.9 113.1 L 44.3 112.8 L 50.66707754135132 112.20771369934081 L 51.6 110.1 L 54.5 104.0 L 57.4 98.0 L 60.4 92.1 L 63.3 86.1 L 69.1 74.3 L 74.7 62.3 L 76.9804536819458 57.23232517242432 L 76.9 57.2 L 77.9 55.2 L 88.1 61.7 L 89.9 64.9 L 86.1314356803894 65.1599009513855 L 84.8 67.5 L 81.4 73.3 L 77.9 79.1 L 74.3 84.7 L 70.7 90.4 L 63.1 101.4 L 59.1 106.8 L 55.190285205841064 111.7336877822876 L 65.8 110.5 L 70.0 109.9 L 78.42670021057128 108.92015113830567 L 78.0 107.0 L 76.4 101.6 L 75.4 99.1 L 74.4 96.5 L 73.3 93.9 L 71.7 91.6 L 73.0 90.4 L 75.2 92.2 L 77.6 94.0 L 79.9 96.1 L 82.0 98.3 L 84.0 100.8 L 85.8 103.5 L 87.5 106.3 L 89.0 109.3 L 90.4 112.4 L 91.7 115.7 L 90.9 120.2 L 87.2 122.9 L 82.7 122.1 L 80.0 118.4 L 79.6 115.4 Z M 151.8 160.3 L 151.6 157.0 L 151.18484849929808 154.26000003814698 L 150.4 155.0 L 146.7 158.1 L 142.8 161.0 L 138.8 163.8 L 134.8 166.4 L 130.6 169.0 L 126.3 171.4 L 121.9 173.8 L 117.5 176.0 L 116.7908899307251 176.3466760635376 L 115.9 180.3 L 113.0 178.2 L 106.7 167.8 L 108.6 167.1 L 113.1 165.6 L 122.1 162.4 L 130.6 159.11590909957886 L 130.6 121.5 L 121.0 121.5 L 121.0 133.5 L 112.0 138.0 L 112.0 66.2 L 121.0 70.7 L 130.6 70.7 L 130.6 36.9 L 140.6 38.9 L 143.1 40.9 L 140.6 42.56666669845581 L 140.6 70.7 L 150.2 70.7 L 154.7 65.7 L 164.2 74.7 L 159.2 77.2 L 159.2 121.5 L 150.2 126.0 L 150.2 121.5 L 140.6 121.5 L 140.6 155.02325582504272 L 144.0 153.6 L 148.5 151.9 L 150.61538457870483 151.03461542129517 L 150.5 150.4 L 149.7 147.1 L 148.7 143.8 L 147.6 140.4 L 146.4 136.9 L 144.7 133.5 L 146.1 132.5 L 151.5 138.1 L 153.8 141.2 L 156.0 144.4 L 157.9 147.7 L 159.5 151.2 L 160.9 154.8 L 162.1 158.5 L 163.1 162.3 L 163.8 166.2 L 162.3 170.5 L 158.2 172.6 L 153.9 171.1 L 151.9 167.0 L 151.9 163.7 Z M 78.8 150.4 L 78.4 147.3 L 77.8 144.3 L 77.1 141.4 L 76.4 138.6 L 75.5 135.8 L 74.6 133.1 L 73.6 130.4 L 72.2 127.9 L 73.5 126.8 L 75.7 128.8 L 78.1 130.8 L 80.2 133.1 L 82.2 135.6 L 84.1 138.3 L 85.8 141.3 L 87.4 144.4 L 88.8 147.7 L 90.1 151.1 L 91.3 154.7 L 90.3 159.2 L 86.5 161.7 L 82.0 160.7 L 79.5 156.9 L 79.2 153.6 Z M 121.0 74.7 L 121.0 117.5 L 130.6 117.5 L 130.6 74.7 Z M 140.6 74.7 L 140.6 117.5 L 150.2 117.5 L 150.2 74.7 Z M 49.6 82.8 L 48.9 80.4 L 48.0 78.0 L 46.9 75.7 L 45.7 73.4 L 44.3 71.1 L 42.8 68.8 L 41.1 66.4 L 39.0 64.4 L 40.0 62.9 L 42.6 64.4 L 45.4 65.7 L 48.1 67.3 L 50.50018148422241 69.02813062667846 L 50.8 68.3 L 51.9 64.7 L 55.5 54.5 L 56.8 51.1 L 57.9 47.7 L 59.1 44.4 L 60.3 41.0 L 61.09764127731323 38.53456325531006 L 61.0 38.5 L 61.9 36.4 L 72.3 42.5 L 74.3 45.5 L 70.28298902511597 46.054070472717285 L 68.6 48.8 L 66.6 52.0 L 64.6 55.1 L 60.4 61.1 L 58.1 64.1 L 55.8 67.0 L 53.3 69.7 L 52.442000007629396 70.78182611465454 L 52.9 71.2 L 55.0 73.4 L 57.1 75.7 L 58.9 78.3 L 60.6 81.0 L 62.1 83.9 L 61.7 88.5 L 58.3 91.5 L 53.7 91.1 L 50.7 87.7 L 50.2 85.2 Z " />
</g>
</svg>
