<svg xmlns="http://www.w3.org/2000/svg" xmlns:xlink="http://www.w3.org/1999/xlink" version="1.1" baseProfile="full" viewBox="0 0 200 200" width="200" height="200">
<g fill="black">
<path d="M 72.4 180.8 L 69.9 180.4 L 67.5 179.6 L 65.2 178.3 L 63.2 176.7 L 61.6 174.7 L 60.3 172.4 L 59.5 170.0 L 59.1 167.5 L 59.0 165.0 L 59.0 79.0 L 51.77162160873413 79.0 L 50.9 91.9 L 49.3 105.9 L 47.1 119.1 L 44.2 131.4 L 40.8 142.9 L 36.7 153.6 L 31.9 163.3 L 26.5 172.1 L 20.4 179.9 L 13.6 186.6 L 12.3 185.3 L 17.3 177.6 L 21.9 169.3 L 26.0 160.4 L 29.6 150.8 L 32.6 140.5 L 35.2 129.3 L 37.2 117.4 L 38.7 104.7 L 39.6 91.1 L 39.85744676589966 79.0 L 20.0 79.0 L 20.0 75.0 L 69.0 75.0 L 79.0 65.0 L 91.0 75.0 L 91.0 79.0 L 71.0 79.0 L 71.0 166.2 L 71.2 167.1 L 71.5 168.0 L 71.9 168.4 L 72.8 168.7 L 73.7 168.9 L 75.0 169.0 L 176.0 169.0 L 182.0 144.0 L 184.0 144.0 L 182.0 169.0 L 185.6 171.4 L 188.0 175.0 L 185.6 178.6 L 182.0 181.0 L 75.0 181.0 Z M 127.0 148.7 L 147.0 148.7 L 148.2 148.6 L 149.1 148.4 L 150.0 148.1 L 150.4 147.7 L 150.7 146.8 L 150.9 145.9 L 151.0 144.7 L 151.0 58.9 L 95.0 58.9 L 95.0 54.9 L 151.0 54.9 L 151.0 10.9 L 163.0 12.9 L 166.0 14.9 L 163.0 16.7 L 163.0 54.9 L 166.0 54.9 L 176.0 44.9 L 188.0 54.9 L 188.0 58.9 L 163.0 58.9 L 163.0 144.7 L 162.8 147.2 L 162.4 149.7 L 161.6 152.1 L 160.3 154.4 L 158.7 156.4 L 156.7 158.0 L 154.4 159.3 L 152.0 160.1 L 149.5 160.5 L 147.0 160.7 L 147.0 154.7 L 127.0 151.7 Z M 121.3 102.5 L 119.7 99.3 L 117.9 96.1 L 115.7 92.9 L 113.1 89.6 L 110.2 86.3 L 106.9 83.0 L 103.3 79.5 L 99.3 76.0 L 100.3 74.5 L 105.2 76.7 L 109.8 79.0 L 114.1 81.6 L 118.1 84.4 L 121.7 87.3 L 124.9 90.5 L 127.9 93.8 L 130.5 97.3 L 132.8 101.0 L 134.7 104.8 L 134.3 109.4 L 130.9 112.4 L 126.4 112.1 L 123.3 108.7 L 122.4 105.6 Z M 84.0 31.0 L 84.0 35.0 L 26.0 35.0 L 26.0 31.0 L 62.0 31.0 L 72.0 21.0 Z " />
</g>
</svg>
