<svg xmlns="http://www.w3.org/2000/svg" xmlns:xlink="http://www.w3.org/1999/xlink" version="1.1" baseProfile="full" viewBox="0 0 200 200" width="200" height="200">
<g fill="black">
<path d="M 119.4 128.8 L 161.2 128.8 L 167.2 123.8 L 178.2 132.8 L 173.2 136.8 L 173.2 178.7 L 161.2 184.7 L 161.2 174.7 L 119.4 174.7 L 119.4 181.7 L 107.4 187.7 L 107.4 122.8 Z M 39.7 128.8 L 81.5 128.8 L 87.5 123.8 L 98.5 132.8 L 93.5 136.8 L 93.5 178.7 L 81.5 184.7 L 81.5 174.7 L 39.7 174.7 L 39.7 181.7 L 27.7 187.7 L 27.7 122.8 Z M 119.4 132.8 L 119.4 170.7 L 161.2 170.7 L 161.2 132.8 Z M 39.7 132.8 L 39.7 170.7 L 81.5 170.7 L 81.5 132.8 Z M 66.6 69.3 L 137.2 69.3 L 143.2 64.3 L 154.2 73.3 L 149.2 77.3 L 149.2 113.5 L 137.2 119.5 L 137.2 111.5 L 66.6 111.5 L 66.6 114.5 L 54.6 120.5 L 54.6 63.3 Z M 66.6 73.3 L 66.6 107.5 L 137.2 107.5 L 137.2 73.3 Z M 78.8 18.0 L 80.8 21.0 L 76.99219789505005 21.525214099884032 L 74.8 25.8 L 70.3 33.4 L 65.4 40.6 L 60.0 47.6 L 59.64242420196533 48.0 L 160.8 48.0 L 170.8 38.0 L 182.8 48.0 L 182.8 52.0 L 56.06666669845581 52.0 L 54.1 54.2 L 47.8 60.6 L 41.0 66.6 L 33.7 72.2 L 25.9 77.4 L 17.6 82.2 L 16.6 80.7 L 23.6 74.4 L 30.2 68.1 L 36.5 61.8 L 42.3 55.3 L 47.6 48.7 L 52.5 42.0 L 57.0 35.1 L 61.0 28.0 L 64.6 20.7 L 67.8 13.2 L 67.80771389007569 13.203366088867188 L 68.3 12.0 Z " />
</g>
</svg>
