<svg xmlns="http://www.w3.org/2000/svg" xmlns:xlink="http://www.w3.org/1999/xlink" version="1.1" baseProfile="full" viewBox="0 0 200 200" width="200" height="200">
<g fill="black">
<path d="M 165.9 117.0 L 165.9 76.0 L 126.9 76.0 L 126.9 104.0 L 126.1238805770874 117.0 Z M 35.4 90.7 L 35.4 121.2 L 55.2 121.2 L 55.2 90.7 Z M 67.2 90.7 L 67.2 121.2 L 85.9 121.2 L 85.9 90.7 Z M 126.9 31.0 L 126.9 72.0 L 165.9 72.0 L 165.9 31.0 Z M 45.7 40.0 L 45.7 60.0 L 75.7 60.0 L 75.7 40.0 Z M 177.3 177.0 L 176.5 179.4 L 175.3 181.7 L 173.6 183.7 L 171.6 185.3 L 169.4 186.6 L 166.9 187.4 L 164.5 187.8 L 161.9 188.0 L 161.9 182.0 L 141.9 179.0 L 141.9 176.0 L 161.9 176.0 L 163.1 175.9 L 164.0 175.7 L 164.6 175.5 L 165.0 175.4 L 165.1 175.2 L 165.3 175.0 L 165.5 174.7 L 165.7 174.1 L 165.8 173.2 L 165.9 172.0 L 165.9 121.0 L 125.58159999847412 121.0 L 124.3 129.9 L 121.6 141.3 L 117.9 151.7 L 113.2 161.0 L 107.5 169.1 L 100.8 176.0 L 93.2 181.6 L 84.8 185.9 L 75.5 188.8 L 74.9 187.1 L 83.0 182.5 L 90.1 177.3 L 96.2 171.3 L 101.4 164.6 L 105.7 156.9 L 107.30588235855103 153.0 L 67.2 153.0 L 67.2 183.0 L 55.2 189.0 L 55.2 153.0 L 13.6 153.0 L 13.6 149.0 L 55.2 149.0 L 55.2 125.2 L 35.4 125.2 L 35.4 132.2 L 23.4 138.2 L 23.4 80.7 L 35.4 86.7 L 55.2 86.7 L 55.2 64.0 L 45.7 64.0 L 45.7 71.0 L 33.7 77.0 L 33.7 40.0 L 14.7 40.0 L 14.7 36.0 L 33.7 36.0 L 33.7 13.0 L 45.7 15.0 L 48.7 17.0 L 45.7 18.8 L 45.7 36.0 L 75.7 36.0 L 75.7 13.0 L 87.7 15.0 L 90.7 17.0 L 87.7 18.8 L 87.7 36.0 L 89.61818180084228 36.0 L 97.8 27.0 L 107.8 36.0 L 107.8 40.0 L 87.7 40.0 L 87.7 68.0 L 75.7 74.0 L 75.7 64.0 L 67.2 64.0 L 67.2 86.7 L 85.9 86.7 L 91.9 81.7 L 102.9 90.7 L 97.9 94.7 L 97.9 129.2 L 85.9 135.2 L 85.9 125.2 L 67.2 125.2 L 67.2 149.0 L 85.8 149.0 L 95.8 139.0 L 107.8 149.0 L 107.8 151.8 L 109.2 148.4 L 111.9 138.8 L 113.7 128.2 L 114.7 116.6 L 114.9 104.0 L 114.9 21.0 L 126.9 27.0 L 165.9 27.0 L 171.9 22.0 L 182.9 31.0 L 177.9 35.0 L 177.9 172.0 L 177.8 174.5 Z " />
</g>
</svg>
