<svg xmlns="http://www.w3.org/2000/svg" xmlns:xlink="http://www.w3.org/1999/xlink" version="1.1" baseProfile="full" viewBox="0 0 200 200" width="200" height="200">
<g fill="black">
<path d="M 51.4 183.8 L 48.9 183.4 L 46.5 182.6 L 44.2 181.3 L 42.2 179.7 L 40.6 177.7 L 39.3 175.4 L 38.5 173.0 L 38.1 170.5 L 38.0 168.0 L 38.0 94.0 L 14.0 94.0 L 14.0 90.0 L 94.0 90.0 L 94.0 57.1 L 12.0 57.1 L 12.0 53.1 L 112.29166669845581 53.1 L 114.7 49.7 L 118.1 45.1 L 121.4 40.8 L 124.6 36.6 L 127.6 32.4 L 130.5 28.4 L 133.2 24.5 L 135.8 20.6 L 138.2 16.9 L 139.91811141967773 14.010448932647705 L 139.9 14.0 L 140.125 13.6625 L 140.4 13.2 L 140.42286376953126 13.215704345703125 L 140.9 12.5 L 150.3 20.0 L 151.6 23.4 L 147.77368421554564 23.136116123199464 L 147.4 23.6 L 144.3 27.2 L 141.1 30.8 L 137.6 34.4 L 134.0 38.0 L 130.2 41.6 L 126.2 45.3 L 121.9 48.9 L 117.4 52.4 L 116.38181819915772 53.1 L 166.0 53.1 L 176.0 43.1 L 188.0 53.1 L 188.0 57.1 L 106.0 57.1 L 106.0 90.0 L 164.0 90.0 L 174.0 80.0 L 186.0 90.0 L 186.0 94.0 L 50.0 94.0 L 50.0 169.2 L 50.2 170.1 L 50.5 171.0 L 50.9 171.4 L 51.8 171.7 L 52.7 171.9 L 54.0 172.0 L 170.0 172.0 L 173.6 174.4 L 176.0 178.0 L 173.6 181.6 L 170.0 184.0 L 54.0 184.0 Z M 64.1 41.3 L 62.6 38.8 L 60.8 36.1 L 58.7 33.2 L 56.4 30.3 L 53.7 27.2 L 50.8 23.9 L 47.7 20.5 L 44.2 17.1 L 45.3 15.6 L 49.6 18.1 L 53.7 20.4 L 57.6 22.8 L 61.1 25.2 L 64.3 27.6 L 67.3 30.1 L 70.1 32.6 L 72.6 35.1 L 74.8 37.6 L 76.8 40.2 L 77.2 44.7 L 74.4 48.3 L 69.8 48.8 L 66.2 46.0 L 65.3 43.7 Z " />
</g>
</svg>
