<svg xmlns="http://www.w3.org/2000/svg" xmlns:xlink="http://www.w3.org/1999/xlink" version="1.1" baseProfile="full" viewBox="0 0 200 200" width="200" height="200">
<g fill="black">
<path d="M 85.9 99.4 L 87.6 102.5 L 83.98971014022827 102.81123189926147 L 80.3 109.4 L 74.5 119.2 L 68.4 128.8 L 62.1 138.1 L 55.6 147.1 L 48.8 155.9 L 41.7 164.4 L 34.4 172.6 L 26.7 180.4 L 18.6 187.9 L 17.3 186.6 L 23.8 177.9 L 30.2 169.2 L 36.5 160.4 L 42.7 151.4 L 48.6 142.3 L 54.3 133.0 L 59.9 123.5 L 65.2 113.9 L 70.3 104.0 L 75.1 94.0 L 75.13999996185302 94.01999998092651 L 75.7 92.9 Z M 151.9 156.6 L 147.7 147.4 L 143.3 138.7 L 138.6 130.4 L 133.6 122.5 L 128.4 115.0 L 122.8 107.8 L 117.1 100.9 L 111.1 94.2 L 112.3 92.8 L 119.7 98.1 L 126.8 104.1 L 133.4 110.8 L 139.7 118.0 L 145.7 125.7 L 151.3 134.0 L 156.6 142.8 L 161.6 152.1 L 166.2 161.8 L 170.6 172.0 L 170.3 176.6 L 167.0 179.7 L 162.4 179.5 L 159.3 176.2 L 155.7 166.2 Z M 151.0 19.0 L 152.9 22.1 L 149.19532709121705 22.54711570739746 L 148.1 24.7 L 145.0 30.3 L 141.7 36.0 L 138.2 41.8 L 134.5 47.6 L 130.7 53.4 L 126.6 59.3 L 122.3 65.1 L 117.7 70.9 L 114.85517244338989 74.2 L 166.0 74.2 L 176.0 64.2 L 188.0 74.2 L 188.0 78.2 L 12.0 78.2 L 12.0 74.2 L 111.9279411315918 74.2 L 114.5 68.9 L 117.7 62.3 L 121.0 55.8 L 127.2 43.4 L 132.8 31.4 L 135.4 25.5 L 137.8 19.8 L 139.7322374343872 15.011411476135255 L 139.7 15.0 L 140.6 12.9 Z M 63.8 53.2 L 62.1 49.2 L 60.2 45.1 L 58.0 40.8 L 55.6 36.4 L 53.0 31.8 L 50.1 27.1 L 47.1 22.2 L 43.9 17.0 L 45.3 15.8 L 50.0 19.8 L 54.3 23.8 L 58.2 27.9 L 61.9 32.1 L 65.2 36.2 L 68.2 40.3 L 71.0 44.5 L 73.5 48.6 L 75.7 52.7 L 77.6 56.9 L 77.3 61.4 L 74.0 64.5 L 69.4 64.2 L 66.3 60.9 L 65.2 57.1 Z " />
</g>
</svg>
