<svg xmlns="http://www.w3.org/2000/svg" xmlns:xlink="http://www.w3.org/1999/xlink" version="1.1" baseProfile="full" viewBox="0 0 200 200" width="200" height="200">
<g fill="black">
<path d="M 37.0 181.5 L 25.0 187.5 L 25.0 118.7 L 37.0 124.7 L 163.0 124.7 L 169.0 119.7 L 180.0 128.7 L 175.0 132.7 L 175.0 178.5 L 163.0 184.5 L 163.0 174.5 L 37.0 174.5 Z M 37.0 128.7 L 37.0 170.5 L 71.0 170.5 L 71.0 128.7 Z M 83.0 128.7 L 83.0 170.5 L 117.0 170.5 L 117.0 128.7 Z M 129.0 128.7 L 129.0 170.5 L 163.0 170.5 L 163.0 128.7 Z M 53.9 26.0 L 146.0 26.0 L 152.0 21.0 L 163.0 30.0 L 158.0 34.0 L 158.0 107.4 L 146.0 113.4 L 146.0 30.0 L 53.9 30.0 L 53.9 107.4 L 41.9 113.4 L 41.9 20.0 Z M 133.6 88.5 L 133.6 92.5 L 66.4 92.5 L 66.4 88.5 L 111.6 88.5 L 121.6 78.5 Z M 133.6 57.3 L 133.6 61.3 L 66.4 61.3 L 66.4 57.3 L 111.6 57.3 L 121.6 47.3 Z " />
</g>
</svg>
