<svg xmlns="http://www.w3.org/2000/svg" xmlns:xlink="http://www.w3.org/1999/xlink" version="1.1" baseProfile="full" viewBox="0 0 200 200" width="200" height="200">
<g fill="black">
<path d="M 147.3 165.6 L 135.9 152.8 L 126.1 138.3 L 118.1 122.2 L 111.8 104.6 L 107.1 85.4 L 104.1 64.6 L 103.33637533187866 51.559640121459964 L 101.5 67.3 L 96.9 89.3 L 90.6 109.4 L 82.6 127.6 L 72.8 143.7 L 61.4 157.9 L 48.2 169.9 L 33.4 179.7 L 17.1 187.3 L 16.3 185.6 L 31.4 176.5 L 44.8 165.8 L 56.4 153.5 L 66.5 139.5 L 75.0 123.8 L 81.8 106.3 L 87.1 86.9 L 90.8 65.7 L 92.9 42.6 L 93.5 17.5 L 93.5 15.1 L 105.5 17.5 L 108.5 19.5 L 105.4955138206482 21.302691650390624 L 107.0 42.1 L 109.9 63.9 L 114.1 83.8 L 119.7 102.0 L 126.6 118.3 L 134.9 132.9 L 144.4 145.8 L 155.4 157.0 L 167.6 166.5 L 181.3 174.4 L 186.5 177.1 L 175.2 186.1 L 160.4 176.7 Z M 12.9 114.2 L 19.1 111.1 L 25.5 107.8 L 32.1 104.3 L 38.9 100.6 L 45.9 96.7 L 53.1 92.7 L 60.5 88.5 L 68.2 84.1 L 76.2 79.7 L 84.4 75.2 L 85.5 76.7 L 78.3 82.8 L 71.2 88.6 L 64.2 94.0 L 57.2 99.1 L 50.4 103.9 L 43.8 108.5 L 37.3 112.9 L 30.9 117.1 L 24.7 121.0 L 22.22269401550293 122.52767200469971 L 21.9 126.4 L 18.7 124.7 L 11.2 115.2 Z M 165.7 109.7 L 160.8 105.3 L 155.7 101.0 L 150.3 96.8 L 144.7 92.8 L 138.8 88.8 L 132.6 85.0 L 126.2 81.1 L 119.5 77.2 L 120.2 75.5 L 127.7 77.6 L 135.0 80.1 L 141.9 83.0 L 148.6 86.2 L 155.0 89.7 L 161.1 93.4 L 167.0 97.4 L 172.7 101.6 L 178.1 106.0 L 183.2 110.6 L 184.8 114.9 L 183.0 119.1 L 178.8 120.7 L 174.5 118.9 L 170.2 114.2 Z M 179.1 27.2 L 179.5 30.7 L 176.01166667938233 29.55836362838745 L 173.6 31.4 L 168.0 35.6 L 162.4 39.7 L 156.8 43.7 L 151.1 47.7 L 145.4 51.6 L 139.6 55.4 L 133.7 59.0 L 127.6 62.5 L 121.5 65.7 L 120.4 64.2 L 125.4 59.4 L 130.5 54.7 L 135.6 50.1 L 140.8 45.6 L 145.9 41.0 L 151.0 36.5 L 166.3 22.7 L 170.52696571350097 18.726652240753175 L 170.5 18.7 L 171.4 17.9 Z M 60.5 52.7 L 57.5 48.6 L 54.2 44.7 L 50.4 40.9 L 46.2 37.3 L 41.7 33.7 L 36.7 30.2 L 31.3 26.7 L 25.6 23.2 L 26.2 21.5 L 32.9 23.2 L 39.2 25.4 L 45.1 28.0 L 50.6 31.0 L 55.7 34.3 L 60.5 37.9 L 64.9 41.9 L 69.0 46.1 L 72.6 50.6 L 75.8 55.5 L 76.2 60.0 L 73.4 63.6 L 68.8 64.0 L 65.2 61.2 L 63.0 56.9 Z " />
</g>
</svg>
