<svg xmlns="http://www.w3.org/2000/svg" xmlns:xlink="http://www.w3.org/1999/xlink" version="1.1" baseProfile="full" viewBox="0 0 200 200" width="200" height="200">
<g fill="black">
<path d="M 168.1 162.9 L 164.3 157.8 L 159.7 152.5 L 154.3 146.8 L 148.0 140.9 L 141.0 134.8 L 133.1 128.3 L 124.6 121.5 L 115.3 114.2 L 116.3 112.7 L 126.7 118.3 L 136.2 123.9 L 144.9 129.5 L 152.8 135.1 L 159.9 140.5 L 166.2 145.8 L 171.8 151.1 L 176.6 156.3 L 180.7 161.4 L 184.0 166.6 L 184.2 171.1 L 181.3 174.6 L 176.7 174.9 L 173.2 172.0 L 171.1 167.6 Z M 14.7 164.8 L 21.4 159.3 L 28.1 153.9 L 34.9 148.4 L 41.7 143.0 L 48.6 137.6 L 62.6 126.8 L 69.7 121.5 L 76.9 116.3 L 84.4 111.3 L 85.5 112.6 L 79.4 119.2 L 73.2 125.6 L 66.9 131.8 L 60.5 137.9 L 54.2 144.0 L 47.8 150.0 L 35.2 162.0 L 28.9 167.9 L 25.63221158981323 171.00966958999635 L 26.1 174.7 L 22.7 173.8 L 13.2 166.1 Z M 62.2 69.7 L 59.6 65.1 L 56.2 60.2 L 52.1 55.1 L 47.3 49.7 L 41.8 44.0 L 35.6 38.1 L 28.7 31.9 L 21.3 25.3 L 22.3 23.8 L 31.0 28.8 L 38.9 33.9 L 46.1 39.0 L 52.5 44.1 L 58.2 49.2 L 63.3 54.2 L 67.7 59.2 L 71.4 64.2 L 74.4 69.2 L 76.8 74.3 L 76.3 78.8 L 72.9 81.8 L 68.3 81.4 L 65.3 77.9 L 64.1 74.0 Z M 180.5 30.9 L 181.2 34.4 L 177.48204545974733 33.4868182182312 L 177.0 33.9 L 172.9 37.3 L 168.2 41.2 L 162.8 45.5 L 156.8 50.3 L 150.2 55.6 L 142.8 61.3 L 134.8 67.4 L 126.1 73.8 L 116.5 80.6 L 115.4 79.3 L 123.6 71.0 L 131.3 63.3 L 138.5 56.3 L 145.2 49.8 L 151.2 43.9 L 156.6 38.6 L 161.4 33.7 L 165.6 29.4 L 169.1 25.7 L 171.34862213134767 23.14122314453125 L 171.3 23.1 L 172.3 22.1 Z " />
</g>
</svg>
