<svg xmlns="http://www.w3.org/2000/svg" xmlns:xlink="http://www.w3.org/1999/xlink" version="1.1" baseProfile="full" viewBox="0 0 200 200" width="200" height="200">
<g fill="black">
<path d="M 150.5 184.3 L 146.3 185.9 L 144.2 186.5 L 142.0 187.0 L 139.8 187.4 L 137.5 187.7 L 135.2 187.9 L 133.0 188.0 L 133.0 182.0 L 113.0 179.0 L 113.0 176.0 L 133.0 176.0 L 134.6 175.9 L 136.3 175.8 L 137.9 175.6 L 139.5 175.3 L 141.1 174.9 L 142.6 174.5 L 144.2 173.9 L 145.7 173.3 L 147.2 172.6 L 148.7 171.8 L 153.5 167.9 L 158.1 161.5 L 162.3 152.6 L 165.9 141.0 L 168.7 126.8 L 170.8 110.0 L 99.2820689201355 110.0 L 99.2 110.7 L 95.9 124.3 L 90.9 136.7 L 84.3 148.1 L 76.1 158.2 L 66.5 167.2 L 55.3 175.0 L 42.7 181.5 L 28.7 186.8 L 13.2 190.8 L 12.7 189.1 L 27.3 183.3 L 40.3 176.8 L 51.7 169.5 L 61.5 161.5 L 69.8 152.7 L 76.5 143.0 L 81.7 132.6 L 85.6 121.2 L 87.8032787322998 110.0 L 29.0 110.0 L 29.0 106.0 L 88.2255639076233 106.0 L 89.0 95.7 L 89.0 62.0 L 37.0 62.0 L 37.0 58.0 L 89.0 58.0 L 89.0 20.0 L 34.0 20.0 L 34.0 16.0 L 171.0 16.0 L 177.0 11.0 L 188.0 20.0 L 183.13636360168456 22.918181800842284 L 184.1 44.6 L 184.5 69.1 L 184.0 91.3 L 182.7 111.2 L 180.5 128.7 L 177.5 143.9 L 173.5 156.8 L 168.5 167.5 L 162.3 176.1 L 154.6 182.2 L 152.6 183.3 Z M 100.9 96.2 L 99.75103445053101 106.0 L 171.05 106.0 L 172.0 90.8 L 172.5 69.1 L 172.3826446533203 62.0 L 101.0 62.0 L 101.0 96.0 L 100.86757497787475 96.19863758087158 Z M 101.0 20.0 L 101.0 58.0 L 172.31652889251708 58.0 L 172.1 44.9 L 171.39433326721192 27.83569450378418 L 171.0 28.0 L 171.0 20.0 Z " />
</g>
</svg>
