<svg xmlns="http://www.w3.org/2000/svg" xmlns:xlink="http://www.w3.org/1999/xlink" version="1.1" baseProfile="full" viewBox="0 0 200 200" width="200" height="200">
<g fill="black">
<path d="M 91.0 92.0 L 155.0 92.0 L 161.0 87.0 L 172.0 96.0 L 167.0 100.0 L 167.0 177.0 L 155.0 183.0 L 155.0 173.0 L 91.0 173.0 L 91.0 180.0 L 79.0 186.0 L 79.0 86.0 Z M 52.0 88.0 L 55.0 90.0 L 52.0 91.8 L 52.0 179.0 L 40.0 185.0 L 40.0 86.0 Z M 91.0 132.0 L 91.0 169.0 L 155.0 169.0 L 155.0 132.0 Z M 91.0 96.0 L 91.0 128.0 L 155.0 128.0 L 155.0 96.0 Z M 91.7 20.8 L 93.3 24.0 L 89.60547914505005 24.062619018554688 L 86.5 28.9 L 81.0 36.7 L 79.22837839126586 39.0 L 139.0 39.0 L 139.2627737045288 38.78102188110351 L 139.8 37.8 L 140.1690929412842 38.025755882263184 L 145.0 34.0 L 156.0 43.0 L 151.0 46.0 L 147.64606742858888 47.39747190475464 L 146.9 48.4 L 143.5 52.7 L 139.9 57.0 L 135.9 61.3 L 131.7 65.7 L 127.1 70.2 L 122.3 74.6 L 117.1 79.0 L 111.5 83.4 L 105.6 87.6 L 104.3 86.3 L 108.9 80.6 L 113.3 75.2 L 117.5 70.0 L 121.5 65.0 L 125.2 60.2 L 128.7 55.4 L 131.9 50.8 L 134.8 46.4 L 136.88636360168456 43.0 L 76.14729728698731 43.0 L 75.3 44.1 L 69.3 51.2 L 63.0 58.0 L 56.5 64.4 L 49.7 70.4 L 42.6 76.0 L 35.2 81.1 L 27.5 85.7 L 26.4 84.2 L 32.8 78.1 L 39.1 71.9 L 45.2 65.6 L 51.0 59.1 L 56.7 52.4 L 62.0 45.4 L 67.2 38.1 L 72.1 30.6 L 76.8 22.9 L 80.70887575149536 15.704115104675292 L 80.7 15.7 L 80.8 15.53636360168457 L 81.2 14.8 L 81.23705883026123 14.821176433563233 L 81.8 13.9 Z " />
</g>
</svg>
