<svg xmlns="http://www.w3.org/2000/svg" xmlns:xlink="http://www.w3.org/1999/xlink" version="1.1" baseProfile="full" viewBox="0 0 200 200" width="200" height="200">
<g fill="black">
<path d="M 158.3 179.3 L 154.8 175.9 L 150.8 172.6 L 146.6 169.3 L 142 166.1 L 137.1 162.9 L 131.9 159.7 L 126.4 156.6 L 120.7 153.3 L 114.6 150 L 115.2 148.3 L 122 149.8 L 128.6 151.7 L 134.8 153.8 L 140.7 156.2 L 146.3 158.7 L 151.6 161.5 L 156.6 164.4 L 161.4 167.5 L 165.8 170.7 L 170 174.1 L 171.7 178.4 L 170.1 182.6 L 165.9 184.4 L 161.6 182.7 Z M 73.4 144.9 L 81.3 153.9 L 81.9 157.4 L 78.2 156.4 L 76.3 157.9 L 71.1 161.7 L 65.6 165.3 L 59.9 168.7 L 53.9 171.9 L 47.7 174.8 L 41.2 177.5 L 34.5 180 L 27.5 182.1 L 20.3 183.8 L 19.6 182.1 L 26.1 178.6 L 32.4 175.1 L 38.4 171.6 L 44.1 168.1 L 49.6 164.5 L 54.9 160.9 L 59.8 157.1 L 64.5 153.2 L 69 149.2 L 73.1 145.1 Z M 173 125 L 185 135 L 185 139 L 15 139 L 15 135 L 163 135 Z " />
</g>
</svg>
