<svg xmlns="http://www.w3.org/2000/svg" xmlns:xlink="http://www.w3.org/1999/xlink" version="1.1" baseProfile="full" viewBox="0 0 200 200" width="200" height="200">
<g fill="black">
<path d="M 137.0 175.0 L 157.0 175.0 L 158.2 174.9 L 159.1 174.7 L 160.0 174.4 L 160.4 174.0 L 160.7 173.1 L 160.9 172.2 L 161.0 171.0 L 161.0 35.0 L 41.0 35.0 L 41.0 178.0 L 29.0 184.0 L 29.0 25.0 L 41.0 31.0 L 161.0 31.0 L 167.0 26.0 L 178.0 35.0 L 173.0 39.0 L 173.0 171.0 L 172.8 173.5 L 172.4 176.0 L 171.6 178.4 L 170.3 180.7 L 168.7 182.7 L 166.7 184.3 L 164.4 185.6 L 162.0 186.4 L 159.5 186.8 L 157.0 187.0 L 157.0 181.0 L 137.0 178.0 Z M 147.0 105.0 L 147.0 109.0 L 54.0 109.0 L 54.0 105.0 L 125.0 105.0 L 135.0 95.0 Z " />
</g>
</svg>
