<svg xmlns="http://www.w3.org/2000/svg" xmlns:xlink="http://www.w3.org/1999/xlink" version="1.1" baseProfile="full" viewBox="0 0 200 200" width="200" height="200">
<g fill="black">
<path d="M 144.6 181.6 L 140.4 183.4 L 138.2 184.1 L 133.8 185.1 L 131.5 185.4 L 129.3 185.6 L 127.0 185.7 L 127.0 179.7 L 107.0 176.7 L 107.0 173.7 L 127.0 173.7 L 130.2 173.5 L 133.4 172.9 L 136.4 172.1 L 137.8 171.5 L 139.3 170.8 L 140.7 170.1 L 142.1 169.2 L 144.6 167.3 L 147.0 164.5 L 149.4 160.9 L 151.6 156.4 L 153.6 150.9 L 155.4 144.6 L 156.9 137.4 L 158.2 129.2 L 159.2 120.3 L 159.80606060028077 112.8 L 93.64172658920288 112.8 L 90.2 123.2 L 84.1 135.8 L 76.7 147.3 L 67.8 157.5 L 57.6 166.4 L 46.1 173.9 L 33.3 180.1 L 19.3 184.8 L 18.6 183.1 L 31.7 176.6 L 43.2 169.4 L 53.4 161.3 L 62.2 152.3 L 69.7 142.4 L 75.9 131.5 L 80.8 119.7 L 84.4 106.7 L 86.8 92.7 L 87.9 77.7 L 87.92808837890625 77.7011703491211 L 87.975 76.2 L 57.0 76.2 L 57.0 88.2 L 45.0 94.2 L 45.0 21.5 L 57.0 27.5 L 145.0 27.5 L 151.0 22.5 L 162.0 31.5 L 157.0 35.5 L 157.0 82.2 L 145.0 88.2 L 145.0 76.2 L 91.4 76.2 L 99.9 78.2 L 102.8 80.4 L 99.4561164855957 82.17029123306274 L 98.1 94.3 L 94.91000003814698 108.8 L 160.0 108.8 L 166.0 103.8 L 177.0 112.8 L 172.0 115.8 L 171.5683596611023 115.97985010147094 L 171.2 121.4 L 170.1 130.8 L 168.7 139.5 L 167.0 147.5 L 165.0 154.6 L 162.6 161.1 L 159.8 166.8 L 156.6 171.7 L 152.9 176.0 L 148.6 179.3 L 146.6 180.5 Z M 57.0 31.5 L 57.0 72.2 L 145.0 72.2 L 145.0 31.5 Z " />
</g>
</svg>
