<svg xmlns="http://www.w3.org/2000/svg" xmlns:xlink="http://www.w3.org/1999/xlink" version="1.1" baseProfile="full" viewBox="0 0 200 200" width="200" height="200">
<g fill="black">
<path d="M 59.0 95.6 L 133.8 95.6 L 139.8 90.6 L 150.8 99.6 L 145.8 103.6 L 145.8 128.4 L 133.8 134.4 L 133.8 126.4 L 59.0 126.4 L 59.0 141.6 L 141.9 141.6 L 147.9 136.6 L 158.9 145.6 L 153.9 149.6 L 153.9 178.5 L 141.9 184.5 L 141.9 174.5 L 59.0 174.5 L 59.0 181.5 L 47.0 187.5 L 47.0 89.6 Z M 59.0 145.6 L 59.0 170.5 L 141.9 170.5 L 141.9 145.6 Z M 59.0 99.6 L 59.0 122.4 L 133.8 122.4 L 133.8 99.6 Z M 15.0 76.0 L 94.0 76.0 L 94.0 62.0 L 56.0 62.0 L 44.0 68.0 L 44.0 24.0 L 56.0 30.0 L 94.0 30.0 L 94.0 12.0 L 106.0 14.0 L 109.0 16.0 L 106.0 17.8 L 106.0 30.0 L 144.0 30.0 L 150.0 25.0 L 161.0 34.0 L 156.0 38.0 L 156.0 62.0 L 144.0 68.0 L 144.0 62.0 L 106.0 62.0 L 106.0 76.0 L 166.8181818008423 76.0 L 175.0 67.0 L 185.0 76.0 L 185.0 80.0 L 15.0 80.0 Z M 56.0 34.0 L 56.0 58.0 L 94.0 58.0 L 94.0 34.0 Z M 106.0 34.0 L 106.0 58.0 L 144.0 58.0 L 144.0 34.0 Z " />
</g>
</svg>
