<svg xmlns="http://www.w3.org/2000/svg" xmlns:xlink="http://www.w3.org/1999/xlink" version="1.1" baseProfile="full" viewBox="0 0 200 200" width="200" height="200">
<g fill="black">
<path d="M 45.0 23.0 L 161.0 23.0 L 167.0 18.0 L 178.0 27.0 L 173.0 31.0 L 173.0 72.0 L 161.0 78.0 L 161.0 66.0 L 45.0 66.0 L 45.0 87.0 L 44.4 99.7 L 43.3 111.8 L 41.7 123.3 L 39.5 134.2 L 36.8 144.5 L 33.6 154.1 L 29.7 163.1 L 25.4 171.4 L 20.3 178.8 L 14.7 185.5 L 13.2 184.4 L 17.1 176.9 L 20.6 169.0 L 23.7 160.6 L 26.3 151.8 L 28.6 142.4 L 30.4 132.5 L 31.7 122.0 L 32.6 110.9 L 33.0 99.2 L 33.0 17.0 Z M 145.6 159.1 L 157.6 159.1 L 158.8 159.0 L 159.7 158.9 L 160.3 158.7 L 160.7 158.5 L 160.8 158.3 L 161.0 158.2 L 161.2 157.8 L 161.4 157.2 L 161.5 156.3 L 161.6 155.1 L 161.6 103.5 L 122.1 103.5 L 122.1 182.9 L 110.1 188.9 L 110.1 103.5 L 70.7 103.5 L 70.7 164.6 L 58.7 170.6 L 58.7 93.5 L 70.7 99.5 L 110.1 99.5 L 110.1 79.7 L 122.1 81.7 L 125.1 83.7 L 122.1 85.5 L 122.1 99.5 L 161.6 99.5 L 167.6 94.5 L 178.6 103.5 L 173.6 107.5 L 173.6 155.1 L 173.4 157.6 L 173.0 160.1 L 172.2 162.5 L 171.0 164.8 L 169.3 166.8 L 167.3 168.5 L 165.0 169.7 L 162.6 170.5 L 160.1 170.9 L 157.6 171.1 L 157.6 165.1 L 145.6 162.1 Z M 45.0 27.0 L 45.0 62.0 L 161.0 62.0 L 161.0 27.0 Z " />
</g>
</svg>
