<svg xmlns="http://www.w3.org/2000/svg" xmlns:xlink="http://www.w3.org/1999/xlink" version="1.1" baseProfile="full" viewBox="0 0 200 200" width="200" height="200">
<g fill="black">
<path d="M 164.8 176.4 L 162.1 172.3 L 159.0 168.2 L 156.91935482025147 165.88156681060792 L 147.5 167.9 L 134.6 170.3 L 121.3 172.4 L 107.9 174.4 L 94.1 176.2 L 80.1 177.8 L 65.8 179.3 L 51.2 180.7 L 36.3 181.9 L 25.309290885925293 182.70064764022828 L 23.4 185.9 L 21.2 183.0 L 18.7 171.1 L 20.6 171.0 L 35.7 170.5 L 50.5 169.9 L 65.0 169.3 L 79.3 168.5 L 93.3 167.7 L 94.0 167.6543478012085 L 94.0 136.8 L 51.0 136.8 L 51.0 148.8 L 39.0 154.8 L 39.0 96.1 L 51.0 102.1 L 94.0 102.1 L 94.0 83.9 L 106.0 85.9 L 109.0 87.9 L 106.0 89.7 L 106.0 102.1 L 149.0 102.1 L 155.0 97.1 L 166.0 106.1 L 161.0 110.1 L 161.0 136.8 L 149.0 142.8 L 149.0 136.8 L 106.0 136.8 L 106.0 166.8717391014099 L 107.1 166.8 L 120.6 165.9 L 133.9 165.0 L 147.0 164.1 L 154.86962966918946 163.66962966918945 L 151.6 160.4 L 147.4 156.6 L 142.7 152.8 L 137.8 149.0 L 132.4 145.0 L 133.2 143.4 L 139.6 145.6 L 145.6 148.2 L 151.1 151.2 L 156.3 154.5 L 161.2 158.0 L 165.7 161.8 L 169.8 165.8 L 173.6 170.1 L 176.9 174.6 L 179.9 179.4 L 180.2 183.9 L 177.3 187.4 L 172.7 187.7 L 169.2 184.8 L 167.2 180.5 Z M 51.0 106.1 L 51.0 132.8 L 94.0 132.8 L 94.0 106.1 Z M 106.0 106.1 L 106.0 132.8 L 149.0 132.8 L 149.0 106.1 Z M 140.2 89.3 L 126.2 84.1 L 113.3 78.0 L 101.4 70.9 L 101.2581163406372 70.79586524963379 L 100.1 71.5 L 86.3 78.1 L 71.3 83.7 L 55.1 88.2 L 37.7 91.7 L 19.1 94.0 L 18.8 92.2 L 36.9 88.0 L 53.7 83.1 L 69.1 77.5 L 83.1 71.2 L 93.78470487594605 65.3107925415039 L 90.5 62.9 L 80.8 53.9 L 72.1 44.0 L 64.7 33.2 L 59.310169506072995 22.6 L 34.0 22.6 L 34.0 18.6 L 139.0 18.6 L 139.4495412826538 18.225382232666014 L 139.7 17.8 L 139.85853662490845 17.88455286026001 L 145.0 13.6 L 156.0 22.6 L 151.0 25.6 L 147.99882583618165 26.850489234924318 L 142.8 35.0 L 134.0 45.7 L 123.9 55.3 L 112.6 63.9 L 110.55262660980225 65.14480304718018 L 117.8 68.8 L 130.2 73.8 L 143.5 78.0 L 157.8 81.2 L 172.9 83.6 L 182.8 85.1 L 171.0 96.7 L 155.1 93.5 Z M 61.81067962646485 22.6 L 68.1 30.8 L 76.6 40.2 L 85.7 48.7 L 95.6 56.3 L 101.73322076797486 60.14042797088623 L 107.2 56.4 L 117.2 47.9 L 126.0 38.6 L 133.4 28.5 L 136.8738317489624 22.6 Z " />
</g>
</svg>
